# MagicaVoxel @ Ephtracy

# group
o 

# material
mtllib KnightMechAP7.mtl
usemtl palette

# normals
vn -1 0 0
vn 1 0 0
vn 0 0 1
vn 0 0 -1
vn 0 -1 0
vn 0 1 0

# texcoords
vt 0.970703 0.5
vt 0.974609 0.5
vt 0.978516 0.5
vt 0.982422 0.5

# verts
v -0.2 0.6 -0.3
v -0.2 0.6 -0.4
v -0.2 0.8 -0.3
v -0.2 0.8 -0.4
v -0.1 0.4 -0.2
v -0.1 0.4 -0.3
v -0.1 0.5 -0.2
v -0.1 0.5 -0.3
v -0.1 0.5 -0.4
v -0.1 0.6 -0.3
v -0.1 0.6 -0.4
v -0.1 0.8 -0.3
v -0.1 0.8 -0.4
v -0.1 0.9 -0.2
v -0.1 0.9 -0.3
v -0.1 0.9 -0.4
v -0.1 1 -0.2
v -0.1 1 -0.3
v 0 0.4 -0.1
v 0 0.4 -0.2
v 0 0.5 -0.1
v 0 0.5 -0.2
v 0 0.5 -0.3
v 0 0.6 -0.2
v 0 0.6 -0.3
v 0 0.7 -0.1
v 0 0.7 -0.2
v 0 0.8 -0.3
v 0 0.9 -0.1
v 0 0.9 -0.2
v 0 0.9 -0.3
v 0 1 -0.1
v 0 1 -0.2
v 0.1 0 0.2
v 0.1 0 -0.1
v 0.1 0.1 0.3
v 0.1 0.1 0.2
v 0.1 0.1 0.1
v 0.1 0.1 0
v 0.1 0.1 -0.1
v 0.1 0.1 -0.2
v 0.1 0.3 0.1
v 0.1 0.3 0
v 0.1 0.4 -0.1
v 0.1 0.4 -0.2
v 0.1 0.5 0
v 0.1 0.5 -0.1
v 0.1 0.7 0.1
v 0.1 0.7 0
v 0.1 0.7 -0.1
v 0.1 0.8 0
v 0.1 0.8 -0.1
v 0.1 0.9 0.3
v 0.1 0.9 0.2
v 0.1 0.9 0.1
v 0.1 0.9 0
v 0.1 0.9 -0.1
v 0.1 1 0.2
v 0.1 1 -0.1
v 0 0.5 -0.3
v 0 0.5 -0.4
v 0 0.6 -0.3
v 0 0.6 -0.4
v 0 0.8 -0.3
v 0 0.8 -0.4
v 0 0.9 -0.3
v 0 0.9 -0.4
v 0.1 0.4 -0.1
v 0.1 0.4 -0.2
v 0.1 0.4 -0.3
v 0.1 0.5 -0.1
v 0.1 0.5 -0.2
v 0.1 0.5 -0.3
v 0.1 0.6 -0.2
v 0.1 0.6 -0.3
v 0.1 0.7 -0.1
v 0.1 0.7 -0.2
v 0.1 0.8 -0.1
v 0.1 0.9 -0.1
v 0.1 0.9 -0.2
v 0.1 0.9 -0.3
v 0.1 1 -0.1
v 0.1 1 -0.3
v 0.2 0 0.2
v 0.2 0 -0.1
v 0.2 0.1 0.3
v 0.2 0.1 0.2
v 0.2 0.1 0.1
v 0.2 0.1 0
v 0.2 0.1 -0.1
v 0.2 0.1 -0.2
v 0.2 0.3 0.1
v 0.2 0.3 0
v 0.2 0.4 -0.1
v 0.2 0.4 -0.2
v 0.2 0.5 0
v 0.2 0.5 -0.1
v 0.2 0.7 0.1
v 0.2 0.7 0
v 0.2 0.8 0
v 0.2 0.8 -0.1
v 0.2 0.9 0.3
v 0.2 0.9 0.2
v 0.2 0.9 0.1
v 0.2 0.9 0
v 0.2 0.9 -0.1
v 0.2 1 0.2
v 0.2 1 -0.1
v 0.1 0.1 0.3
v 0.1 0.9 0.3
v 0.2 0.1 0.3
v 0.2 0.9 0.3
v 0.1 0 0.2
v 0.1 0.1 0.2
v 0.1 0.9 0.2
v 0.1 1 0.2
v 0.2 0 0.2
v 0.2 0.1 0.2
v 0.2 0.9 0.2
v 0.2 1 0.2
v 0 0.4 -0.1
v 0 0.5 -0.1
v 0 0.7 -0.1
v 0 0.9 -0.1
v 0 1 -0.1
v 0.1 0.4 -0.1
v 0.1 0.5 -0.1
v 0.1 0.7 -0.1
v 0.1 0.8 -0.1
v 0.1 0.9 -0.1
v 0.1 1 -0.1
v -0.1 0.4 -0.2
v -0.1 0.5 -0.2
v -0.1 0.9 -0.2
v -0.1 1 -0.2
v 0 0.4 -0.2
v 0 0.5 -0.2
v 0 0.9 -0.2
v 0 1 -0.2
v -0.2 0.6 -0.3
v -0.2 0.8 -0.3
v -0.1 0.5 -0.3
v -0.1 0.6 -0.3
v -0.1 0.8 -0.3
v -0.1 0.9 -0.3
v 0 0.5 -0.3
v 0 0.6 -0.3
v 0 0.8 -0.3
v 0 0.9 -0.3
v 0.1 0 -0.1
v 0.1 0.1 -0.1
v 0.1 0.4 -0.1
v 0.1 0.5 -0.1
v 0.1 0.7 -0.1
v 0.1 0.8 -0.1
v 0.1 0.9 -0.1
v 0.1 1 -0.1
v 0.2 0 -0.1
v 0.2 0.1 -0.1
v 0.2 0.4 -0.1
v 0.2 0.5 -0.1
v 0.2 0.8 -0.1
v 0.2 0.9 -0.1
v 0.2 1 -0.1
v 0.1 0.1 -0.2
v 0.1 0.4 -0.2
v 0.2 0.1 -0.2
v 0.2 0.4 -0.2
v -0.1 0.4 -0.3
v -0.1 0.5 -0.3
v -0.1 0.9 -0.3
v -0.1 1 -0.3
v 0 0.4 -0.3
v 0 0.5 -0.3
v 0 0.6 -0.3
v 0 0.8 -0.3
v 0 0.9 -0.3
v 0 1 -0.3
v 0.1 0.4 -0.3
v 0.1 0.5 -0.3
v 0.1 0.6 -0.3
v 0.1 0.9 -0.3
v 0.1 1 -0.3
v -0.2 0.6 -0.4
v -0.2 0.8 -0.4
v -0.1 0.5 -0.4
v -0.1 0.6 -0.4
v -0.1 0.8 -0.4
v -0.1 0.9 -0.4
v 0 0.5 -0.4
v 0 0.6 -0.4
v 0 0.8 -0.4
v 0 0.9 -0.4
v 0.1 0 0.2
v 0.2 0 0.2
v 0.1 0 -0.1
v 0.2 0 -0.1
v 0.1 0.1 0.3
v 0.2 0.1 0.3
v 0.1 0.1 0.2
v 0.2 0.1 0.2
v 0.1 0.1 -0.1
v 0.2 0.1 -0.1
v 0.1 0.1 -0.2
v 0.2 0.1 -0.2
v 0 0.4 -0.1
v 0.1 0.4 -0.1
v -0.1 0.4 -0.2
v 0 0.4 -0.2
v 0.1 0.4 -0.2
v -0.1 0.4 -0.3
v 0 0.4 -0.3
v 0.1 0.4 -0.3
v -0.1 0.5 -0.3
v 0 0.5 -0.3
v -0.1 0.5 -0.4
v 0 0.5 -0.4
v -0.2 0.6 -0.3
v -0.1 0.6 -0.3
v -0.2 0.6 -0.4
v -0.1 0.6 -0.4
v -0.1 0.9 -0.2
v 0 0.9 -0.2
v -0.1 0.9 -0.3
v 0 0.9 -0.3
v 0.1 0.4 -0.1
v 0.2 0.4 -0.1
v 0.1 0.4 -0.2
v 0.2 0.4 -0.2
v -0.1 0.5 -0.2
v 0 0.5 -0.2
v -0.1 0.5 -0.3
v 0 0.5 -0.3
v -0.2 0.8 -0.3
v -0.1 0.8 -0.3
v -0.2 0.8 -0.4
v -0.1 0.8 -0.4
v 0.1 0.9 0.3
v 0.2 0.9 0.3
v 0.1 0.9 0.2
v 0.2 0.9 0.2
v -0.1 0.9 -0.3
v 0 0.9 -0.3
v -0.1 0.9 -0.4
v 0 0.9 -0.4
v 0.1 1 0.2
v 0.2 1 0.2
v 0 1 -0.1
v 0.1 1 -0.1
v 0.2 1 -0.1
v -0.1 1 -0.2
v 0 1 -0.2
v -0.1 1 -0.3
v 0 1 -0.3
v 0.1 1 -0.3

# faces
f 3/4/1 2/4/1 1/4/1
f 4/4/1 2/4/1 3/4/1
f 7/4/1 6/4/1 5/4/1
f 8/4/1 6/4/1 7/4/1
f 10/2/1 9/2/1 8/2/1
f 11/2/1 9/2/1 10/2/1
f 15/2/1 13/2/1 12/2/1
f 16/2/1 13/2/1 15/2/1
f 17/4/1 15/4/1 14/4/1
f 18/4/1 15/4/1 17/4/1
f 21/2/1 20/2/1 19/2/1
f 22/2/1 20/2/1 21/2/1
f 24/1/1 22/1/1 21/1/1
f 24/3/1 23/3/1 22/3/1
f 25/3/1 23/3/1 24/3/1
f 26/1/1 24/1/1 21/1/1
f 26/1/1 25/1/1 24/1/1
f 27/1/1 25/1/1 26/1/1
f 28/1/1 25/1/1 27/1/1
f 29/3/1 27/3/1 26/3/1
f 30/1/1 28/1/1 27/1/1
f 30/3/1 27/3/1 29/3/1
f 31/1/1 28/1/1 30/1/1
f 32/2/1 30/2/1 29/2/1
f 33/2/1 30/2/1 32/2/1
f 37/2/1 35/2/1 34/2/1
f 38/2/1 35/2/1 37/2/1
f 39/2/1 35/2/1 38/2/1
f 40/2/1 35/2/1 39/2/1
f 42/1/1 38/1/1 37/1/1
f 42/3/1 39/3/1 38/3/1
f 43/1/1 40/1/1 39/1/1
f 43/3/1 39/3/1 42/3/1
f 44/2/1 41/2/1 40/2/1
f 44/1/1 40/1/1 43/1/1
f 44/1/1 43/1/1 42/1/1
f 45/2/1 41/2/1 44/2/1
f 46/1/1 44/1/1 42/1/1
f 47/1/1 44/1/1 46/1/1
f 48/1/1 42/1/1 37/1/1
f 48/1/1 46/1/1 42/1/1
f 49/3/1 47/3/1 46/3/1
f 49/1/1 46/1/1 48/1/1
f 50/3/1 47/3/1 49/3/1
f 51/3/1 49/3/1 48/3/1
f 51/3/1 50/3/1 49/3/1
f 52/3/1 50/3/1 51/3/1
f 53/2/1 37/2/1 36/2/1
f 54/1/1 48/1/1 37/1/1
f 54/2/1 37/2/1 53/2/1
f 55/3/1 51/3/1 48/3/1
f 55/1/1 48/1/1 54/1/1
f 56/1/1 52/1/1 51/1/1
f 56/3/1 51/3/1 55/3/1
f 57/1/1 52/1/1 56/1/1
f 58/2/1 55/2/1 54/2/1
f 58/2/1 57/2/1 56/2/1
f 58/2/1 56/2/1 55/2/1
f 59/2/1 57/2/1 58/2/1
f 60/2/2 61/2/2 62/2/2
f 62/2/2 61/2/2 63/2/2
f 62/1/2 63/1/2 64/1/2
f 64/1/2 63/1/2 65/1/2
f 64/2/2 65/2/2 66/2/2
f 66/2/2 65/2/2 67/2/2
f 68/2/2 69/2/2 71/2/2
f 69/2/2 70/2/2 71/2/2
f 71/2/2 70/2/2 72/2/2
f 72/2/2 70/2/2 73/2/2
f 71/1/2 72/1/2 74/1/2
f 72/3/2 73/3/2 74/3/2
f 74/3/2 73/3/2 75/3/2
f 71/1/2 74/1/2 76/1/2
f 74/1/2 75/1/2 76/1/2
f 76/1/2 75/1/2 77/1/2
f 76/3/2 77/3/2 78/3/2
f 78/3/2 77/3/2 79/3/2
f 77/1/2 75/1/2 80/1/2
f 79/3/2 77/3/2 80/3/2
f 80/1/2 75/1/2 81/1/2
f 79/2/2 80/2/2 82/2/2
f 80/2/2 81/2/2 82/2/2
f 82/2/2 81/2/2 83/2/2
f 84/2/2 85/2/2 87/2/2
f 87/2/2 85/2/2 88/2/2
f 88/2/2 85/2/2 89/2/2
f 89/2/2 85/2/2 90/2/2
f 87/1/2 88/1/2 92/1/2
f 88/3/2 89/3/2 92/3/2
f 89/1/2 90/1/2 93/1/2
f 92/3/2 89/3/2 93/3/2
f 90/2/2 91/2/2 94/2/2
f 93/1/2 90/1/2 94/1/2
f 92/1/2 93/1/2 94/1/2
f 94/2/2 91/2/2 95/2/2
f 92/1/2 94/1/2 96/1/2
f 96/1/2 94/1/2 97/1/2
f 87/1/2 92/1/2 98/1/2
f 92/1/2 96/1/2 98/1/2
f 96/3/2 97/3/2 99/3/2
f 98/1/2 96/1/2 99/1/2
f 98/3/2 99/3/2 100/3/2
f 99/3/2 97/3/2 100/3/2
f 100/3/2 97/3/2 101/3/2
f 86/2/2 87/2/2 102/2/2
f 87/1/2 98/1/2 103/1/2
f 102/2/2 87/2/2 103/2/2
f 98/3/2 100/3/2 104/3/2
f 103/1/2 98/1/2 104/1/2
f 100/1/2 101/1/2 105/1/2
f 104/3/2 100/3/2 105/3/2
f 105/1/2 101/1/2 106/1/2
f 103/2/2 104/2/2 107/2/2
f 105/2/2 106/2/2 107/2/2
f 104/2/2 105/2/2 107/2/2
f 107/2/2 106/2/2 108/2/2
f 111/2/3 110/2/3 109/2/3
f 112/2/3 110/2/3 111/2/3
f 117/2/3 114/2/3 113/2/3
f 118/2/3 114/2/3 117/2/3
f 119/2/3 116/2/3 115/2/3
f 120/2/3 116/2/3 119/2/3
f 126/2/3 122/2/3 121/2/3
f 127/1/3 123/1/3 122/1/3
f 127/2/3 122/2/3 126/2/3
f 128/3/3 124/3/3 123/3/3
f 128/1/3 123/1/3 127/1/3
f 129/3/3 124/3/3 128/3/3
f 130/2/3 125/2/3 124/2/3
f 130/3/3 124/3/3 129/3/3
f 131/2/3 125/2/3 130/2/3
f 136/4/3 133/4/3 132/4/3
f 137/4/3 133/4/3 136/4/3
f 138/4/3 135/4/3 134/4/3
f 139/4/3 135/4/3 138/4/3
f 143/4/3 141/4/3 140/4/3
f 144/4/3 141/4/3 143/4/3
f 146/2/3 143/2/3 142/2/3
f 147/1/3 144/1/3 143/1/3
f 147/2/3 143/2/3 146/2/3
f 148/2/3 145/2/3 144/2/3
f 148/1/3 144/1/3 147/1/3
f 149/2/3 145/2/3 148/2/3
f 150/2/4 151/2/4 158/2/4
f 158/2/4 151/2/4 159/2/4
f 152/1/4 153/1/4 160/1/4
f 153/3/4 154/3/4 161/3/4
f 160/1/4 153/1/4 161/1/4
f 154/3/4 155/3/4 161/3/4
f 155/1/4 156/1/4 162/1/4
f 161/3/4 155/3/4 162/3/4
f 156/2/4 157/2/4 163/2/4
f 162/1/4 156/1/4 163/1/4
f 163/2/4 157/2/4 164/2/4
f 165/2/4 166/2/4 167/2/4
f 167/2/4 166/2/4 168/2/4
f 169/4/4 170/4/4 173/4/4
f 173/4/4 170/4/4 174/4/4
f 171/4/4 172/4/4 177/4/4
f 177/4/4 172/4/4 178/4/4
f 173/2/4 174/2/4 179/2/4
f 174/3/4 175/3/4 180/3/4
f 179/2/4 174/2/4 180/2/4
f 175/1/4 176/1/4 181/1/4
f 180/3/4 175/3/4 181/3/4
f 176/1/4 177/1/4 181/1/4
f 177/2/4 178/2/4 182/2/4
f 181/1/4 177/1/4 182/1/4
f 182/2/4 178/2/4 183/2/4
f 184/4/4 185/4/4 187/4/4
f 187/4/4 185/4/4 188/4/4
f 186/2/4 187/2/4 190/2/4
f 187/1/4 188/1/4 191/1/4
f 190/2/4 187/2/4 191/2/4
f 188/2/4 189/2/4 192/2/4
f 191/1/4 188/1/4 192/1/4
f 192/2/4 189/2/4 193/2/4
f 196/2/5 195/2/5 194/2/5
f 197/2/5 195/2/5 196/2/5
f 200/2/5 199/2/5 198/2/5
f 201/2/5 199/2/5 200/2/5
f 204/2/5 203/2/5 202/2/5
f 205/2/5 203/2/5 204/2/5
f 209/2/5 207/2/5 206/2/5
f 210/2/5 207/2/5 209/2/5
f 211/4/5 209/4/5 208/4/5
f 212/2/5 210/2/5 209/2/5
f 212/4/5 209/4/5 211/4/5
f 213/2/5 210/2/5 212/2/5
f 216/2/5 215/2/5 214/2/5
f 217/2/5 215/2/5 216/2/5
f 220/4/5 219/4/5 218/4/5
f 221/4/5 219/4/5 220/4/5
f 224/4/5 223/4/5 222/4/5
f 225/4/5 223/4/5 224/4/5
f 226/2/6 227/2/6 228/2/6
f 228/2/6 227/2/6 229/2/6
f 230/4/6 231/4/6 232/4/6
f 232/4/6 231/4/6 233/4/6
f 234/4/6 235/4/6 236/4/6
f 236/4/6 235/4/6 237/4/6
f 238/2/6 239/2/6 240/2/6
f 240/2/6 239/2/6 241/2/6
f 242/2/6 243/2/6 244/2/6
f 244/2/6 243/2/6 245/2/6
f 246/2/6 247/2/6 249/2/6
f 249/2/6 247/2/6 250/2/6
f 248/2/6 249/2/6 252/2/6
f 251/4/6 252/4/6 253/4/6
f 252/2/6 249/2/6 254/2/6
f 253/4/6 252/4/6 254/4/6
f 254/2/6 249/2/6 255/2/6
