# MagicaVoxel @ Ephtracy

# group
o 

# material
mtllib KnightMechAP8.mtl
usemtl palette

# normals
vn -1 0 0
vn 1 0 0
vn 0 0 1
vn 0 0 -1
vn 0 -1 0
vn 0 1 0

# texcoords
vt 0.958984 0.5
vt 0.966797 0.5
vt 0.970703 0.5
vt 0.974609 0.5
vt 0.978516 0.5
vt 0.982422 0.5

# verts
v -0.1 0 -0.1
v -0.1 0 -0.2
v -0.1 0.1 0
v -0.1 0.1 -0.1
v -0.1 0.1 -0.2
v -0.1 0.1 -0.3
v -0.1 0.2 -0.1
v -0.1 0.2 -0.2
v -0.1 0.4 -0.1
v -0.1 0.4 -0.2
v -0.1 0.6 -0.1
v -0.1 0.6 -0.2
v -0.1 1 0.4
v -0.1 1 0
v -0.1 1 -0.1
v -0.1 1 -0.3
v -0.1 1 -0.4
v -0.1 1.1 0.5
v -0.1 1.1 0.4
v -0.1 1.1 0.1
v -0.1 1.1 0
v -0.1 1.1 -0.2
v -0.1 1.1 -0.3
v -0.1 1.2 0.6
v -0.1 1.2 0.5
v -0.1 1.2 0.4
v -0.1 1.2 0.3
v -0.1 1.2 0.2
v -0.1 1.2 0.1
v -0.1 1.2 0
v -0.1 1.3 0.7
v -0.1 1.3 0.6
v -0.1 1.3 0.5
v -0.1 1.3 0.3
v -0.1 1.3 0.2
v -0.1 1.3 -0.3
v -0.1 1.3 -0.4
v -0.1 1.3 -0.5
v -0.1 1.4 0.6
v -0.1 1.4 0.5
v -0.1 1.4 0.4
v -0.1 1.4 0.3
v -0.1 1.4 0.2
v -0.1 1.4 0.1
v -0.1 1.5 0.5
v -0.1 1.5 0.4
v -0.1 1.5 0.3
v -0.1 1.5 0.2
v -0.1 1.5 0
v -0.1 1.5 -0.1
v -0.1 1.5 -0.2
v -0.1 1.6 0.6
v -0.1 1.6 0.5
v -0.1 1.6 0.4
v -0.1 1.6 0.3
v -0.1 1.6 0
v -0.1 1.6 -0.1
v -0.1 1.6 -0.2
v -0.1 1.6 -0.3
v -0.1 1.7 0.7
v -0.1 1.7 0.6
v -0.1 1.7 0.5
v -0.1 1.7 0.4
v -0.1 1.7 0.2
v -0.1 1.7 0
v -0.1 1.7 -0.1
v -0.1 1.7 -0.3
v -0.1 1.7 -0.4
v -0.1 1.8 0.5
v -0.1 1.8 0.4
v -0.1 1.8 0.2
v -0.1 1.8 0
v -0.1 1.8 -0.2
v -0.1 1.8 -0.3
v -0.1 1.8 -0.4
v -0.1 1.8 -0.5
v -0.1 1.8 -0.6
v -0.1 1.9 0.6
v -0.1 1.9 0.5
v -0.1 1.9 0.4
v -0.1 1.9 0
v -0.1 1.9 -0.5
v -0.1 2 0.5
v -0.1 2 -0.6
v 0 0 -0.1
v 0 0 -0.2
v 0 0.1 0
v 0 0.1 -0.1
v 0 0.1 -0.2
v 0 0.1 -0.3
v 0 0.2 -0.1
v 0 0.2 -0.2
v 0 0.4 -0.1
v 0 0.4 -0.2
v 0 0.6 -0.1
v 0 0.6 -0.2
v 0 1 0.4
v 0 1 0
v 0 1 -0.1
v 0 1 -0.2
v 0 1 -0.3
v 0 1 -0.4
v 0 1.1 0.5
v 0 1.1 0.4
v 0 1.1 0.1
v 0 1.1 0
v 0 1.1 -0.2
v 0 1.1 -0.3
v 0 1.2 0.6
v 0 1.2 0.5
v 0 1.2 0.4
v 0 1.2 0.3
v 0 1.2 0.2
v 0 1.2 0.1
v 0 1.3 0.7
v 0 1.3 0.6
v 0 1.3 0.5
v 0 1.3 0.4
v 0 1.3 0.3
v 0 1.3 -0.3
v 0 1.3 -0.4
v 0 1.3 -0.5
v 0 1.4 0.6
v 0 1.4 0.5
v 0 1.4 -0.4
v 0 1.5 0.6
v 0 1.7 0.7
v 0 1.7 0.6
v 0 1.7 0.5
v 0 1.8 0.5
v 0 1.8 -0.4
v 0 1.8 -0.5
v 0 1.8 -0.6
v 0 1.9 0.6
v 0 1.9 0.5
v 0 1.9 0.4
v 0 1.9 0.3
v 0 1.9 0
v 0 1.9 -0.2
v 0 1.9 -0.5
v 0 2 0.5
v 0 2 -0.6
v 0.1 0.2 -0.1
v 0.1 0.2 -0.2
v 0.1 0.4 -0.1
v 0.1 0.4 -0.2
v 0.1 0.6 -0.1
v 0.1 0.6 -0.2
v 0.1 1 0
v 0.1 1 -0.1
v 0.1 1 -0.2
v 0.1 1.1 0.1
v 0.1 1.1 0
v 0.1 1.1 -0.1
v 0.1 1.1 -0.2
v 0.1 1.1 -0.3
v 0.1 1.2 0.3
v 0.1 1.2 0.2
v 0.1 1.2 0.1
v 0.1 1.2 0
v 0.1 1.3 0.5
v 0.1 1.3 0.4
v 0.1 1.3 0.3
v 0.1 1.3 0.2
v 0.1 1.3 -0.2
v 0.1 1.3 -0.3
v 0.1 1.3 -0.4
v 0.1 1.4 0.6
v 0.1 1.4 0.5
v 0.1 1.4 0.4
v 0.1 1.4 -0.1
v 0.1 1.4 -0.3
v 0.1 1.4 -0.4
v 0.1 1.5 0.6
v 0.1 1.5 0.5
v 0.1 1.5 0.2
v 0.1 1.5 0.1
v 0.1 1.6 0.3
v 0.1 1.6 0.2
v 0.1 1.6 0.1
v 0.1 1.6 -0.2
v 0.1 1.6 -0.3
v 0.1 1.7 0.6
v 0.1 1.7 0.5
v 0.1 1.7 0.4
v 0.1 1.7 0.3
v 0.1 1.7 0.2
v 0.1 1.7 -0.1
v 0.1 1.7 -0.2
v 0.1 1.8 0.5
v 0.1 1.8 0.4
v 0.1 1.8 0.3
v 0.1 1.8 0
v 0.1 1.8 -0.1
v 0.1 1.8 -0.2
v 0.1 1.8 -0.3
v 0.1 1.8 -0.4
v 0.1 1.8 -0.5
v 0.1 1.9 0.5
v 0.1 1.9 0.4
v 0.1 1.9 0.3
v 0.1 1.9 0
v 0.1 1.9 -0.2
v 0.1 1.9 -0.5
v -0.1 1.3 0.7
v -0.1 1.7 0.7
v 0 1.3 0.7
v 0 1.7 0.7
v -0.1 1.2 0.6
v -0.1 1.3 0.6
v -0.1 1.7 0.6
v -0.1 1.9 0.6
v 0 1.2 0.6
v 0 1.3 0.6
v 0 1.4 0.6
v 0 1.5 0.6
v 0 1.7 0.6
v 0 1.9 0.6
v 0.1 1.4 0.6
v 0.1 1.5 0.6
v 0.1 1.7 0.6
v -0.1 1.1 0.5
v -0.1 1.2 0.5
v -0.1 1.9 0.5
v -0.1 2 0.5
v 0 1.1 0.5
v 0 1.2 0.5
v 0 1.3 0.5
v 0 1.4 0.5
v 0 1.7 0.5
v 0 1.8 0.5
v 0 1.9 0.5
v 0 2 0.5
v 0.1 1.3 0.5
v 0.1 1.4 0.5
v 0.1 1.7 0.5
v 0.1 1.8 0.5
v 0.1 1.9 0.5
v -0.1 1 0.4
v -0.1 1.1 0.4
v 0 1 0.4
v 0 1.1 0.4
v 0 1.2 0.3
v 0 1.3 0.3
v 0.1 1.2 0.3
v 0.1 1.3 0.3
v 0 1.1 0.1
v 0 1.2 0.1
v 0.1 1.1 0.1
v 0.1 1.2 0.1
v -0.1 0.1 0
v -0.1 1 0
v 0 0.1 0
v 0 1 0
v 0 1.1 0
v 0.1 1 0
v 0.1 1.1 0
v -0.1 0 -0.1
v -0.1 0.1 -0.1
v 0 0 -0.1
v 0 0.1 -0.1
v 0 0.2 -0.1
v 0 0.4 -0.1
v 0 0.6 -0.1
v 0 1 -0.1
v 0.1 0.2 -0.1
v 0.1 0.4 -0.1
v 0.1 0.6 -0.1
v 0.1 1 -0.1
v -0.1 0 -0.2
v -0.1 0.1 -0.2
v 0 0 -0.2
v 0 0.1 -0.2
v 0 0.2 -0.2
v 0 0.4 -0.2
v 0 0.6 -0.2
v 0 1 -0.2
v 0 1.1 -0.2
v 0.1 0.2 -0.2
v 0.1 0.4 -0.2
v 0.1 0.6 -0.2
v 0.1 1 -0.2
v 0.1 1.1 -0.2
v -0.1 0.1 -0.3
v -0.1 1 -0.3
v 0 0.1 -0.3
v 0 1 -0.3
v 0 1.1 -0.3
v 0 1.3 -0.3
v 0.1 1.1 -0.3
v 0.1 1.3 -0.3
v -0.1 1 -0.4
v -0.1 1.3 -0.4
v 0 1 -0.4
v 0 1.3 -0.4
v 0 1.4 -0.4
v 0 1.8 -0.4
v 0.1 1.3 -0.4
v 0.1 1.4 -0.4
v 0.1 1.8 -0.4
v -0.1 1.3 -0.5
v -0.1 1.8 -0.5
v 0 1.3 -0.5
v 0 1.8 -0.5
v 0 1.9 -0.5
v 0.1 1.8 -0.5
v 0.1 1.9 -0.5
v -0.1 1.8 -0.6
v -0.1 2 -0.6
v 0 1.8 -0.6
v 0 2 -0.6
v -0.1 0 -0.1
v 0 0 -0.1
v -0.1 0 -0.2
v 0 0 -0.2
v -0.1 0.1 0
v 0 0.1 0
v -0.1 0.1 -0.1
v 0 0.1 -0.1
v -0.1 0.1 -0.2
v 0 0.1 -0.2
v -0.1 0.1 -0.3
v 0 0.1 -0.3
v 0 0.2 -0.1
v 0.1 0.2 -0.1
v 0 0.2 -0.2
v 0.1 0.2 -0.2
v -0.1 1 0.4
v 0 1 0.4
v -0.1 1 0
v 0 1 0
v 0.1 1 0
v 0 1 -0.1
v 0.1 1 -0.1
v -0.1 1 -0.3
v 0 1 -0.3
v -0.1 1 -0.4
v 0 1 -0.4
v -0.1 1.1 0.5
v 0 1.1 0.5
v -0.1 1.1 0.4
v 0 1.1 0.4
v 0 1.1 0.1
v 0.1 1.1 0.1
v 0 1.1 0
v 0.1 1.1 0
v 0 1.1 -0.2
v 0.1 1.1 -0.2
v 0 1.1 -0.3
v 0.1 1.1 -0.3
v -0.1 1.2 0.6
v 0 1.2 0.6
v -0.1 1.2 0.5
v 0 1.2 0.5
v 0 1.2 0.3
v 0.1 1.2 0.3
v 0 1.2 0.2
v 0.1 1.2 0.2
v 0 1.2 0.1
v 0.1 1.2 0.1
v -0.1 1.3 0.7
v 0 1.3 0.7
v -0.1 1.3 0.6
v 0 1.3 0.6
v 0 1.3 0.5
v 0.1 1.3 0.5
v 0 1.3 0.4
v 0.1 1.3 0.4
v 0 1.3 0.3
v 0.1 1.3 0.3
v 0 1.3 -0.3
v 0.1 1.3 -0.3
v -0.1 1.3 -0.4
v 0 1.3 -0.4
v 0.1 1.3 -0.4
v -0.1 1.3 -0.5
v 0 1.3 -0.5
v 0 1.4 0.6
v 0.1 1.4 0.6
v 0 1.4 0.5
v 0.1 1.4 0.5
v 0 1.8 -0.4
v 0.1 1.8 -0.4
v -0.1 1.8 -0.5
v 0 1.8 -0.5
v 0.1 1.8 -0.5
v -0.1 1.8 -0.6
v 0 1.8 -0.6
v -0.1 1.7 0.7
v 0 1.7 0.7
v -0.1 1.7 0.6
v 0 1.7 0.6
v 0.1 1.7 0.6
v 0 1.7 0.5
v 0.1 1.7 0.5
v -0.1 1.9 0.6
v 0 1.9 0.6
v -0.1 1.9 0.5
v 0 1.9 0.5
v 0.1 1.9 0.5
v 0 1.9 0.4
v 0.1 1.9 0.4
v 0 1.9 0.3
v 0.1 1.9 0.3
v 0 1.9 0
v 0.1 1.9 0
v 0 1.9 -0.2
v 0.1 1.9 -0.2
v 0 1.9 -0.5
v 0.1 1.9 -0.5
v -0.1 2 0.5
v 0 2 0.5
v -0.1 2 -0.6
v 0 2 -0.6

# faces
f 4/6/1 2/6/1 1/6/1
f 5/6/1 2/6/1 4/6/1
f 7/6/1 4/6/1 3/6/1
f 7/6/1 6/6/1 5/6/1
f 7/6/1 5/6/1 4/6/1
f 8/6/1 6/6/1 7/6/1
f 9/6/1 7/6/1 3/6/1
f 9/3/1 8/3/1 7/3/1
f 10/6/1 6/6/1 8/6/1
f 10/3/1 8/3/1 9/3/1
f 11/6/1 9/6/1 3/6/1
f 11/4/1 10/4/1 9/4/1
f 12/6/1 6/6/1 10/6/1
f 12/4/1 10/4/1 11/4/1
f 14/6/1 11/6/1 3/6/1
f 15/3/1 12/3/1 11/3/1
f 15/6/1 11/6/1 14/6/1
f 16/6/1 6/6/1 12/6/1
f 19/6/1 14/6/1 13/6/1
f 20/6/1 14/6/1 19/6/1
f 21/3/1 15/3/1 14/3/1
f 21/6/1 14/6/1 20/6/1
f 22/3/1 12/3/1 15/3/1
f 22/3/1 15/3/1 21/3/1
f 22/6/1 17/6/1 16/6/1
f 22/6/1 16/6/1 12/6/1
f 23/6/1 17/6/1 22/6/1
f 25/6/1 19/6/1 18/6/1
f 26/5/1 20/5/1 19/5/1
f 26/6/1 19/6/1 25/6/1
f 27/5/1 20/5/1 26/5/1
f 28/5/1 20/5/1 27/5/1
f 29/3/1 21/3/1 20/3/1
f 29/5/1 20/5/1 28/5/1
f 29/3/1 22/3/1 21/3/1
f 29/3/1 23/3/1 22/3/1
f 30/3/1 23/3/1 29/3/1
f 32/6/1 25/6/1 24/6/1
f 33/5/1 27/5/1 26/5/1
f 33/5/1 26/5/1 25/5/1
f 33/6/1 25/6/1 32/6/1
f 34/1/1 28/1/1 27/1/1
f 34/5/1 27/5/1 33/5/1
f 35/3/1 29/3/1 28/3/1
f 35/1/1 28/1/1 34/1/1
f 36/6/1 17/6/1 23/6/1
f 36/3/1 23/3/1 30/3/1
f 37/6/1 17/6/1 36/6/1
f 39/5/1 33/5/1 32/5/1
f 39/6/1 32/6/1 31/6/1
f 40/1/1 34/1/1 33/1/1
f 40/5/1 33/5/1 39/5/1
f 41/1/1 34/1/1 40/1/1
f 42/3/1 35/3/1 34/3/1
f 42/1/1 34/1/1 41/1/1
f 43/3/1 29/3/1 35/3/1
f 43/3/1 35/3/1 42/3/1
f 44/5/1 30/5/1 29/5/1
f 44/3/1 29/3/1 43/3/1
f 45/1/1 41/1/1 40/1/1
f 45/3/1 40/3/1 39/3/1
f 46/3/1 42/3/1 41/3/1
f 46/1/1 41/1/1 45/1/1
f 46/3/1 43/3/1 42/3/1
f 47/3/1 43/3/1 46/3/1
f 48/5/1 44/5/1 43/5/1
f 48/3/1 43/3/1 47/3/1
f 49/5/1 30/5/1 44/5/1
f 49/5/1 44/5/1 48/5/1
f 49/3/1 37/3/1 36/3/1
f 49/3/1 36/3/1 30/3/1
f 50/3/1 37/3/1 49/3/1
f 51/3/1 37/3/1 50/3/1
f 52/3/1 45/3/1 39/3/1
f 52/6/1 39/6/1 31/6/1
f 53/5/1 46/5/1 45/5/1
f 53/3/1 45/3/1 52/3/1
f 53/5/1 47/5/1 46/5/1
f 54/5/1 47/5/1 53/5/1
f 55/3/1 48/3/1 47/3/1
f 55/5/1 47/5/1 54/5/1
f 55/3/1 50/3/1 49/3/1
f 55/3/1 49/3/1 48/3/1
f 56/3/1 50/3/1 55/3/1
f 57/5/1 51/5/1 50/5/1
f 57/3/1 50/3/1 56/3/1
f 58/3/1 37/3/1 51/3/1
f 58/5/1 51/5/1 57/5/1
f 59/3/1 37/3/1 58/3/1
f 60/6/1 52/6/1 31/6/1
f 61/5/1 54/5/1 53/5/1
f 61/6/1 52/6/1 60/6/1
f 61/5/1 53/5/1 52/5/1
f 62/5/1 54/5/1 61/5/1
f 63/3/1 56/3/1 55/3/1
f 63/5/1 54/5/1 62/5/1
f 63/3/1 55/3/1 54/3/1
f 64/3/1 56/3/1 63/3/1
f 65/5/1 57/5/1 56/5/1
f 65/3/1 56/3/1 64/3/1
f 66/3/1 58/3/1 57/3/1
f 66/5/1 57/5/1 65/5/1
f 67/3/1 37/3/1 59/3/1
f 67/5/1 59/5/1 58/5/1
f 68/6/1 38/6/1 37/6/1
f 68/3/1 37/3/1 67/3/1
f 69/6/1 62/6/1 61/6/1
f 69/3/1 63/3/1 62/3/1
f 70/1/1 64/1/1 63/1/1
f 70/3/1 63/3/1 69/3/1
f 71/3/1 66/3/1 65/3/1
f 71/1/1 64/1/1 70/1/1
f 71/3/1 65/3/1 64/3/1
f 72/3/1 66/3/1 71/3/1
f 73/5/1 67/5/1 58/5/1
f 73/3/1 66/3/1 72/3/1
f 73/3/1 58/3/1 66/3/1
f 74/4/1 68/4/1 67/4/1
f 74/5/1 67/5/1 73/5/1
f 75/6/1 38/6/1 68/6/1
f 75/4/1 68/4/1 74/4/1
f 76/6/1 38/6/1 75/6/1
f 78/6/1 69/6/1 61/6/1
f 79/1/1 70/1/1 69/1/1
f 79/6/1 69/6/1 78/6/1
f 80/3/1 72/3/1 71/3/1
f 80/1/1 70/1/1 79/1/1
f 80/3/1 71/3/1 70/3/1
f 81/5/1 76/5/1 75/5/1
f 81/3/1 72/3/1 80/3/1
f 81/5/1 74/5/1 73/5/1
f 81/5/1 75/5/1 74/5/1
f 81/5/1 73/5/1 72/5/1
f 82/6/1 77/6/1 76/6/1
f 82/5/1 76/5/1 81/5/1
f 83/6/1 81/6/1 80/6/1
f 83/6/1 82/6/1 81/6/1
f 83/6/1 80/6/1 79/6/1
f 84/6/1 77/6/1 82/6/1
f 84/6/1 82/6/1 83/6/1
f 85/6/2 86/6/2 88/6/2
f 88/6/2 86/6/2 89/6/2
f 87/6/2 88/6/2 91/6/2
f 89/6/2 90/6/2 91/6/2
f 88/6/2 89/6/2 91/6/2
f 91/6/2 90/6/2 92/6/2
f 87/6/2 91/6/2 93/6/2
f 92/6/2 90/6/2 94/6/2
f 87/6/2 93/6/2 95/6/2
f 94/6/2 90/6/2 96/6/2
f 87/6/2 95/6/2 98/6/2
f 98/6/2 95/6/2 99/6/2
f 96/6/2 90/6/2 100/6/2
f 100/6/2 90/6/2 101/6/2
f 97/6/2 98/6/2 104/6/2
f 104/6/2 98/6/2 105/6/2
f 105/6/2 98/6/2 106/6/2
f 101/6/2 102/6/2 107/6/2
f 100/6/2 101/6/2 107/6/2
f 107/6/2 102/6/2 108/6/2
f 103/6/2 104/6/2 110/6/2
f 104/5/2 105/5/2 111/5/2
f 110/6/2 104/6/2 111/6/2
f 111/5/2 105/5/2 112/5/2
f 112/5/2 105/5/2 113/5/2
f 113/5/2 105/5/2 114/5/2
f 109/6/2 110/6/2 116/6/2
f 110/5/2 111/5/2 117/5/2
f 111/5/2 112/5/2 117/5/2
f 116/6/2 110/6/2 117/6/2
f 117/5/2 112/5/2 118/5/2
f 118/5/2 112/5/2 119/5/2
f 108/6/2 102/6/2 120/6/2
f 120/6/2 102/6/2 121/6/2
f 115/6/2 116/6/2 123/6/2
f 116/5/2 117/5/2 123/5/2
f 123/5/2 117/5/2 124/5/2
f 121/6/2 122/6/2 125/6/2
f 115/6/2 123/6/2 126/6/2
f 115/6/2 126/6/2 127/6/2
f 127/6/2 126/6/2 128/6/2
f 128/6/2 129/6/2 130/6/2
f 125/6/2 122/6/2 131/6/2
f 131/6/2 122/6/2 132/6/2
f 128/6/2 130/6/2 134/6/2
f 134/6/2 130/6/2 135/6/2
f 132/6/2 133/6/2 140/6/2
f 138/6/2 139/6/2 141/6/2
f 139/6/2 140/6/2 141/6/2
f 135/6/2 136/6/2 141/6/2
f 137/6/2 138/6/2 141/6/2
f 136/6/2 137/6/2 141/6/2
f 140/6/2 133/6/2 142/6/2
f 141/6/2 140/6/2 142/6/2
f 143/3/2 144/3/2 145/3/2
f 145/3/2 144/3/2 146/3/2
f 145/4/2 146/4/2 147/4/2
f 147/4/2 146/4/2 148/4/2
f 147/3/2 148/3/2 150/3/2
f 150/3/2 148/3/2 151/3/2
f 149/6/2 150/6/2 153/6/2
f 150/4/2 151/4/2 154/4/2
f 153/6/2 150/6/2 154/6/2
f 154/4/2 151/4/2 155/4/2
f 152/4/2 153/4/2 159/4/2
f 153/3/2 154/3/2 160/3/2
f 159/4/2 153/4/2 160/4/2
f 157/4/2 158/4/2 163/4/2
f 158/3/2 159/3/2 164/3/2
f 159/3/2 160/3/2 164/3/2
f 163/4/2 158/4/2 164/4/2
f 154/4/2 155/4/2 165/4/2
f 155/5/2 156/5/2 165/5/2
f 165/5/2 156/5/2 166/5/2
f 161/4/2 162/4/2 169/4/2
f 162/3/2 163/3/2 170/3/2
f 163/3/2 164/3/2 170/3/2
f 169/4/2 162/4/2 170/4/2
f 164/3/2 160/3/2 171/3/2
f 170/3/2 164/3/2 171/3/2
f 160/3/2 154/3/2 171/3/2
f 165/4/2 166/4/2 171/4/2
f 154/4/2 165/4/2 171/4/2
f 166/6/2 167/6/2 172/6/2
f 171/4/2 166/4/2 172/4/2
f 172/6/2 167/6/2 173/6/2
f 169/3/2 170/3/2 174/3/2
f 168/3/2 169/3/2 174/3/2
f 170/3/2 171/3/2 174/3/2
f 171/3/2 172/3/2 174/3/2
f 174/3/2 172/3/2 175/3/2
f 175/3/2 172/3/2 176/3/2
f 176/3/2 172/3/2 177/3/2
f 175/3/2 176/3/2 178/3/2
f 176/2/2 177/2/2 179/2/2
f 178/3/2 176/3/2 179/3/2
f 177/3/2 172/3/2 180/3/2
f 179/2/2 177/2/2 180/2/2
f 180/3/2 172/3/2 181/3/2
f 172/5/2 173/5/2 182/5/2
f 181/3/2 172/3/2 182/3/2
f 174/4/2 175/4/2 183/4/2
f 175/3/2 178/3/2 184/3/2
f 183/4/2 175/4/2 184/4/2
f 184/3/2 178/3/2 185/3/2
f 178/2/2 179/2/2 186/2/2
f 185/3/2 178/3/2 186/3/2
f 180/3/2 181/3/2 187/3/2
f 186/2/2 179/2/2 187/2/2
f 179/3/2 180/3/2 187/3/2
f 187/3/2 181/3/2 188/3/2
f 181/4/2 182/4/2 189/4/2
f 188/3/2 181/3/2 189/3/2
f 184/4/2 185/4/2 190/4/2
f 185/3/2 186/3/2 191/3/2
f 190/4/2 185/4/2 191/4/2
f 187/3/2 188/3/2 191/3/2
f 186/3/2 187/3/2 191/3/2
f 191/3/2 188/3/2 192/3/2
f 192/3/2 188/3/2 193/3/2
f 188/4/2 189/4/2 194/4/2
f 193/3/2 188/3/2 194/3/2
f 189/4/2 182/4/2 195/4/2
f 194/4/2 189/4/2 195/4/2
f 182/5/2 173/5/2 196/5/2
f 195/4/2 182/4/2 196/4/2
f 196/5/2 173/5/2 197/5/2
f 190/6/2 191/6/2 199/6/2
f 191/4/2 192/4/2 200/4/2
f 199/6/2 191/6/2 200/6/2
f 192/3/2 193/3/2 201/3/2
f 200/4/2 192/4/2 201/4/2
f 194/4/2 195/4/2 202/4/2
f 201/3/2 193/3/2 202/3/2
f 193/4/2 194/4/2 202/4/2
f 196/5/2 197/5/2 203/5/2
f 202/4/2 195/4/2 203/4/2
f 195/5/2 196/5/2 203/5/2
f 197/5/2 198/5/2 203/5/2
f 203/5/2 198/5/2 204/5/2
f 207/6/3 206/6/3 205/6/3
f 208/6/3 206/6/3 207/6/3
f 213/6/3 210/6/3 209/6/3
f 214/6/3 210/6/3 213/6/3
f 217/6/3 212/6/3 211/6/3
f 218/6/3 212/6/3 217/6/3
f 219/3/3 216/3/3 215/3/3
f 220/4/3 217/4/3 216/4/3
f 220/3/3 216/3/3 219/3/3
f 221/4/3 217/4/3 220/4/3
f 226/6/3 223/6/3 222/6/3
f 227/6/3 223/6/3 226/6/3
f 232/6/3 225/6/3 224/6/3
f 233/6/3 225/6/3 232/6/3
f 234/4/3 229/4/3 228/4/3
f 235/4/3 229/4/3 234/4/3
f 236/4/3 231/4/3 230/4/3
f 237/6/3 232/6/3 231/6/3
f 237/4/3 231/4/3 236/4/3
f 238/6/3 232/6/3 237/6/3
f 241/6/3 240/6/3 239/6/3
f 242/6/3 240/6/3 241/6/3
f 245/4/3 244/4/3 243/4/3
f 246/4/3 244/4/3 245/4/3
f 249/4/3 248/4/3 247/4/3
f 250/4/3 248/4/3 249/4/3
f 253/6/3 252/6/3 251/6/3
f 254/6/3 252/6/3 253/6/3
f 256/6/3 255/6/3 254/6/3
f 257/6/3 255/6/3 256/6/3
f 260/6/3 259/6/3 258/6/3
f 261/6/3 259/6/3 260/6/3
f 266/3/3 263/3/3 262/3/3
f 267/4/3 264/4/3 263/4/3
f 267/3/3 263/3/3 266/3/3
f 268/3/3 265/3/3 264/3/3
f 268/4/3 264/4/3 267/4/3
f 269/3/3 265/3/3 268/3/3
f 270/6/4 271/6/4 272/6/4
f 272/6/4 271/6/4 273/6/4
f 274/3/4 275/3/4 279/3/4
f 275/4/4 276/4/4 280/4/4
f 279/3/4 275/3/4 280/3/4
f 276/3/4 277/3/4 281/3/4
f 280/4/4 276/4/4 281/4/4
f 277/4/4 278/4/4 282/4/4
f 281/3/4 277/3/4 282/3/4
f 282/4/4 278/4/4 283/4/4
f 284/6/4 285/6/4 286/6/4
f 286/6/4 285/6/4 287/6/4
f 288/5/4 289/5/4 290/5/4
f 290/5/4 289/5/4 291/5/4
f 292/6/4 293/6/4 294/6/4
f 294/6/4 293/6/4 295/6/4
f 295/6/4 296/6/4 298/6/4
f 296/5/4 297/5/4 299/5/4
f 298/6/4 296/6/4 299/6/4
f 299/5/4 297/5/4 300/5/4
f 301/6/4 302/6/4 303/6/4
f 303/6/4 302/6/4 304/6/4
f 304/5/4 305/5/4 306/5/4
f 306/5/4 305/5/4 307/5/4
f 308/6/4 309/6/4 310/6/4
f 310/6/4 309/6/4 311/6/4
f 314/6/5 313/6/5 312/6/5
f 315/6/5 313/6/5 314/6/5
f 318/6/5 317/6/5 316/6/5
f 319/6/5 317/6/5 318/6/5
f 322/6/5 321/6/5 320/6/5
f 323/6/5 321/6/5 322/6/5
f 326/3/5 325/3/5 324/3/5
f 327/3/5 325/3/5 326/3/5
f 330/6/5 329/6/5 328/6/5
f 331/6/5 329/6/5 330/6/5
f 333/6/5 332/6/5 331/6/5
f 334/6/5 332/6/5 333/6/5
f 337/6/5 336/6/5 335/6/5
f 338/6/5 336/6/5 337/6/5
f 341/6/5 340/6/5 339/6/5
f 342/6/5 340/6/5 341/6/5
f 345/4/5 344/4/5 343/4/5
f 346/4/5 344/4/5 345/4/5
f 349/5/5 348/5/5 347/5/5
f 350/5/5 348/5/5 349/5/5
f 353/6/5 352/6/5 351/6/5
f 354/6/5 352/6/5 353/6/5
f 357/4/5 356/4/5 355/4/5
f 358/4/5 356/4/5 357/4/5
f 359/3/5 358/3/5 357/3/5
f 360/3/5 358/3/5 359/3/5
f 363/6/5 362/6/5 361/6/5
f 364/6/5 362/6/5 363/6/5
f 367/4/5 366/4/5 365/4/5
f 368/4/5 366/4/5 367/4/5
f 369/3/5 368/3/5 367/3/5
f 370/3/5 368/3/5 369/3/5
f 374/6/5 372/6/5 371/6/5
f 375/6/5 372/6/5 374/6/5
f 376/6/5 374/6/5 373/6/5
f 377/6/5 374/6/5 376/6/5
f 380/3/5 379/3/5 378/3/5
f 381/3/5 379/3/5 380/3/5
f 385/5/5 383/5/5 382/5/5
f 386/5/5 383/5/5 385/5/5
f 387/6/5 385/6/5 384/6/5
f 388/6/5 385/6/5 387/6/5
f 389/6/6 390/6/6 391/6/6
f 391/6/6 390/6/6 392/6/6
f 392/4/6 393/4/6 394/4/6
f 394/4/6 393/4/6 395/4/6
f 396/6/6 397/6/6 398/6/6
f 398/6/6 397/6/6 399/6/6
f 399/6/6 400/6/6 401/6/6
f 401/6/6 400/6/6 402/6/6
f 401/4/6 402/4/6 403/4/6
f 403/4/6 402/4/6 404/4/6
f 403/3/6 404/3/6 405/3/6
f 405/3/6 404/3/6 406/3/6
f 405/4/6 406/4/6 407/4/6
f 407/4/6 406/4/6 408/4/6
f 407/5/6 408/5/6 409/5/6
f 409/5/6 408/5/6 410/5/6
f 411/6/6 412/6/6 413/6/6
f 413/6/6 412/6/6 414/6/6
