# MagicaVoxel @ Ephtracy

# group
o 

# material
mtllib KnightMechAP5.mtl
usemtl palette

# normals
vn -1 0 0
vn 1 0 0
vn 0 0 1
vn 0 0 -1
vn 0 -1 0
vn 0 1 0

# texcoords
vt 0.966797 0.5
vt 0.978516 0.5
vt 0.982422 0.5
vt 0.986328 0.5
vt 0.990234 0.5

# verts
v -0.4 0.5 0.1
v -0.4 0.5 0
v -0.4 1.4 0.1
v -0.4 1.4 0
v -0.3 0.2 0.1
v -0.3 0.2 0
v -0.3 0.5 0.1
v -0.3 0.5 0
v -0.3 1 0
v -0.3 1 -0.1
v -0.3 1.1 0
v -0.3 1.1 -0.1
v -0.3 1.2 0
v -0.3 1.2 -0.1
v -0.3 1.3 0
v -0.3 1.3 -0.1
v -0.2 0.1 0.1
v -0.2 0.1 0
v -0.2 0.2 0.1
v -0.2 0.2 0
v -0.2 0.3 0
v -0.2 0.3 -0.1
v -0.2 0.5 0
v -0.2 0.9 0
v -0.2 0.9 -0.1
v -0.2 1 0
v -0.2 1 -0.1
v -0.1 0 0
v -0.1 0 -0.1
v -0.1 0.1 0
v -0.1 0.1 -0.1
v -0.1 0.2 0
v -0.1 0.2 -0.1
v -0.1 0.3 0
v -0.1 0.3 -0.1
v -0.3 1 0.1
v -0.3 1 0
v -0.3 1.1 0
v -0.3 1.2 0
v -0.3 1.3 0
v -0.3 1.4 0.1
v -0.3 1.4 0
v -0.2 0.3 0.1
v -0.2 0.3 0
v -0.2 0.5 0.1
v -0.2 0.5 0
v -0.2 0.9 0
v -0.2 1 0.1
v -0.2 1 0
v -0.2 1.2 0
v -0.2 1.2 -0.1
v -0.2 1.3 0
v -0.2 1.3 -0.1
v -0.1 0.1 0.1
v -0.1 0.1 0
v -0.1 0.2 0.1
v -0.1 0.2 0
v -0.1 0.3 0.1
v -0.1 0.3 0
v -0.1 1.1 0
v -0.1 1.1 -0.1
v -0.1 1.2 0
v -0.1 1.2 -0.1
v 0.1 1 0
v 0.1 1 -0.1
v 0.1 1.1 0
v 0.1 1.1 -0.1
v 0.3 0.9 0
v 0.3 0.9 -0.1
v 0.3 1 0
v 0.3 1 -0.1
v 0.4 0 0
v 0.4 0 -0.1
v 0.4 0.9 0
v 0.4 0.9 -0.1
v -0.4 0.5 0.1
v -0.4 1.4 0.1
v -0.3 0.2 0.1
v -0.3 0.5 0.1
v -0.3 1 0.1
v -0.3 1.4 0.1
v -0.2 0.1 0.1
v -0.2 0.2 0.1
v -0.2 0.3 0.1
v -0.2 0.5 0.1
v -0.2 1 0.1
v -0.1 0.1 0.1
v -0.1 0.2 0.1
v -0.1 0.3 0.1
v -0.3 1 0
v -0.3 1.1 0
v -0.3 1.2 0
v -0.3 1.3 0
v -0.2 0.3 0
v -0.2 0.5 0
v -0.2 0.9 0
v -0.2 1 0
v -0.2 1.1 0
v -0.2 1.2 0
v -0.2 1.3 0
v -0.1 0 0
v -0.1 0.1 0
v -0.1 0.2 0
v -0.1 0.3 0
v -0.1 1 0
v -0.1 1.1 0
v -0.1 1.2 0
v 0 0.2 0
v 0 0.3 0
v 0 0.8 0
v 0 0.9 0
v 0 1 0
v 0.1 0.2 0
v 0.1 0.8 0
v 0.1 0.9 0
v 0.1 1 0
v 0.1 1.1 0
v 0.2 0.2 0
v 0.2 0.8 0
v 0.3 0.1 0
v 0.3 0.9 0
v 0.3 1 0
v 0.4 0 0
v 0.4 0.9 0
v -0.4 0.5 0
v -0.4 1.4 0
v -0.3 0.2 0
v -0.3 0.5 0
v -0.3 1 0
v -0.3 1.1 0
v -0.3 1.2 0
v -0.3 1.3 0
v -0.3 1.4 0
v -0.2 0.1 0
v -0.2 0.2 0
v -0.2 0.3 0
v -0.2 0.5 0
v -0.2 0.9 0
v -0.2 1 0
v -0.1 0.1 0
v -0.1 0.2 0
v -0.1 0.3 0
v -0.3 1 -0.1
v -0.3 1.1 -0.1
v -0.3 1.2 -0.1
v -0.3 1.3 -0.1
v -0.2 0.3 -0.1
v -0.2 0.9 -0.1
v -0.2 1 -0.1
v -0.2 1.1 -0.1
v -0.2 1.2 -0.1
v -0.2 1.3 -0.1
v -0.1 0 -0.1
v -0.1 0.1 -0.1
v -0.1 0.2 -0.1
v -0.1 0.3 -0.1
v -0.1 1 -0.1
v -0.1 1.1 -0.1
v -0.1 1.2 -0.1
v 0 0.2 -0.1
v 0 0.3 -0.1
v 0 0.8 -0.1
v 0 0.9 -0.1
v 0 1 -0.1
v 0.1 0.2 -0.1
v 0.1 0.8 -0.1
v 0.1 0.9 -0.1
v 0.1 1 -0.1
v 0.1 1.1 -0.1
v 0.2 0.2 -0.1
v 0.2 0.8 -0.1
v 0.3 0.1 -0.1
v 0.3 0.9 -0.1
v 0.3 1 -0.1
v 0.4 0 -0.1
v 0.4 0.9 -0.1
v -0.1 0 0
v 0.4 0 0
v -0.1 0 -0.1
v 0.4 0 -0.1
v -0.2 0.1 0.1
v -0.1 0.1 0.1
v -0.2 0.1 0
v -0.1 0.1 0
v -0.3 0.2 0.1
v -0.2 0.2 0.1
v -0.3 0.2 0
v -0.2 0.2 0
v -0.2 0.3 0
v -0.1 0.3 0
v -0.2 0.3 -0.1
v -0.1 0.3 -0.1
v -0.4 0.5 0.1
v -0.3 0.5 0.1
v -0.4 0.5 0
v -0.3 0.5 0
v -0.3 1 0
v -0.2 1 0
v -0.3 1 -0.1
v -0.2 1 -0.1
v -0.2 0.3 0.1
v -0.1 0.3 0.1
v -0.2 0.3 0
v -0.1 0.3 0
v 0.3 0.9 0
v 0.4 0.9 0
v 0.3 0.9 -0.1
v 0.4 0.9 -0.1
v -0.3 1 0.1
v -0.2 1 0.1
v -0.3 1 0
v -0.2 1 0
v 0.1 1 0
v 0.3 1 0
v 0.1 1 -0.1
v 0.3 1 -0.1
v -0.1 1.1 0
v 0.1 1.1 0
v -0.1 1.1 -0.1
v 0.1 1.1 -0.1
v -0.2 1.2 0
v -0.1 1.2 0
v -0.2 1.2 -0.1
v -0.1 1.2 -0.1
v -0.3 1.3 0
v -0.2 1.3 0
v -0.3 1.3 -0.1
v -0.2 1.3 -0.1
v -0.4 1.4 0.1
v -0.3 1.4 0.1
v -0.4 1.4 0
v -0.3 1.4 0

# faces
f 3/5/1 2/5/1 1/5/1
f 4/5/1 2/5/1 3/5/1
f 7/5/1 6/5/1 5/5/1
f 8/5/1 6/5/1 7/5/1
f 11/2/1 10/2/1 9/2/1
f 12/2/1 10/2/1 11/2/1
f 13/4/1 12/4/1 11/4/1
f 14/4/1 12/4/1 13/4/1
f 15/5/1 14/5/1 13/5/1
f 16/5/1 14/5/1 15/5/1
f 19/5/1 18/5/1 17/5/1
f 20/5/1 18/5/1 19/5/1
f 23/1/1 22/1/1 21/1/1
f 24/1/1 22/1/1 23/1/1
f 25/1/1 22/1/1 24/1/1
f 26/2/1 25/2/1 24/2/1
f 27/2/1 25/2/1 26/2/1
f 30/5/1 29/5/1 28/5/1
f 31/5/1 29/5/1 30/5/1
f 32/4/1 31/4/1 30/4/1
f 33/4/1 31/4/1 32/4/1
f 34/2/1 33/2/1 32/2/1
f 35/2/1 33/2/1 34/2/1
f 36/5/2 37/5/2 38/5/2
f 36/5/2 38/5/2 39/5/2
f 36/5/2 39/5/2 40/5/2
f 36/5/2 40/5/2 41/5/2
f 41/5/2 40/5/2 42/5/2
f 43/5/2 44/5/2 45/5/2
f 45/5/2 44/5/2 46/5/2
f 45/1/2 46/1/2 47/1/2
f 45/1/2 47/1/2 48/1/2
f 48/1/2 47/1/2 49/1/2
f 50/5/2 51/5/2 52/5/2
f 52/5/2 51/5/2 53/5/2
f 54/5/2 55/5/2 56/5/2
f 56/5/2 55/5/2 57/5/2
f 56/3/2 57/3/2 58/3/2
f 58/3/2 57/3/2 59/3/2
f 60/5/2 61/5/2 62/5/2
f 62/5/2 61/5/2 63/5/2
f 64/5/2 65/5/2 66/5/2
f 66/5/2 65/5/2 67/5/2
f 68/5/2 69/5/2 70/5/2
f 70/5/2 69/5/2 71/5/2
f 72/5/2 73/5/2 74/5/2
f 74/5/2 73/5/2 75/5/2
f 79/5/3 77/5/3 76/5/3
f 80/5/3 77/5/3 79/5/3
f 81/5/3 77/5/3 80/5/3
f 83/5/3 79/5/3 78/5/3
f 84/5/3 79/5/3 83/5/3
f 85/1/3 80/1/3 79/1/3
f 85/5/3 79/5/3 84/5/3
f 86/1/3 80/1/3 85/1/3
f 87/5/3 83/5/3 82/5/3
f 88/3/3 84/3/3 83/3/3
f 88/5/3 83/5/3 87/5/3
f 89/3/3 84/3/3 88/3/3
f 97/2/3 91/2/3 90/2/3
f 98/4/3 92/4/3 91/4/3
f 98/2/3 91/2/3 97/2/3
f 99/5/3 93/5/3 92/5/3
f 99/4/3 92/4/3 98/4/3
f 100/5/3 93/5/3 99/5/3
f 104/1/3 96/1/3 95/1/3
f 104/1/3 95/1/3 94/1/3
f 105/2/3 97/2/3 96/2/3
f 105/4/3 98/4/3 97/4/3
f 106/5/3 99/5/3 98/5/3
f 106/4/3 98/4/3 105/4/3
f 107/5/3 99/5/3 106/5/3
f 108/4/3 103/4/3 102/4/3
f 108/2/3 104/2/3 103/2/3
f 109/1/3 96/1/3 104/1/3
f 109/2/3 104/2/3 108/2/3
f 110/1/3 96/1/3 109/1/3
f 111/2/3 105/2/3 96/2/3
f 111/1/3 96/1/3 110/1/3
f 112/5/3 106/5/3 105/5/3
f 112/2/3 105/2/3 111/2/3
f 113/4/3 108/4/3 102/4/3
f 113/1/3 110/1/3 109/1/3
f 113/1/3 109/1/3 108/1/3
f 114/2/3 111/2/3 110/2/3
f 114/1/3 110/1/3 113/1/3
f 115/4/3 112/4/3 111/4/3
f 115/2/3 111/2/3 114/2/3
f 116/5/3 106/5/3 112/5/3
f 116/4/3 112/4/3 115/4/3
f 117/5/3 106/5/3 116/5/3
f 118/4/3 113/4/3 102/4/3
f 118/2/3 114/2/3 113/2/3
f 119/4/3 115/4/3 114/4/3
f 119/2/3 114/2/3 118/2/3
f 120/4/3 118/4/3 102/4/3
f 120/5/3 102/5/3 101/5/3
f 120/4/3 119/4/3 118/4/3
f 121/4/3 115/4/3 119/4/3
f 121/4/3 119/4/3 120/4/3
f 121/5/3 116/5/3 115/5/3
f 122/5/3 116/5/3 121/5/3
f 123/5/3 120/5/3 101/5/3
f 123/5/3 121/5/3 120/5/3
f 124/5/3 121/5/3 123/5/3
f 125/5/4 126/5/4 128/5/4
f 128/5/4 126/5/4 129/5/4
f 129/5/4 126/5/4 130/5/4
f 130/5/4 126/5/4 131/5/4
f 131/5/4 126/5/4 132/5/4
f 132/5/4 126/5/4 133/5/4
f 127/5/4 128/5/4 135/5/4
f 135/5/4 128/5/4 136/5/4
f 128/1/4 129/1/4 137/1/4
f 136/5/4 128/5/4 137/5/4
f 137/1/4 129/1/4 138/1/4
f 138/1/4 129/1/4 139/1/4
f 134/5/4 135/5/4 140/5/4
f 135/3/4 136/3/4 141/3/4
f 140/5/4 135/5/4 141/5/4
f 141/3/4 136/3/4 142/3/4
f 143/2/4 144/2/4 149/2/4
f 144/4/4 145/4/4 150/4/4
f 149/2/4 144/2/4 150/2/4
f 145/5/4 146/5/4 151/5/4
f 150/4/4 145/4/4 151/4/4
f 151/5/4 146/5/4 152/5/4
f 147/1/4 148/1/4 156/1/4
f 148/2/4 149/2/4 157/2/4
f 149/4/4 150/4/4 157/4/4
f 150/5/4 151/5/4 158/5/4
f 157/4/4 150/4/4 158/4/4
f 158/5/4 151/5/4 159/5/4
f 154/4/4 155/4/4 160/4/4
f 155/2/4 156/2/4 160/2/4
f 156/1/4 148/1/4 161/1/4
f 160/2/4 156/2/4 161/2/4
f 161/1/4 148/1/4 162/1/4
f 148/2/4 157/2/4 163/2/4
f 162/1/4 148/1/4 163/1/4
f 157/5/4 158/5/4 164/5/4
f 163/2/4 157/2/4 164/2/4
f 154/4/4 160/4/4 165/4/4
f 161/1/4 162/1/4 165/1/4
f 160/1/4 161/1/4 165/1/4
f 162/2/4 163/2/4 166/2/4
f 165/1/4 162/1/4 166/1/4
f 163/4/4 164/4/4 167/4/4
f 166/2/4 163/2/4 167/2/4
f 164/5/4 158/5/4 168/5/4
f 167/4/4 164/4/4 168/4/4
f 168/5/4 158/5/4 169/5/4
f 154/4/4 165/4/4 170/4/4
f 165/2/4 166/2/4 170/2/4
f 166/4/4 167/4/4 171/4/4
f 170/2/4 166/2/4 171/2/4
f 154/4/4 170/4/4 172/4/4
f 153/5/4 154/5/4 172/5/4
f 170/4/4 171/4/4 172/4/4
f 171/4/4 167/4/4 173/4/4
f 172/4/4 171/4/4 173/4/4
f 167/5/4 168/5/4 173/5/4
f 173/5/4 168/5/4 174/5/4
f 153/5/4 172/5/4 175/5/4
f 172/5/4 173/5/4 175/5/4
f 175/5/4 173/5/4 176/5/4
f 179/5/5 178/5/5 177/5/5
f 180/5/5 178/5/5 179/5/5
f 183/5/5 182/5/5 181/5/5
f 184/5/5 182/5/5 183/5/5
f 187/5/5 186/5/5 185/5/5
f 188/5/5 186/5/5 187/5/5
f 191/1/5 190/1/5 189/1/5
f 192/1/5 190/1/5 191/1/5
f 195/5/5 194/5/5 193/5/5
f 196/5/5 194/5/5 195/5/5
f 199/2/5 198/2/5 197/2/5
f 200/2/5 198/2/5 199/2/5
f 201/3/6 202/3/6 203/3/6
f 203/3/6 202/3/6 204/3/6
f 205/5/6 206/5/6 207/5/6
f 207/5/6 206/5/6 208/5/6
f 209/1/6 210/1/6 211/1/6
f 211/1/6 210/1/6 212/1/6
f 213/5/6 214/5/6 215/5/6
f 215/5/6 214/5/6 216/5/6
f 217/5/6 218/5/6 219/5/6
f 219/5/6 218/5/6 220/5/6
f 221/5/6 222/5/6 223/5/6
f 223/5/6 222/5/6 224/5/6
f 225/5/6 226/5/6 227/5/6
f 227/5/6 226/5/6 228/5/6
f 229/5/6 230/5/6 231/5/6
f 231/5/6 230/5/6 232/5/6
