# MagicaVoxel @ Ephtracy

# group
o 

# material
mtllib KnightMechAP9.mtl
usemtl palette

# normals
vn -1 0 0
vn 1 0 0
vn 0 0 1
vn 0 0 -1
vn 0 -1 0
vn 0 1 0

# texcoords
vt 0.958984 0.5
vt 0.966797 0.5
vt 0.970703 0.5
vt 0.974609 0.5
vt 0.978516 0.5
vt 0.982422 0.5

# verts
v -0.1 0 0.1
v -0.1 0 -5.96046e-08
v -0.1 0.1 0.2
v -0.1 0.1 0.1
v -0.1 0.1 -5.96046e-08
v -0.1 0.1 -0.1
v -0.1 0.2 0.1
v -0.1 0.2 -5.96046e-08
v -0.1 0.4 0.1
v -0.1 0.4 -5.96046e-08
v -0.1 0.6 0.1
v -0.1 0.6 -5.96046e-08
v -0.1 1 0.3
v -0.1 1 0.2
v -0.1 1 -5.96046e-08
v -0.1 1 -0.1
v -0.1 1 -0.5
v -0.1 1.1 0.2
v -0.1 1.1 0.1
v -0.1 1.1 -0.1
v -0.1 1.1 -0.2
v -0.1 1.1 -0.5
v -0.1 1.1 -0.6
v -0.1 1.2 -0.1
v -0.1 1.2 -0.2
v -0.1 1.2 -0.3
v -0.1 1.2 -0.4
v -0.1 1.2 -0.5
v -0.1 1.2 -0.6
v -0.1 1.2 -0.7
v -0.1 1.3 0.4
v -0.1 1.3 0.3
v -0.1 1.3 0.2
v -0.1 1.3 -0.3
v -0.1 1.3 -0.4
v -0.1 1.3 -0.6
v -0.1 1.3 -0.7
v -0.1 1.3 -0.8
v -0.1 1.4 -0.2
v -0.1 1.4 -0.3
v -0.1 1.4 -0.4
v -0.1 1.4 -0.5
v -0.1 1.4 -0.6
v -0.1 1.4 -0.7
v -0.1 1.5 0.1
v -0.1 1.5 -5.96046e-08
v -0.1 1.5 -0.1
v -0.1 1.5 -0.3
v -0.1 1.5 -0.4
v -0.1 1.5 -0.5
v -0.1 1.5 -0.6
v -0.1 1.6 0.2
v -0.1 1.6 0.1
v -0.1 1.6 -5.96046e-08
v -0.1 1.6 -0.1
v -0.1 1.6 -0.4
v -0.1 1.6 -0.5
v -0.1 1.6 -0.6
v -0.1 1.6 -0.7
v -0.1 1.7 0.3
v -0.1 1.7 0.2
v -0.1 1.7 -5.96046e-08
v -0.1 1.7 -0.1
v -0.1 1.7 -0.3
v -0.1 1.7 -0.5
v -0.1 1.7 -0.6
v -0.1 1.7 -0.7
v -0.1 1.7 -0.8
v -0.1 1.8 0.5
v -0.1 1.8 0.4
v -0.1 1.8 0.3
v -0.1 1.8 0.2
v -0.1 1.8 0.1
v -0.1 1.8 -0.1
v -0.1 1.8 -0.3
v -0.1 1.8 -0.5
v -0.1 1.8 -0.6
v -0.1 1.9 0.4
v -0.1 1.9 -0.1
v -0.1 1.9 -0.5
v -0.1 1.9 -0.6
v -0.1 1.9 -0.7
v -0.1 2 0.5
v -0.1 2 -0.6
v 0 0 0.1
v 0 0 -5.96046e-08
v 0 0.1 0.2
v 0 0.1 0.1
v 0 0.1 -5.96046e-08
v 0 0.1 -0.1
v 0 0.2 0.1
v 0 0.2 -5.96046e-08
v 0 0.4 0.1
v 0 0.4 -5.96046e-08
v 0 0.6 0.1
v 0 0.6 -5.96046e-08
v 0 1 0.3
v 0 1 0.2
v 0 1 0.1
v 0 1 -5.96046e-08
v 0 1 -0.1
v 0 1 -0.5
v 0 1.1 0.2
v 0 1.1 0.1
v 0 1.1 -0.1
v 0 1.1 -0.2
v 0 1.1 -0.5
v 0 1.1 -0.6
v 0 1.2 -0.2
v 0 1.2 -0.3
v 0 1.2 -0.4
v 0 1.2 -0.5
v 0 1.2 -0.6
v 0 1.2 -0.7
v 0 1.3 0.4
v 0 1.3 0.3
v 0 1.3 0.2
v 0 1.3 -0.4
v 0 1.3 -0.5
v 0 1.3 -0.6
v 0 1.3 -0.7
v 0 1.3 -0.8
v 0 1.4 0.3
v 0 1.4 -0.6
v 0 1.4 -0.7
v 0 1.5 -0.7
v 0 1.7 -0.6
v 0 1.7 -0.7
v 0 1.7 -0.8
v 0 1.8 0.5
v 0 1.8 0.4
v 0 1.8 0.3
v 0 1.8 -0.6
v 0 1.9 0.4
v 0 1.9 0.1
v 0 1.9 -0.1
v 0 1.9 -0.4
v 0 1.9 -0.5
v 0 1.9 -0.6
v 0 1.9 -0.7
v 0 2 0.5
v 0 2 -0.6
v 0.1 0.2 0.1
v 0.1 0.2 -5.96046e-08
v 0.1 0.4 0.1
v 0.1 0.4 -5.96046e-08
v 0.1 0.6 0.1
v 0.1 0.6 -5.96046e-08
v 0.1 1 0.1
v 0.1 1 -5.96046e-08
v 0.1 1 -0.1
v 0.1 1.1 0.2
v 0.1 1.1 0.1
v 0.1 1.1 -5.96046e-08
v 0.1 1.1 -0.1
v 0.1 1.1 -0.2
v 0.1 1.2 -0.1
v 0.1 1.2 -0.2
v 0.1 1.2 -0.3
v 0.1 1.2 -0.4
v 0.1 1.3 0.3
v 0.1 1.3 0.2
v 0.1 1.3 0.1
v 0.1 1.3 -0.3
v 0.1 1.3 -0.4
v 0.1 1.3 -0.5
v 0.1 1.3 -0.6
v 0.1 1.4 0.3
v 0.1 1.4 0.2
v 0.1 1.4 -5.96046e-08
v 0.1 1.4 -0.5
v 0.1 1.4 -0.6
v 0.1 1.4 -0.7
v 0.1 1.5 -0.2
v 0.1 1.5 -0.3
v 0.1 1.5 -0.6
v 0.1 1.5 -0.7
v 0.1 1.6 0.2
v 0.1 1.6 0.1
v 0.1 1.6 -0.2
v 0.1 1.6 -0.3
v 0.1 1.6 -0.4
v 0.1 1.7 0.1
v 0.1 1.7 -5.96046e-08
v 0.1 1.7 -0.3
v 0.1 1.7 -0.4
v 0.1 1.7 -0.5
v 0.1 1.7 -0.6
v 0.1 1.7 -0.7
v 0.1 1.8 0.4
v 0.1 1.8 0.3
v 0.1 1.8 0.2
v 0.1 1.8 0.1
v 0.1 1.8 -5.96046e-08
v 0.1 1.8 -0.1
v 0.1 1.8 -0.4
v 0.1 1.8 -0.5
v 0.1 1.8 -0.6
v 0.1 1.9 0.4
v 0.1 1.9 0.1
v 0.1 1.9 -0.1
v 0.1 1.9 -0.4
v 0.1 1.9 -0.5
v 0.1 1.9 -0.6
v -0.1 1.8 0.5
v -0.1 2 0.5
v 0 1.8 0.5
v 0 2 0.5
v -0.1 1.3 0.4
v -0.1 1.8 0.4
v 0 1.3 0.4
v 0 1.8 0.4
v 0 1.9 0.4
v 0.1 1.8 0.4
v 0.1 1.9 0.4
v -0.1 1 0.3
v -0.1 1.3 0.3
v 0 1 0.3
v 0 1.3 0.3
v 0 1.4 0.3
v 0 1.8 0.3
v 0.1 1.3 0.3
v 0.1 1.4 0.3
v 0.1 1.8 0.3
v -0.1 0.1 0.2
v -0.1 1 0.2
v 0 0.1 0.2
v 0 1 0.2
v 0 1.1 0.2
v 0 1.3 0.2
v 0.1 1.1 0.2
v 0.1 1.3 0.2
v -0.1 0 0.1
v -0.1 0.1 0.1
v 0 0 0.1
v 0 0.1 0.1
v 0 0.2 0.1
v 0 0.4 0.1
v 0 0.6 0.1
v 0 1 0.1
v 0 1.1 0.1
v 0.1 0.2 0.1
v 0.1 0.4 0.1
v 0.1 0.6 0.1
v 0.1 1 0.1
v 0.1 1.1 0.1
v -0.1 0 -5.96046e-08
v -0.1 0.1 -5.96046e-08
v 0 0 -5.96046e-08
v 0 0.1 -5.96046e-08
v 0 0.2 -5.96046e-08
v 0 0.4 -5.96046e-08
v 0 0.6 -5.96046e-08
v 0 1 -5.96046e-08
v 0.1 0.2 -5.96046e-08
v 0.1 0.4 -5.96046e-08
v 0.1 0.6 -5.96046e-08
v 0.1 1 -5.96046e-08
v -0.1 0.1 -0.1
v -0.1 1 -0.1
v 0 0.1 -0.1
v 0 1 -0.1
v 0 1.1 -0.1
v 0.1 1 -0.1
v 0.1 1.1 -0.1
v 0 1.1 -0.2
v 0 1.2 -0.2
v 0.1 1.1 -0.2
v 0.1 1.2 -0.2
v 0 1.2 -0.4
v 0 1.3 -0.4
v 0.1 1.2 -0.4
v 0.1 1.3 -0.4
v -0.1 1 -0.5
v -0.1 1.1 -0.5
v 0 1 -0.5
v 0 1.1 -0.5
v -0.1 1.1 -0.6
v -0.1 1.2 -0.6
v -0.1 1.9 -0.6
v -0.1 2 -0.6
v 0 1.1 -0.6
v 0 1.2 -0.6
v 0 1.3 -0.6
v 0 1.4 -0.6
v 0 1.7 -0.6
v 0 1.8 -0.6
v 0 1.9 -0.6
v 0 2 -0.6
v 0.1 1.3 -0.6
v 0.1 1.4 -0.6
v 0.1 1.7 -0.6
v 0.1 1.8 -0.6
v 0.1 1.9 -0.6
v -0.1 1.2 -0.7
v -0.1 1.3 -0.7
v -0.1 1.7 -0.7
v -0.1 1.9 -0.7
v 0 1.2 -0.7
v 0 1.3 -0.7
v 0 1.4 -0.7
v 0 1.5 -0.7
v 0 1.7 -0.7
v 0 1.9 -0.7
v 0.1 1.4 -0.7
v 0.1 1.5 -0.7
v 0.1 1.7 -0.7
v -0.1 1.3 -0.8
v -0.1 1.7 -0.8
v 0 1.3 -0.8
v 0 1.7 -0.8
v -0.1 0 0.1
v 0 0 0.1
v -0.1 0 -5.96046e-08
v 0 0 -5.96046e-08
v -0.1 0.1 0.2
v 0 0.1 0.2
v -0.1 0.1 0.1
v 0 0.1 0.1
v -0.1 0.1 -5.96046e-08
v 0 0.1 -5.96046e-08
v -0.1 0.1 -0.1
v 0 0.1 -0.1
v 0 0.2 0.1
v 0.1 0.2 0.1
v 0 0.2 -5.96046e-08
v 0.1 0.2 -5.96046e-08
v -0.1 1 0.3
v 0 1 0.3
v -0.1 1 0.2
v 0 1 0.2
v 0 1 -5.96046e-08
v 0.1 1 -5.96046e-08
v -0.1 1 -0.1
v 0 1 -0.1
v 0.1 1 -0.1
v -0.1 1 -0.5
v 0 1 -0.5
v 0 1.1 0.2
v 0.1 1.1 0.2
v 0 1.1 0.1
v 0.1 1.1 0.1
v 0 1.1 -0.1
v 0.1 1.1 -0.1
v 0 1.1 -0.2
v 0.1 1.1 -0.2
v -0.1 1.1 -0.5
v 0 1.1 -0.5
v -0.1 1.1 -0.6
v 0 1.1 -0.6
v 0 1.2 -0.2
v 0.1 1.2 -0.2
v 0 1.2 -0.3
v 0.1 1.2 -0.3
v 0 1.2 -0.4
v 0.1 1.2 -0.4
v -0.1 1.2 -0.6
v 0 1.2 -0.6
v -0.1 1.2 -0.7
v 0 1.2 -0.7
v -0.1 1.3 0.4
v 0 1.3 0.4
v -0.1 1.3 0.3
v 0 1.3 0.3
v 0.1 1.3 0.3
v 0 1.3 0.2
v 0.1 1.3 0.2
v 0 1.3 -0.4
v 0.1 1.3 -0.4
v 0 1.3 -0.5
v 0.1 1.3 -0.5
v 0 1.3 -0.6
v 0.1 1.3 -0.6
v -0.1 1.3 -0.7
v 0 1.3 -0.7
v -0.1 1.3 -0.8
v 0 1.3 -0.8
v 0 1.4 -0.6
v 0.1 1.4 -0.6
v 0 1.4 -0.7
v 0.1 1.4 -0.7
v -0.1 1.8 0.5
v 0 1.8 0.5
v -0.1 1.8 0.4
v 0 1.8 0.4
v 0.1 1.8 0.4
v 0 1.8 0.3
v 0.1 1.8 0.3
v 0 1.7 -0.6
v 0.1 1.7 -0.6
v -0.1 1.7 -0.7
v 0 1.7 -0.7
v 0.1 1.7 -0.7
v -0.1 1.7 -0.8
v 0 1.7 -0.8
v 0 1.9 0.4
v 0.1 1.9 0.4
v 0 1.9 0.1
v 0.1 1.9 0.1
v 0 1.9 -0.1
v 0.1 1.9 -0.1
v 0 1.9 -0.4
v 0.1 1.9 -0.4
v 0 1.9 -0.5
v 0.1 1.9 -0.5
v -0.1 1.9 -0.6
v 0 1.9 -0.6
v 0.1 1.9 -0.6
v -0.1 1.9 -0.7
v 0 1.9 -0.7
v -0.1 2 0.5
v 0 2 0.5
v -0.1 2 -0.6
v 0 2 -0.6

# faces
f 4/6/1 2/6/1 1/6/1
f 5/6/1 2/6/1 4/6/1
f 7/6/1 4/6/1 3/6/1
f 7/6/1 6/6/1 5/6/1
f 7/6/1 5/6/1 4/6/1
f 8/6/1 6/6/1 7/6/1
f 9/6/1 7/6/1 3/6/1
f 9/3/1 8/3/1 7/3/1
f 10/6/1 6/6/1 8/6/1
f 10/3/1 8/3/1 9/3/1
f 11/6/1 9/6/1 3/6/1
f 11/4/1 10/4/1 9/4/1
f 12/6/1 6/6/1 10/6/1
f 12/4/1 10/4/1 11/4/1
f 14/6/1 11/6/1 3/6/1
f 15/6/1 6/6/1 12/6/1
f 15/3/1 12/3/1 11/3/1
f 16/6/1 6/6/1 15/6/1
f 18/6/1 14/6/1 13/6/1
f 18/6/1 11/6/1 14/6/1
f 19/3/1 16/3/1 15/3/1
f 19/6/1 11/6/1 18/6/1
f 19/3/1 15/3/1 11/3/1
f 20/6/1 17/6/1 16/6/1
f 20/3/1 16/3/1 19/3/1
f 21/6/1 17/6/1 20/6/1
f 22/6/1 17/6/1 21/6/1
f 24/3/1 19/3/1 18/3/1
f 24/3/1 20/3/1 19/3/1
f 24/3/1 21/3/1 20/3/1
f 25/5/1 22/5/1 21/5/1
f 25/3/1 21/3/1 24/3/1
f 26/5/1 22/5/1 25/5/1
f 27/5/1 22/5/1 26/5/1
f 28/6/1 23/6/1 22/6/1
f 28/5/1 22/5/1 27/5/1
f 29/6/1 23/6/1 28/6/1
f 32/6/1 18/6/1 13/6/1
f 33/3/1 24/3/1 18/3/1
f 33/6/1 18/6/1 32/6/1
f 34/1/1 27/1/1 26/1/1
f 34/3/1 26/3/1 25/3/1
f 35/5/1 28/5/1 27/5/1
f 35/1/1 27/1/1 34/1/1
f 35/5/1 29/5/1 28/5/1
f 36/6/1 30/6/1 29/6/1
f 36/5/1 29/5/1 35/5/1
f 37/6/1 30/6/1 36/6/1
f 39/3/1 35/3/1 34/3/1
f 39/5/1 25/5/1 24/5/1
f 39/3/1 34/3/1 25/3/1
f 40/3/1 35/3/1 39/3/1
f 41/1/1 36/1/1 35/1/1
f 41/3/1 35/3/1 40/3/1
f 42/1/1 36/1/1 41/1/1
f 43/5/1 37/5/1 36/5/1
f 43/1/1 36/1/1 42/1/1
f 44/6/1 38/6/1 37/6/1
f 44/5/1 37/5/1 43/5/1
f 45/3/1 24/3/1 33/3/1
f 45/3/1 33/3/1 32/3/1
f 46/3/1 24/3/1 45/3/1
f 47/5/1 40/5/1 39/5/1
f 47/3/1 24/3/1 46/3/1
f 47/5/1 39/5/1 24/5/1
f 48/3/1 42/3/1 41/3/1
f 48/5/1 40/5/1 47/5/1
f 48/3/1 41/3/1 40/3/1
f 49/3/1 42/3/1 48/3/1
f 50/1/1 43/1/1 42/1/1
f 50/3/1 42/3/1 49/3/1
f 51/3/1 44/3/1 43/3/1
f 51/1/1 43/1/1 50/1/1
f 52/3/1 45/3/1 32/3/1
f 53/5/1 46/5/1 45/5/1
f 53/3/1 45/3/1 52/3/1
f 54/3/1 49/3/1 48/3/1
f 54/5/1 46/5/1 53/5/1
f 54/3/1 47/3/1 46/3/1
f 54/3/1 48/3/1 47/3/1
f 55/3/1 49/3/1 54/3/1
f 56/5/1 51/5/1 50/5/1
f 56/3/1 49/3/1 55/3/1
f 56/5/1 50/5/1 49/5/1
f 57/5/1 51/5/1 56/5/1
f 58/3/1 44/3/1 51/3/1
f 58/5/1 51/5/1 57/5/1
f 59/6/1 38/6/1 44/6/1
f 59/3/1 44/3/1 58/3/1
f 60/6/1 32/6/1 31/6/1
f 60/3/1 52/3/1 32/3/1
f 61/5/1 53/5/1 52/5/1
f 61/3/1 52/3/1 60/3/1
f 62/5/1 55/5/1 54/5/1
f 62/3/1 54/3/1 53/3/1
f 63/3/1 57/3/1 56/3/1
f 63/5/1 55/5/1 62/5/1
f 63/3/1 56/3/1 55/3/1
f 64/3/1 57/3/1 63/3/1
f 65/5/1 58/5/1 57/5/1
f 65/3/1 57/3/1 64/3/1
f 65/5/1 59/5/1 58/5/1
f 66/5/1 59/5/1 65/5/1
f 67/6/1 38/6/1 59/6/1
f 67/5/1 59/5/1 66/5/1
f 68/6/1 38/6/1 67/6/1
f 70/6/1 60/6/1 31/6/1
f 71/4/1 61/4/1 60/4/1
f 71/6/1 60/6/1 70/6/1
f 72/5/1 53/5/1 61/5/1
f 72/4/1 61/4/1 71/4/1
f 73/3/1 64/3/1 63/3/1
f 73/5/1 53/5/1 72/5/1
f 73/3/1 63/3/1 62/3/1
f 73/3/1 62/3/1 53/3/1
f 74/3/1 64/3/1 73/3/1
f 75/1/1 65/1/1 64/1/1
f 75/3/1 64/3/1 74/3/1
f 76/3/1 66/3/1 65/3/1
f 76/1/1 65/1/1 75/1/1
f 77/6/1 67/6/1 66/6/1
f 77/3/1 66/3/1 76/3/1
f 78/5/1 72/5/1 71/5/1
f 78/5/1 71/5/1 70/5/1
f 78/6/1 70/6/1 69/6/1
f 78/5/1 73/5/1 72/5/1
f 78/5/1 74/5/1 73/5/1
f 79/3/1 75/3/1 74/3/1
f 79/5/1 74/5/1 78/5/1
f 79/3/1 76/3/1 75/3/1
f 80/1/1 77/1/1 76/1/1
f 80/3/1 76/3/1 79/3/1
f 81/6/1 67/6/1 77/6/1
f 81/1/1 77/1/1 80/1/1
f 82/6/1 67/6/1 81/6/1
f 83/6/1 80/6/1 79/6/1
f 83/6/1 78/6/1 69/6/1
f 83/6/1 81/6/1 80/6/1
f 83/6/1 79/6/1 78/6/1
f 84/6/1 81/6/1 83/6/1
f 85/6/2 86/6/2 88/6/2
f 88/6/2 86/6/2 89/6/2
f 87/6/2 88/6/2 91/6/2
f 89/6/2 90/6/2 91/6/2
f 88/6/2 89/6/2 91/6/2
f 91/6/2 90/6/2 92/6/2
f 87/6/2 91/6/2 93/6/2
f 92/6/2 90/6/2 94/6/2
f 87/6/2 93/6/2 95/6/2
f 94/6/2 90/6/2 96/6/2
f 87/6/2 95/6/2 98/6/2
f 98/6/2 95/6/2 99/6/2
f 96/6/2 90/6/2 100/6/2
f 100/6/2 90/6/2 101/6/2
f 98/6/2 99/6/2 103/6/2
f 97/6/2 98/6/2 103/6/2
f 103/6/2 99/6/2 104/6/2
f 101/6/2 102/6/2 105/6/2
f 105/6/2 102/6/2 106/6/2
f 106/6/2 102/6/2 107/6/2
f 106/5/2 107/5/2 109/5/2
f 109/5/2 107/5/2 110/5/2
f 110/5/2 107/5/2 111/5/2
f 107/6/2 108/6/2 112/6/2
f 111/5/2 107/5/2 112/5/2
f 112/6/2 108/6/2 113/6/2
f 97/6/2 103/6/2 116/6/2
f 116/6/2 103/6/2 117/6/2
f 111/5/2 112/5/2 118/5/2
f 112/5/2 113/5/2 118/5/2
f 118/5/2 113/5/2 119/5/2
f 113/6/2 114/6/2 120/6/2
f 119/5/2 113/5/2 120/5/2
f 120/6/2 114/6/2 121/6/2
f 115/6/2 116/6/2 123/6/2
f 120/5/2 121/5/2 124/5/2
f 121/6/2 122/6/2 125/6/2
f 124/5/2 121/5/2 125/5/2
f 125/6/2 122/6/2 126/6/2
f 126/6/2 122/6/2 128/6/2
f 128/6/2 122/6/2 129/6/2
f 115/6/2 123/6/2 131/6/2
f 131/6/2 123/6/2 132/6/2
f 127/6/2 128/6/2 133/6/2
f 130/6/2 131/6/2 134/6/2
f 133/6/2 128/6/2 139/6/2
f 139/6/2 128/6/2 140/6/2
f 137/6/2 138/6/2 141/6/2
f 130/6/2 134/6/2 141/6/2
f 138/6/2 139/6/2 141/6/2
f 134/6/2 135/6/2 141/6/2
f 136/6/2 137/6/2 141/6/2
f 135/6/2 136/6/2 141/6/2
f 141/6/2 139/6/2 142/6/2
f 143/3/2 144/3/2 145/3/2
f 145/3/2 144/3/2 146/3/2
f 145/4/2 146/4/2 147/4/2
f 147/4/2 146/4/2 148/4/2
f 147/3/2 148/3/2 149/3/2
f 149/3/2 148/3/2 150/3/2
f 149/4/2 150/4/2 153/4/2
f 150/6/2 151/6/2 154/6/2
f 153/4/2 150/4/2 154/4/2
f 154/6/2 151/6/2 155/6/2
f 154/3/2 155/3/2 157/3/2
f 155/4/2 156/4/2 157/4/2
f 157/4/2 156/4/2 158/4/2
f 152/5/2 153/5/2 162/5/2
f 153/4/2 154/4/2 163/4/2
f 162/5/2 153/5/2 163/5/2
f 159/4/2 160/4/2 164/4/2
f 157/3/2 158/3/2 164/3/2
f 158/3/2 159/3/2 164/3/2
f 164/4/2 160/4/2 165/4/2
f 161/6/2 162/6/2 168/6/2
f 162/4/2 163/4/2 169/4/2
f 168/6/2 162/6/2 169/6/2
f 163/4/2 154/4/2 170/4/2
f 169/4/2 163/4/2 170/4/2
f 154/3/2 157/3/2 170/3/2
f 165/3/2 166/3/2 170/3/2
f 164/3/2 165/3/2 170/3/2
f 157/3/2 164/3/2 170/3/2
f 166/4/2 167/4/2 171/4/2
f 170/3/2 166/3/2 171/3/2
f 171/4/2 167/4/2 172/4/2
f 169/3/2 170/3/2 174/3/2
f 172/3/2 173/3/2 174/3/2
f 171/3/2 172/3/2 174/3/2
f 170/3/2 171/3/2 174/3/2
f 174/3/2 173/3/2 175/3/2
f 175/3/2 173/3/2 176/3/2
f 176/3/2 173/3/2 177/3/2
f 168/5/2 169/5/2 178/5/2
f 169/3/2 174/3/2 178/3/2
f 178/3/2 174/3/2 179/3/2
f 174/2/2 175/2/2 180/2/2
f 179/3/2 174/3/2 180/3/2
f 175/3/2 176/3/2 181/3/2
f 180/2/2 175/2/2 181/2/2
f 181/3/2 176/3/2 182/3/2
f 178/4/2 179/4/2 183/4/2
f 179/3/2 180/3/2 183/3/2
f 180/3/2 181/3/2 183/3/2
f 183/3/2 181/3/2 184/3/2
f 181/2/2 182/2/2 185/2/2
f 184/3/2 181/3/2 185/3/2
f 182/3/2 176/3/2 186/3/2
f 185/2/2 182/2/2 186/2/2
f 186/3/2 176/3/2 187/3/2
f 176/4/2 177/4/2 188/4/2
f 187/3/2 176/3/2 188/3/2
f 188/4/2 177/4/2 189/4/2
f 168/5/2 178/5/2 191/5/2
f 183/4/2 184/4/2 192/4/2
f 178/4/2 183/4/2 192/4/2
f 191/5/2 178/5/2 192/5/2
f 192/4/2 184/4/2 193/4/2
f 186/3/2 187/3/2 194/3/2
f 193/4/2 184/4/2 194/4/2
f 184/3/2 185/3/2 194/3/2
f 185/3/2 186/3/2 194/3/2
f 194/3/2 187/3/2 195/3/2
f 195/3/2 187/3/2 196/3/2
f 187/4/2 188/4/2 197/4/2
f 196/3/2 187/3/2 197/3/2
f 197/4/2 188/4/2 198/4/2
f 192/5/2 193/5/2 199/5/2
f 191/5/2 192/5/2 199/5/2
f 190/5/2 191/5/2 199/5/2
f 193/4/2 194/4/2 200/4/2
f 199/5/2 193/5/2 200/5/2
f 194/4/2 195/4/2 200/4/2
f 195/3/2 196/3/2 201/3/2
f 200/4/2 195/4/2 201/4/2
f 196/4/2 197/4/2 202/4/2
f 201/3/2 196/3/2 202/3/2
f 197/6/2 198/6/2 203/6/2
f 202/4/2 197/4/2 203/4/2
f 203/6/2 198/6/2 204/6/2
f 207/6/3 206/6/3 205/6/3
f 208/6/3 206/6/3 207/6/3
f 211/6/3 210/6/3 209/6/3
f 212/6/3 210/6/3 211/6/3
f 214/5/3 213/5/3 212/5/3
f 215/5/3 213/5/3 214/5/3
f 218/6/3 217/6/3 216/6/3
f 219/6/3 217/6/3 218/6/3
f 222/6/3 220/6/3 219/6/3
f 223/5/3 221/5/3 220/5/3
f 223/6/3 220/6/3 222/6/3
f 224/5/3 221/5/3 223/5/3
f 227/6/3 226/6/3 225/6/3
f 228/6/3 226/6/3 227/6/3
f 231/5/3 230/5/3 229/5/3
f 232/5/3 230/5/3 231/5/3
f 235/6/3 234/6/3 233/6/3
f 236/6/3 234/6/3 235/6/3
f 242/3/3 238/3/3 237/3/3
f 243/4/3 239/4/3 238/4/3
f 243/3/3 238/3/3 242/3/3
f 244/3/3 240/3/3 239/3/3
f 244/4/3 239/4/3 243/4/3
f 245/4/3 241/4/3 240/4/3
f 245/3/3 240/3/3 244/3/3
f 246/4/3 241/4/3 245/4/3
f 247/6/4 248/6/4 249/6/4
f 249/6/4 248/6/4 250/6/4
f 251/3/4 252/3/4 255/3/4
f 252/4/4 253/4/4 256/4/4
f 255/3/4 252/3/4 256/3/4
f 253/3/4 254/3/4 257/3/4
f 256/4/4 253/4/4 257/4/4
f 257/3/4 254/3/4 258/3/4
f 259/6/4 260/6/4 261/6/4
f 261/6/4 260/6/4 262/6/4
f 262/6/4 263/6/4 264/6/4
f 264/6/4 263/6/4 265/6/4
f 266/4/4 267/4/4 268/4/4
f 268/4/4 267/4/4 269/4/4
f 270/4/4 271/4/4 272/4/4
f 272/4/4 271/4/4 273/4/4
f 274/6/4 275/6/4 276/6/4
f 276/6/4 275/6/4 277/6/4
f 278/6/4 279/6/4 282/6/4
f 282/6/4 279/6/4 283/6/4
f 280/6/4 281/6/4 288/6/4
f 288/6/4 281/6/4 289/6/4
f 284/4/4 285/4/4 290/4/4
f 290/4/4 285/4/4 291/4/4
f 286/4/4 287/4/4 292/4/4
f 287/6/4 288/6/4 293/6/4
f 292/4/4 287/4/4 293/4/4
f 293/6/4 288/6/4 294/6/4
f 295/6/4 296/6/4 299/6/4
f 299/6/4 296/6/4 300/6/4
f 297/6/4 298/6/4 303/6/4
f 303/6/4 298/6/4 304/6/4
f 301/3/4 302/3/4 305/3/4
f 302/4/4 303/4/4 306/4/4
f 305/3/4 302/3/4 306/3/4
f 306/4/4 303/4/4 307/4/4
f 308/6/4 309/6/4 310/6/4
f 310/6/4 309/6/4 311/6/4
f 314/6/5 313/6/5 312/6/5
f 315/6/5 313/6/5 314/6/5
f 318/6/5 317/6/5 316/6/5
f 319/6/5 317/6/5 318/6/5
f 322/6/5 321/6/5 320/6/5
f 323/6/5 321/6/5 322/6/5
f 326/3/5 325/3/5 324/3/5
f 327/3/5 325/3/5 326/3/5
f 330/6/5 329/6/5 328/6/5
f 331/6/5 329/6/5 330/6/5
f 335/6/5 333/6/5 332/6/5
f 336/6/5 333/6/5 335/6/5
f 337/6/5 335/6/5 334/6/5
f 338/6/5 335/6/5 337/6/5
f 341/5/5 340/5/5 339/5/5
f 342/5/5 340/5/5 341/5/5
f 345/4/5 344/4/5 343/4/5
f 346/4/5 344/4/5 345/4/5
f 349/6/5 348/6/5 347/6/5
f 350/6/5 348/6/5 349/6/5
f 353/3/5 352/3/5 351/3/5
f 354/3/5 352/3/5 353/3/5
f 355/4/5 354/4/5 353/4/5
f 356/4/5 354/4/5 355/4/5
f 359/6/5 358/6/5 357/6/5
f 360/6/5 358/6/5 359/6/5
f 363/6/5 362/6/5 361/6/5
f 364/6/5 362/6/5 363/6/5
f 366/6/5 365/6/5 364/6/5
f 367/6/5 365/6/5 366/6/5
f 370/3/5 369/3/5 368/3/5
f 371/3/5 369/3/5 370/3/5
f 372/4/5 371/4/5 370/4/5
f 373/4/5 371/4/5 372/4/5
f 376/6/5 375/6/5 374/6/5
f 377/6/5 375/6/5 376/6/5
f 380/3/5 379/3/5 378/3/5
f 381/3/5 379/3/5 380/3/5
f 384/6/5 383/6/5 382/6/5
f 385/6/5 383/6/5 384/6/5
f 387/5/5 386/5/5 385/5/5
f 388/5/5 386/5/5 387/5/5
f 389/4/6 390/4/6 392/4/6
f 392/4/6 390/4/6 393/4/6
f 391/6/6 392/6/6 394/6/6
f 394/6/6 392/6/6 395/6/6
f 396/5/6 397/5/6 398/5/6
f 398/5/6 397/5/6 399/5/6
f 398/4/6 399/4/6 400/4/6
f 400/4/6 399/4/6 401/4/6
f 400/3/6 401/3/6 402/3/6
f 402/3/6 401/3/6 403/3/6
f 402/4/6 403/4/6 404/4/6
f 404/4/6 403/4/6 405/4/6
f 404/6/6 405/6/6 407/6/6
f 407/6/6 405/6/6 408/6/6
f 406/6/6 407/6/6 409/6/6
f 409/6/6 407/6/6 410/6/6
f 411/6/6 412/6/6 413/6/6
f 413/6/6 412/6/6 414/6/6
