# MagicaVoxel @ Ephtracy

# group
o 

# material
mtllib ThrowableKnife.mtl
usemtl palette

# normals
vn -1 0 0
vn 1 0 0
vn 0 0 1
vn 0 0 -1
vn 0 -1 0
vn 0 1 0

# texcoords
vt 0.955078 0.5
vt 0.982422 0.5
vt 0.994141 0.5

# verts
v -0.3 0.1 0.2
v -0.3 0.1 0.1
v -0.3 0.1 -0.3
v -0.3 0.2 0.2
v -0.3 0.2 0.1
v -0.3 0.2 -0.3
v -0.2 0 0.2
v -0.2 0 -0.1
v -0.2 0 -0.2
v -0.2 0.1 0.3
v -0.2 0.1 0.2
v -0.2 0.1 0.1
v -0.2 0.1 -0.1
v -0.2 0.1 -0.2
v -0.2 0.1 -0.3
v -0.2 0.1 -0.5
v -0.2 0.2 0.3
v -0.2 0.2 0.2
v -0.2 0.2 0.1
v -0.2 0.2 -0.1
v -0.2 0.2 -0.2
v -0.2 0.2 -0.3
v -0.2 0.2 -0.5
v -0.2 0.3 0.2
v -0.2 0.3 -0.1
v -0.2 0.3 -0.2
v -0.1 0 0.3
v -0.1 0 0.2
v -0.1 0 -0.2
v -0.1 0 -0.4
v -0.1 0.1 0.9
v -0.1 0.1 0.8
v -0.1 0.1 0.4
v -0.1 0.1 0.3
v -0.1 0.1 0.2
v -0.1 0.1 -0.2
v -0.1 0.1 -0.4
v -0.1 0.1 -0.5
v -0.1 0.1 -0.7
v -0.1 0.2 0.9
v -0.1 0.2 0.8
v -0.1 0.2 0.4
v -0.1 0.2 0.3
v -0.1 0.2 0.2
v -0.1 0.2 -0.2
v -0.1 0.2 -0.4
v -0.1 0.2 -0.5
v -0.1 0.2 -0.7
v -0.1 0.3 0.3
v -0.1 0.3 0.2
v -0.1 0.3 -0.2
v -0.1 0.3 -0.4
v 0 0 0.4
v 0 0 0.3
v 0 0 -0.4
v 0 0 -0.5
v 0 0 -0.6
v 0 0.1 1
v 0 0.1 0.9
v 0 0.1 0.8
v 0 0.1 0.7
v 0 0.1 0.4
v 0 0.1 0.3
v 0 0.1 -0.4
v 0 0.1 -0.5
v 0 0.1 -0.6
v 0 0.1 -0.7
v 0 0.1 -0.9
v 0 0.2 1
v 0 0.2 0.9
v 0 0.2 0.8
v 0 0.2 0.7
v 0 0.2 0.4
v 0 0.2 0.3
v 0 0.2 -0.4
v 0 0.2 -0.6
v 0 0.2 -0.7
v 0 0.2 -0.9
v 0 0.3 0.4
v 0 0.3 0.3
v 0 0.3 -0.4
v 0 0.3 -0.6
v 0.1 0.1 0.9
v 0.1 0.1 0.8
v 0.1 0.2 0.9
v 0.1 0.2 0.8
v 0 0.1 0.9
v 0 0.1 0.8
v 0 0.2 0.9
v 0 0.2 0.8
v 0.1 0 0.4
v 0.1 0 0.3
v 0.1 0 -0.4
v 0.1 0 -0.5
v 0.1 0 -0.6
v 0.1 0.1 1
v 0.1 0.1 0.9
v 0.1 0.1 0.8
v 0.1 0.1 0.7
v 0.1 0.1 0.4
v 0.1 0.1 0.3
v 0.1 0.1 -0.4
v 0.1 0.1 -0.5
v 0.1 0.1 -0.6
v 0.1 0.1 -0.7
v 0.1 0.1 -0.9
v 0.1 0.2 1
v 0.1 0.2 0.9
v 0.1 0.2 0.8
v 0.1 0.2 0.7
v 0.1 0.2 0.4
v 0.1 0.2 0.3
v 0.1 0.2 -0.4
v 0.1 0.2 -0.6
v 0.1 0.2 -0.7
v 0.1 0.2 -0.9
v 0.1 0.3 0.4
v 0.1 0.3 0.3
v 0.1 0.3 -0.4
v 0.1 0.3 -0.6
v 0.2 0 0.3
v 0.2 0 0.2
v 0.2 0 -0.2
v 0.2 0 -0.4
v 0.2 0.1 0.9
v 0.2 0.1 0.8
v 0.2 0.1 0.4
v 0.2 0.1 0.3
v 0.2 0.1 0.2
v 0.2 0.1 -0.2
v 0.2 0.1 -0.4
v 0.2 0.1 -0.5
v 0.2 0.1 -0.7
v 0.2 0.2 0.9
v 0.2 0.2 0.8
v 0.2 0.2 0.4
v 0.2 0.2 0.3
v 0.2 0.2 0.2
v 0.2 0.2 -0.2
v 0.2 0.2 -0.4
v 0.2 0.2 -0.5
v 0.2 0.2 -0.7
v 0.2 0.3 0.3
v 0.2 0.3 0.2
v 0.2 0.3 -0.2
v 0.2 0.3 -0.4
v 0.3 0 0.2
v 0.3 0 0
v 0.3 0 -0.2
v 0.3 0.1 0.3
v 0.3 0.1 0.2
v 0.3 0.1 0
v 0.3 0.1 -0.2
v 0.3 0.1 -0.3
v 0.3 0.1 -0.5
v 0.3 0.2 0.3
v 0.3 0.2 0.2
v 0.3 0.2 -0.2
v 0.3 0.2 -0.3
v 0.3 0.2 -0.5
v 0.3 0.3 0.2
v 0.3 0.3 -0.2
v 0.4 0.1 0.2
v 0.4 0.1 -0.3
v 0.4 0.2 0.2
v 0.4 0.2 -0.3
v 0 0.1 1
v 0 0.2 1
v 0.1 0.1 1
v 0.1 0.2 1
v -0.1 0.1 0.9
v -0.1 0.2 0.9
v 0 0.1 0.9
v 0 0.2 0.9
v 0.1 0.1 0.9
v 0.1 0.2 0.9
v 0.2 0.1 0.9
v 0.2 0.2 0.9
v 0 0.1 0.8
v 0 0.2 0.8
v 0.1 0.1 0.8
v 0.1 0.2 0.8
v -0.1 0.1 0.4
v -0.1 0.2 0.4
v 0 0 0.4
v 0 0.1 0.4
v 0 0.2 0.4
v 0 0.3 0.4
v 0.1 0 0.4
v 0.1 0.1 0.4
v 0.1 0.2 0.4
v 0.1 0.3 0.4
v 0.2 0.1 0.4
v 0.2 0.2 0.4
v -0.2 0.1 0.3
v -0.2 0.2 0.3
v -0.1 0 0.3
v -0.1 0.1 0.3
v -0.1 0.2 0.3
v -0.1 0.3 0.3
v 0 0 0.3
v 0 0.1 0.3
v 0 0.2 0.3
v 0 0.3 0.3
v 0.1 0 0.3
v 0.1 0.1 0.3
v 0.1 0.2 0.3
v 0.1 0.3 0.3
v 0.2 0 0.3
v 0.2 0.1 0.3
v 0.2 0.2 0.3
v 0.2 0.3 0.3
v 0.3 0.1 0.3
v 0.3 0.2 0.3
v -0.3 0.1 0.2
v -0.3 0.2 0.2
v -0.2 0 0.2
v -0.2 0.1 0.2
v -0.2 0.2 0.2
v -0.2 0.3 0.2
v -0.1 0 0.2
v -0.1 0.1 0.2
v -0.1 0.2 0.2
v -0.1 0.3 0.2
v 0.2 0 0.2
v 0.2 0.1 0.2
v 0.2 0.2 0.2
v 0.2 0.3 0.2
v 0.3 0 0.2
v 0.3 0.1 0.2
v 0.3 0.2 0.2
v 0.3 0.3 0.2
v 0.4 0.1 0.2
v 0.4 0.2 0.2
v 0 0.1 0.9
v 0 0.2 0.9
v 0.1 0.1 0.9
v 0.1 0.2 0.9
v -0.1 0.1 0.8
v -0.1 0.2 0.8
v 0 0.1 0.8
v 0 0.2 0.8
v 0.1 0.1 0.8
v 0.1 0.2 0.8
v 0.2 0.1 0.8
v 0.2 0.2 0.8
v -0.2 0 -0.2
v -0.2 0.1 -0.2
v -0.2 0.2 -0.2
v -0.2 0.3 -0.2
v -0.1 0 -0.2
v -0.1 0.1 -0.2
v -0.1 0.2 -0.2
v -0.1 0.3 -0.2
v 0.2 0 -0.2
v 0.2 0.1 -0.2
v 0.2 0.2 -0.2
v 0.2 0.3 -0.2
v 0.3 0 -0.2
v 0.3 0.1 -0.2
v 0.3 0.2 -0.2
v 0.3 0.3 -0.2
v -0.3 0.1 -0.3
v -0.3 0.2 -0.3
v -0.2 0.1 -0.3
v -0.2 0.2 -0.3
v 0.3 0.1 -0.3
v 0.3 0.2 -0.3
v 0.4 0.1 -0.3
v 0.4 0.2 -0.3
v -0.1 0 -0.4
v -0.1 0.1 -0.4
v -0.1 0.2 -0.4
v -0.1 0.3 -0.4
v 0 0 -0.4
v 0 0.1 -0.4
v 0 0.2 -0.4
v 0 0.3 -0.4
v 0.1 0 -0.4
v 0.1 0.1 -0.4
v 0.1 0.2 -0.4
v 0.1 0.3 -0.4
v 0.2 0 -0.4
v 0.2 0.1 -0.4
v 0.2 0.2 -0.4
v 0.2 0.3 -0.4
v -0.2 0.1 -0.5
v -0.2 0.2 -0.5
v -0.1 0.1 -0.5
v -0.1 0.2 -0.5
v 0.2 0.1 -0.5
v 0.2 0.2 -0.5
v 0.3 0.1 -0.5
v 0.3 0.2 -0.5
v 0 0 -0.6
v 0 0.1 -0.6
v 0 0.2 -0.6
v 0 0.3 -0.6
v 0.1 0 -0.6
v 0.1 0.1 -0.6
v 0.1 0.2 -0.6
v 0.1 0.3 -0.6
v -0.1 0.1 -0.7
v -0.1 0.2 -0.7
v 0 0.1 -0.7
v 0 0.2 -0.7
v 0.1 0.1 -0.7
v 0.1 0.2 -0.7
v 0.2 0.1 -0.7
v 0.2 0.2 -0.7
v 0 0.1 -0.9
v 0 0.2 -0.9
v 0.1 0.1 -0.9
v 0.1 0.2 -0.9
v 0 0 0.4
v 0.1 0 0.4
v -0.1 0 0.3
v 0 0 0.3
v 0.1 0 0.3
v 0.2 0 0.3
v -0.2 0 0.2
v -0.1 0 0.2
v 0 0 0.2
v 0.1 0 0.2
v 0.2 0 0.2
v 0.3 0 0.2
v -0.1 0 0
v 0 0 0
v 0.2 0 0
v 0.3 0 0
v -0.2 0 -0.1
v -0.1 0 -0.1
v -0.2 0 -0.2
v -0.1 0 -0.2
v 0 0 -0.2
v 0.2 0 -0.2
v 0.3 0 -0.2
v -0.1 0 -0.4
v 0 0 -0.4
v 0.1 0 -0.4
v 0.2 0 -0.4
v 0 0 -0.5
v 0.1 0 -0.5
v 0 0 -0.6
v 0.1 0 -0.6
v 0 0.1 1
v 0.1 0.1 1
v -0.1 0.1 0.9
v 0 0.1 0.9
v 0.1 0.1 0.9
v 0.2 0.1 0.9
v -0.1 0.1 0.8
v 0 0.1 0.8
v 0.1 0.1 0.8
v 0.2 0.1 0.8
v 0 0.1 0.7
v 0.1 0.1 0.7
v -0.1 0.1 0.4
v 0 0.1 0.4
v 0.1 0.1 0.4
v 0.2 0.1 0.4
v -0.2 0.1 0.3
v -0.1 0.1 0.3
v 0 0.1 0.3
v 0.1 0.1 0.3
v 0.2 0.1 0.3
v 0.3 0.1 0.3
v -0.3 0.1 0.2
v -0.2 0.1 0.2
v -0.1 0.1 0.2
v 0.2 0.1 0.2
v 0.3 0.1 0.2
v 0.4 0.1 0.2
v -0.3 0.1 0.1
v -0.2 0.1 0.1
v 0.3 0.1 0
v -0.2 0.1 -0.1
v -0.2 0.1 -0.2
v -0.1 0.1 -0.2
v 0.2 0.1 -0.2
v 0.3 0.1 -0.2
v -0.3 0.1 -0.3
v -0.2 0.1 -0.3
v 0.3 0.1 -0.3
v 0.4 0.1 -0.3
v -0.1 0.1 -0.4
v 0 0.1 -0.4
v 0.1 0.1 -0.4
v 0.2 0.1 -0.4
v -0.2 0.1 -0.5
v -0.1 0.1 -0.5
v 0 0.1 -0.5
v 0.1 0.1 -0.5
v 0.2 0.1 -0.5
v 0.3 0.1 -0.5
v 0 0.1 -0.6
v 0.1 0.1 -0.6
v -0.1 0.1 -0.7
v 0 0.1 -0.7
v 0.1 0.1 -0.7
v 0.2 0.1 -0.7
v 0 0.1 -0.9
v 0.1 0.1 -0.9
v 0 0.2 1
v 0.1 0.2 1
v -0.1 0.2 0.9
v 0 0.2 0.9
v 0.1 0.2 0.9
v 0.2 0.2 0.9
v -0.1 0.2 0.8
v 0 0.2 0.8
v 0.1 0.2 0.8
v 0.2 0.2 0.8
v 0 0.2 0.7
v 0.1 0.2 0.7
v -0.1 0.2 0.4
v 0 0.2 0.4
v 0.1 0.2 0.4
v 0.2 0.2 0.4
v -0.2 0.2 0.3
v -0.1 0.2 0.3
v 0 0.2 0.3
v 0.1 0.2 0.3
v 0.2 0.2 0.3
v 0.3 0.2 0.3
v -0.3 0.2 0.2
v -0.2 0.2 0.2
v -0.1 0.2 0.2
v 0.2 0.2 0.2
v 0.3 0.2 0.2
v 0.4 0.2 0.2
v -0.3 0.2 0.1
v -0.2 0.2 0.1
v -0.2 0.2 -0.1
v -0.2 0.2 -0.2
v -0.1 0.2 -0.2
v 0.2 0.2 -0.2
v 0.3 0.2 -0.2
v -0.3 0.2 -0.3
v -0.2 0.2 -0.3
v 0.3 0.2 -0.3
v 0.4 0.2 -0.3
v -0.1 0.2 -0.4
v 0 0.2 -0.4
v 0.1 0.2 -0.4
v 0.2 0.2 -0.4
v -0.2 0.2 -0.5
v -0.1 0.2 -0.5
v 0.2 0.2 -0.5
v 0.3 0.2 -0.5
v 0 0.2 -0.6
v 0.1 0.2 -0.6
v -0.1 0.2 -0.7
v 0 0.2 -0.7
v 0.1 0.2 -0.7
v 0.2 0.2 -0.7
v 0 0.2 -0.9
v 0.1 0.2 -0.9
v 0 0.3 0.4
v 0.1 0.3 0.4
v -0.1 0.3 0.3
v 0 0.3 0.3
v 0.1 0.3 0.3
v 0.2 0.3 0.3
v -0.2 0.3 0.2
v -0.1 0.3 0.2
v 0.1 0.3 0.2
v 0.2 0.3 0.2
v 0.3 0.3 0.2
v 0 0.3 0.1
v 0.1 0.3 0.1
v 0.1 0.3 0
v 0.2 0.3 0
v -0.2 0.3 -0.1
v 0 0.3 -0.1
v -0.2 0.3 -0.2
v -0.1 0.3 -0.2
v 0 0.3 -0.2
v 0.1 0.3 -0.2
v 0.2 0.3 -0.2
v 0.3 0.3 -0.2
v -0.1 0.3 -0.4
v 0 0.3 -0.4
v 0.1 0.3 -0.4
v 0.2 0.3 -0.4
v 0 0.3 -0.6
v 0.1 0.3 -0.6

# faces
f 4/3/1 2/3/1 1/3/1
f 5/1/1 3/1/1 2/1/1
f 5/3/1 2/3/1 4/3/1
f 6/1/1 3/1/1 5/1/1
f 11/1/1 8/1/1 7/1/1
f 12/1/1 8/1/1 11/1/1
f 13/3/1 9/3/1 8/3/1
f 13/1/1 8/1/1 12/1/1
f 14/3/1 9/3/1 13/3/1
f 17/3/1 11/3/1 10/3/1
f 18/3/1 11/3/1 17/3/1
f 22/1/1 16/1/1 15/1/1
f 23/1/1 16/1/1 22/1/1
f 24/1/1 19/1/1 18/1/1
f 24/1/1 20/1/1 19/1/1
f 25/3/1 21/3/1 20/3/1
f 25/1/1 20/1/1 24/1/1
f 26/3/1 21/3/1 25/3/1
f 34/1/1 28/1/1 27/1/1
f 35/1/1 28/1/1 34/1/1
f 36/1/1 30/1/1 29/1/1
f 37/1/1 30/1/1 36/1/1
f 40/3/1 32/3/1 31/3/1
f 41/3/1 32/3/1 40/3/1
f 42/3/1 34/3/1 33/3/1
f 43/3/1 34/3/1 42/3/1
f 47/1/1 39/1/1 38/1/1
f 48/1/1 39/1/1 47/1/1
f 49/1/1 44/1/1 43/1/1
f 50/1/1 44/1/1 49/1/1
f 51/1/1 46/1/1 45/1/1
f 52/1/1 46/1/1 51/1/1
f 62/1/1 54/1/1 53/1/1
f 63/1/1 54/1/1 62/1/1
f 64/3/1 56/3/1 55/3/1
f 65/1/1 57/1/1 56/1/1
f 65/3/1 56/3/1 64/3/1
f 66/1/1 57/1/1 65/1/1
f 69/3/1 59/3/1 58/3/1
f 70/3/1 59/3/1 69/3/1
f 71/3/1 61/3/1 60/3/1
f 72/1/1 62/1/1 61/1/1
f 72/3/1 61/3/1 71/3/1
f 73/1/1 62/1/1 72/1/1
f 77/3/1 68/3/1 67/3/1
f 78/3/1 68/3/1 77/3/1
f 79/1/1 74/1/1 73/1/1
f 80/1/1 74/1/1 79/1/1
f 81/3/1 76/3/1 75/3/1
f 82/3/1 76/3/1 81/3/1
f 85/3/1 84/3/1 83/3/1
f 86/3/1 84/3/1 85/3/1
f 87/3/2 88/3/2 89/3/2
f 89/3/2 88/3/2 90/3/2
f 91/1/2 92/1/2 100/1/2
f 100/1/2 92/1/2 101/1/2
f 93/3/2 94/3/2 102/3/2
f 94/1/2 95/1/2 103/1/2
f 102/3/2 94/3/2 103/3/2
f 103/1/2 95/1/2 104/1/2
f 96/3/2 97/3/2 107/3/2
f 107/3/2 97/3/2 108/3/2
f 98/3/2 99/3/2 109/3/2
f 99/1/2 100/1/2 110/1/2
f 109/3/2 99/3/2 110/3/2
f 110/1/2 100/1/2 111/1/2
f 105/3/2 106/3/2 115/3/2
f 115/3/2 106/3/2 116/3/2
f 111/1/2 112/1/2 117/1/2
f 117/1/2 112/1/2 118/1/2
f 113/3/2 114/3/2 119/3/2
f 119/3/2 114/3/2 120/3/2
f 121/1/2 122/1/2 128/1/2
f 128/1/2 122/1/2 129/1/2
f 123/1/2 124/1/2 130/1/2
f 130/1/2 124/1/2 131/1/2
f 125/3/2 126/3/2 134/3/2
f 134/3/2 126/3/2 135/3/2
f 127/1/2 128/1/2 136/1/2
f 136/1/2 128/1/2 137/1/2
f 132/3/2 133/3/2 141/3/2
f 141/3/2 133/3/2 142/3/2
f 137/3/2 138/3/2 143/3/2
f 143/3/2 138/3/2 144/3/2
f 139/1/2 140/1/2 145/1/2
f 145/1/2 140/1/2 146/1/2
f 147/3/2 148/3/2 151/3/2
f 148/1/2 149/1/2 152/1/2
f 151/3/2 148/3/2 152/3/2
f 152/1/2 149/1/2 153/1/2
f 150/1/2 151/1/2 156/1/2
f 156/1/2 151/1/2 157/1/2
f 154/1/2 155/1/2 159/1/2
f 159/1/2 155/1/2 160/1/2
f 157/1/2 158/1/2 161/1/2
f 161/1/2 158/1/2 162/1/2
f 163/1/2 164/1/2 165/1/2
f 165/1/2 164/1/2 166/1/2
f 169/3/3 168/3/3 167/3/3
f 170/3/3 168/3/3 169/3/3
f 173/3/3 172/3/3 171/3/3
f 174/3/3 172/3/3 173/3/3
f 177/3/3 176/3/3 175/3/3
f 178/3/3 176/3/3 177/3/3
f 181/3/3 180/3/3 179/3/3
f 182/3/3 180/3/3 181/3/3
f 186/3/3 184/3/3 183/3/3
f 187/3/3 184/3/3 186/3/3
f 189/1/3 186/1/3 185/1/3
f 190/1/3 186/1/3 189/1/3
f 191/1/3 188/1/3 187/1/3
f 192/1/3 188/1/3 191/1/3
f 193/1/3 191/1/3 190/1/3
f 194/1/3 191/1/3 193/1/3
f 198/3/3 196/3/3 195/3/3
f 199/3/3 196/3/3 198/3/3
f 201/1/3 198/1/3 197/1/3
f 202/1/3 198/1/3 201/1/3
f 203/1/3 200/1/3 199/1/3
f 204/1/3 200/1/3 203/1/3
f 209/1/3 206/1/3 205/1/3
f 210/1/3 206/1/3 209/1/3
f 211/3/3 208/3/3 207/3/3
f 212/3/3 208/3/3 211/3/3
f 213/1/3 211/1/3 210/1/3
f 214/1/3 211/1/3 213/1/3
f 218/3/3 216/3/3 215/3/3
f 219/3/3 216/3/3 218/3/3
f 221/1/3 218/1/3 217/1/3
f 222/1/3 218/1/3 221/1/3
f 223/1/3 220/1/3 219/1/3
f 224/1/3 220/1/3 223/1/3
f 229/3/3 226/3/3 225/3/3
f 230/3/3 226/3/3 229/3/3
f 231/1/3 228/1/3 227/1/3
f 232/1/3 228/1/3 231/1/3
f 233/1/3 231/1/3 230/1/3
f 234/1/3 231/1/3 233/1/3
f 235/3/4 236/3/4 237/3/4
f 237/3/4 236/3/4 238/3/4
f 239/3/4 240/3/4 241/3/4
f 241/3/4 240/3/4 242/3/4
f 243/3/4 244/3/4 245/3/4
f 245/3/4 244/3/4 246/3/4
f 247/3/4 248/3/4 251/3/4
f 251/3/4 248/3/4 252/3/4
f 249/3/4 250/3/4 253/3/4
f 253/3/4 250/3/4 254/3/4
f 255/1/4 256/1/4 259/1/4
f 259/1/4 256/1/4 260/1/4
f 257/1/4 258/1/4 261/1/4
f 261/1/4 258/1/4 262/1/4
f 263/1/4 264/1/4 265/1/4
f 265/1/4 264/1/4 266/1/4
f 267/1/4 268/1/4 269/1/4
f 269/1/4 268/1/4 270/1/4
f 271/1/4 272/1/4 275/1/4
f 275/1/4 272/1/4 276/1/4
f 273/1/4 274/1/4 277/1/4
f 277/1/4 274/1/4 278/1/4
f 279/1/4 280/1/4 283/1/4
f 283/1/4 280/1/4 284/1/4
f 281/1/4 282/1/4 285/1/4
f 285/1/4 282/1/4 286/1/4
f 287/1/4 288/1/4 289/1/4
f 289/1/4 288/1/4 290/1/4
f 291/1/4 292/1/4 293/1/4
f 293/1/4 292/1/4 294/1/4
f 295/1/4 296/1/4 299/1/4
f 299/1/4 296/1/4 300/1/4
f 297/3/4 298/3/4 301/3/4
f 301/3/4 298/3/4 302/3/4
f 303/1/4 304/1/4 305/1/4
f 305/1/4 304/1/4 306/1/4
f 307/3/4 308/3/4 309/3/4
f 309/3/4 308/3/4 310/3/4
f 311/3/4 312/3/4 313/3/4
f 313/3/4 312/3/4 314/3/4
f 318/1/5 316/1/5 315/1/5
f 319/1/5 316/1/5 318/1/5
f 322/1/5 318/1/5 317/1/5
f 323/3/5 319/3/5 318/3/5
f 323/1/5 318/1/5 322/1/5
f 324/1/5 320/1/5 319/1/5
f 324/3/5 319/3/5 323/3/5
f 325/1/5 320/1/5 324/1/5
f 327/1/5 323/1/5 322/1/5
f 327/1/5 322/1/5 321/1/5
f 327/1/5 325/1/5 324/1/5
f 327/1/5 324/1/5 323/1/5
f 328/1/5 325/1/5 327/1/5
f 329/3/5 326/3/5 325/3/5
f 329/1/5 325/1/5 328/1/5
f 330/3/5 326/3/5 329/3/5
f 331/1/5 327/1/5 321/1/5
f 332/3/5 328/3/5 327/3/5
f 332/1/5 327/1/5 331/1/5
f 333/3/5 332/3/5 331/3/5
f 334/3/5 328/3/5 332/3/5
f 334/3/5 332/3/5 333/3/5
f 335/1/5 329/1/5 328/1/5
f 335/3/5 328/3/5 334/3/5
f 335/1/5 330/1/5 329/1/5
f 336/1/5 330/1/5 335/1/5
f 337/1/5 330/1/5 336/1/5
f 338/1/5 335/1/5 334/1/5
f 338/1/5 336/1/5 335/1/5
f 339/1/5 336/1/5 338/1/5
f 340/1/5 336/1/5 339/1/5
f 341/1/5 336/1/5 340/1/5
f 342/3/5 340/3/5 339/3/5
f 343/3/5 340/3/5 342/3/5
f 344/1/5 343/1/5 342/1/5
f 345/1/5 343/1/5 344/1/5
f 349/3/5 347/3/5 346/3/5
f 350/3/5 347/3/5 349/3/5
f 352/3/5 349/3/5 348/3/5
f 353/3/5 349/3/5 352/3/5
f 354/3/5 351/3/5 350/3/5
f 355/3/5 351/3/5 354/3/5
f 356/3/5 354/3/5 353/3/5
f 357/3/5 354/3/5 356/3/5
f 359/1/5 357/1/5 356/1/5
f 360/1/5 357/1/5 359/1/5
f 363/3/5 359/3/5 358/3/5
f 364/3/5 359/3/5 363/3/5
f 365/1/5 361/1/5 360/1/5
f 366/1/5 361/1/5 365/1/5
f 369/3/5 363/3/5 362/3/5
f 370/3/5 363/3/5 369/3/5
f 371/1/5 367/1/5 366/1/5
f 372/1/5 367/1/5 371/1/5
f 374/3/5 369/3/5 368/3/5
f 375/3/5 369/3/5 374/3/5
f 376/1/5 373/1/5 372/1/5
f 377/1/5 375/1/5 374/1/5
f 378/1/5 377/1/5 374/1/5
f 381/1/5 373/1/5 376/1/5
f 382/1/5 379/1/5 378/1/5
f 382/1/5 378/1/5 374/1/5
f 383/1/5 379/1/5 382/1/5
f 384/1/5 381/1/5 380/1/5
f 384/1/5 373/1/5 381/1/5
f 385/1/5 373/1/5 384/1/5
f 386/1/5 379/1/5 383/1/5
f 389/1/5 384/1/5 380/1/5
f 390/1/5 387/1/5 386/1/5
f 390/1/5 386/1/5 383/1/5
f 391/1/5 387/1/5 390/1/5
f 392/1/5 387/1/5 391/1/5
f 393/3/5 389/3/5 388/3/5
f 394/1/5 384/1/5 389/1/5
f 394/3/5 389/3/5 393/3/5
f 395/1/5 384/1/5 394/1/5
f 396/1/5 392/1/5 391/1/5
f 397/3/5 394/3/5 393/3/5
f 398/1/5 396/1/5 391/1/5
f 398/1/5 397/1/5 396/1/5
f 399/1/5 397/1/5 398/1/5
f 400/3/5 394/3/5 397/3/5
f 400/1/5 397/1/5 399/1/5
f 401/3/5 394/3/5 400/3/5
f 402/3/5 400/3/5 399/3/5
f 403/3/5 400/3/5 402/3/5
f 404/3/6 405/3/6 407/3/6
f 407/3/6 405/3/6 408/3/6
f 406/3/6 407/3/6 410/3/6
f 410/3/6 407/3/6 411/3/6
f 408/3/6 409/3/6 412/3/6
f 412/3/6 409/3/6 413/3/6
f 411/3/6 412/3/6 414/3/6
f 414/3/6 412/3/6 415/3/6
f 414/1/6 415/1/6 417/1/6
f 417/1/6 415/1/6 418/1/6
f 416/3/6 417/3/6 421/3/6
f 421/3/6 417/3/6 422/3/6
f 418/1/6 419/1/6 423/1/6
f 423/1/6 419/1/6 424/1/6
f 420/3/6 421/3/6 427/3/6
f 427/3/6 421/3/6 428/3/6
f 424/1/6 425/1/6 429/1/6
f 429/1/6 425/1/6 430/1/6
f 426/3/6 427/3/6 432/3/6
f 432/3/6 427/3/6 433/3/6
f 432/1/6 433/1/6 434/1/6
f 432/1/6 434/1/6 435/1/6
f 430/1/6 431/1/6 438/1/6
f 435/1/6 436/1/6 439/1/6
f 432/1/6 435/1/6 439/1/6
f 439/1/6 436/1/6 440/1/6
f 437/1/6 438/1/6 441/1/6
f 438/1/6 431/1/6 441/1/6
f 441/1/6 431/1/6 442/1/6
f 440/1/6 436/1/6 443/1/6
f 437/1/6 441/1/6 446/1/6
f 443/1/6 444/1/6 447/1/6
f 440/1/6 443/1/6 447/1/6
f 447/1/6 444/1/6 448/1/6
f 445/3/6 446/3/6 449/3/6
f 446/1/6 441/1/6 449/1/6
f 449/1/6 441/1/6 450/1/6
f 448/1/6 444/1/6 451/1/6
f 445/3/6 449/3/6 452/3/6
f 448/1/6 451/1/6 453/1/6
f 451/1/6 452/1/6 453/1/6
f 453/1/6 452/1/6 454/1/6
f 452/3/6 449/3/6 455/3/6
f 454/1/6 452/1/6 455/1/6
f 455/3/6 449/3/6 456/3/6
f 454/3/6 455/3/6 457/3/6
f 457/3/6 455/3/6 458/3/6
f 459/1/6 460/1/6 462/1/6
f 462/1/6 460/1/6 463/1/6
f 461/1/6 462/1/6 466/1/6
f 463/3/6 464/3/6 467/3/6
f 462/3/6 463/3/6 467/3/6
f 467/3/6 464/3/6 468/3/6
f 465/1/6 466/1/6 470/1/6
f 466/1/6 462/1/6 470/1/6
f 462/3/6 467/3/6 470/3/6
f 468/1/6 469/1/6 471/1/6
f 470/3/6 467/3/6 471/3/6
f 467/1/6 468/1/6 471/1/6
f 470/1/6 471/1/6 472/1/6
f 471/1/6 469/1/6 472/1/6
f 472/1/6 469/1/6 473/1/6
f 465/1/6 470/1/6 474/1/6
f 470/1/6 472/1/6 474/1/6
f 474/1/6 472/1/6 475/1/6
f 474/3/6 475/3/6 476/3/6
f 476/3/6 475/3/6 477/3/6
f 475/1/6 472/1/6 478/1/6
f 477/3/6 475/3/6 478/3/6
f 472/3/6 473/3/6 479/3/6
f 478/1/6 472/1/6 479/1/6
f 473/1/6 469/1/6 480/1/6
f 479/3/6 473/3/6 480/3/6
f 480/1/6 469/1/6 481/1/6
f 477/1/6 478/1/6 482/1/6
f 478/3/6 479/3/6 483/3/6
f 482/1/6 478/1/6 483/1/6
f 479/1/6 480/1/6 484/1/6
f 483/3/6 479/3/6 484/3/6
f 484/1/6 480/1/6 485/1/6
f 483/3/6 484/3/6 486/3/6
f 486/3/6 484/3/6 487/3/6
