# MagicaVoxel @ Ephtracy

# group
o 

# material
mtllib hand1.mtl
usemtl palette

# normals
vn -1 0 0
vn 1 0 0
vn 0 0 1
vn 0 0 -1
vn 0 -1 0
vn 0 1 0

# texcoords
vt 0.990234 0.5
vt 0.994141 0.5

# verts
v -1.4 1.1 -7.45058e-08
v -1.4 1.1 -0.1
v -1.4 1.3 -7.45058e-08
v -1.4 1.3 -0.1
v -1.4 1.8 -7.45058e-08
v -1.4 1.8 -0.1
v -1.3 1.1 0.0999999
v -1.3 1.1 -7.45058e-08
v -1.3 1.1 -0.1
v -1.3 1.1 -0.2
v -1.3 1.2 -0.1
v -1.3 1.2 -0.2
v -1.3 1.3 -7.45058e-08
v -1.3 1.3 -0.1
v -1.3 1.8 0.0999999
v -1.3 1.8 -7.45058e-08
v -1.3 1.8 -0.1
v -1.3 1.9 -0.1
v -1.3 1.9 -0.2
v -1.3 2 -7.45058e-08
v -1.3 2 -0.1
v -1.2 1.8 0.0999999
v -1.2 1.8 -7.45058e-08
v -1.2 1.9 0.0999999
v -1.2 1.9 -7.45058e-08
v -1.2 1.9 -0.1
v -1.2 1.9 -0.2
v -1.2 2 -0.1
v -1.2 2 -0.2
v -0.9 1.8 0.0999999
v -0.9 1.8 -7.45058e-08
v -0.9 1.9 0.0999999
v -0.9 1.9 -7.45058e-08
v -0.9 1.9 -0.1
v -0.9 1.9 -0.2
v -0.9 2 -0.1
v -0.9 2 -0.2
v -0.8 1.1 -0.1
v -0.8 1.1 -0.2
v -0.8 1.3 -0.1
v -0.8 1.3 -0.2
v -0.8 1.6 0.0999999
v -0.8 1.6 -7.45058e-08
v -0.8 1.8 0.0999999
v -0.8 1.8 -7.45058e-08
v -0.8 1.8 -0.1
v -0.8 1.9 -7.45058e-08
v -0.8 1.9 -0.1
v -0.8 1.9 -0.2
v -0.8 2 -7.45058e-08
v -0.8 2 -0.1
v -0.7 1.1 0.0999999
v -0.7 1.1 -0.1
v -0.7 1.2 0.0999999
v -0.7 1.2 -7.45058e-08
v -0.7 1.5 0.0999999
v -0.7 1.5 -7.45058e-08
v -0.7 1.6 0.0999999
v -0.7 1.6 -7.45058e-08
v -0.7 1.8 -7.45058e-08
v -0.7 1.8 -0.1
v -0.6 1.2 0.0999999
v -0.6 1.2 -7.45058e-08
v -0.6 1.5 0.0999999
v -0.6 1.5 -7.45058e-08
v -1.3 1.1 0.0999999
v -1.3 1.8 0.0999999
v -1.2 1.8 0.0999999
v -1.2 1.9 0.0999999
v -0.9 1.8 0.0999999
v -0.9 1.9 0.0999999
v -0.8 1.6 0.0999999
v -0.8 1.8 0.0999999
v -0.7 1.1 0.0999999
v -0.7 1.2 0.0999999
v -0.7 1.5 0.0999999
v -0.7 1.6 0.0999999
v -0.6 1.2 0.0999999
v -0.6 1.5 0.0999999
v -1.4 1.1 -7.45058e-08
v -1.4 1.3 -7.45058e-08
v -1.4 1.8 -7.45058e-08
v -1.3 1.1 -7.45058e-08
v -1.3 1.3 -7.45058e-08
v -1.3 1.8 -7.45058e-08
v -1.3 2 -7.45058e-08
v -1.2 1.8 -7.45058e-08
v -1.2 1.9 -7.45058e-08
v -0.9 1.8 -7.45058e-08
v -0.9 1.9 -7.45058e-08
v -0.9 2 -7.45058e-08
v -0.8 1.6 -7.45058e-08
v -0.8 1.8 -7.45058e-08
v -0.8 1.9 -7.45058e-08
v -0.8 2 -7.45058e-08
v -0.7 1.6 -7.45058e-08
v -0.7 1.8 -7.45058e-08
v -0.7 1.2 -7.45058e-08
v -0.7 1.5 -7.45058e-08
v -0.6 1.2 -7.45058e-08
v -0.6 1.5 -7.45058e-08
v -1.4 1.1 -0.1
v -1.4 1.3 -0.1
v -1.4 1.8 -0.1
v -1.3 1.1 -0.1
v -1.3 1.2 -0.1
v -1.3 1.3 -0.1
v -1.3 1.8 -0.1
v -1.3 1.9 -0.1
v -1.3 2 -0.1
v -1.2 1.9 -0.1
v -1.2 2 -0.1
v -0.9 1.9 -0.1
v -0.9 2 -0.1
v -0.8 1.1 -0.1
v -0.8 1.3 -0.1
v -0.8 1.8 -0.1
v -0.8 1.9 -0.1
v -0.8 2 -0.1
v -0.7 1.1 -0.1
v -0.7 1.8 -0.1
v -1.3 1.1 -0.2
v -1.3 1.2 -0.2
v -1.3 1.9 -0.2
v -1.2 1.9 -0.2
v -1.2 2 -0.2
v -0.9 1.2 -0.2
v -0.9 1.3 -0.2
v -0.9 1.9 -0.2
v -0.9 2 -0.2
v -0.8 1.1 -0.2
v -0.8 1.3 -0.2
v -0.8 1.9 -0.2
v -1.3 1.1 0.0999999
v -0.7 1.1 0.0999999
v -1.4 1.1 -7.45058e-08
v -1.3 1.1 -7.45058e-08
v -1.4 1.1 -0.1
v -1.3 1.1 -0.1
v -0.8 1.1 -0.1
v -0.7 1.1 -0.1
v -1.3 1.1 -0.2
v -0.8 1.1 -0.2
v -0.7 1.2 0.0999999
v -0.6 1.2 0.0999999
v -0.7 1.2 -7.45058e-08
v -0.6 1.2 -7.45058e-08
v -0.7 1.5 0.0999999
v -0.6 1.5 0.0999999
v -0.7 1.5 -7.45058e-08
v -0.6 1.5 -7.45058e-08
v -0.8 1.6 0.0999999
v -0.7 1.6 0.0999999
v -0.8 1.6 -7.45058e-08
v -0.7 1.6 -7.45058e-08
v -1.3 1.8 0.0999999
v -1.2 1.8 0.0999999
v -0.9 1.8 0.0999999
v -0.8 1.8 0.0999999
v -1.4 1.8 -7.45058e-08
v -1.3 1.8 -7.45058e-08
v -1.2 1.8 -7.45058e-08
v -0.9 1.8 -7.45058e-08
v -0.8 1.8 -7.45058e-08
v -0.7 1.8 -7.45058e-08
v -1.4 1.8 -0.1
v -1.3 1.8 -0.1
v -0.8 1.8 -0.1
v -0.7 1.8 -0.1
v -1.2 1.9 0.0999999
v -0.9 1.9 0.0999999
v -1.2 1.9 -7.45058e-08
v -0.9 1.9 -7.45058e-08
v -1.3 1.9 -0.1
v -1.2 1.9 -0.1
v -0.9 1.9 -0.1
v -0.8 1.9 -0.1
v -1.3 1.9 -0.2
v -1.2 1.9 -0.2
v -0.9 1.9 -0.2
v -0.8 1.9 -0.2
v -1.3 2 -7.45058e-08
v -0.9 2 -7.45058e-08
v -0.8 2 -7.45058e-08
v -1.3 2 -0.1
v -1.2 2 -0.1
v -0.9 2 -0.1
v -0.8 2 -0.1
v -1.2 2 -0.2
v -0.9 2 -0.2

# faces
f 3/2/1 2/2/1 1/2/1
f 4/2/1 2/2/1 3/2/1
f 5/1/1 4/1/1 3/1/1
f 6/1/1 4/1/1 5/1/1
f 11/2/1 10/2/1 9/2/1
f 12/2/1 10/2/1 11/2/1
f 13/2/1 8/2/1 7/2/1
f 14/1/1 12/1/1 11/1/1
f 15/2/1 13/2/1 7/2/1
f 16/2/1 13/2/1 15/2/1
f 17/1/1 12/1/1 14/1/1
f 18/1/1 17/1/1 16/1/1
f 18/1/1 12/1/1 17/1/1
f 19/1/1 12/1/1 18/1/1
f 20/1/1 18/1/1 16/1/1
f 21/1/1 18/1/1 20/1/1
f 24/2/1 23/2/1 22/2/1
f 25/2/1 23/2/1 24/2/1
f 28/1/1 27/1/1 26/1/1
f 29/1/1 27/1/1 28/1/1
f 30/2/2 31/2/2 32/2/2
f 32/2/2 31/2/2 33/2/2
f 34/1/2 35/1/2 36/1/2
f 36/1/2 35/1/2 37/1/2
f 38/2/2 39/2/2 40/2/2
f 40/2/2 39/2/2 41/2/2
f 42/2/2 43/2/2 44/2/2
f 44/2/2 43/2/2 45/2/2
f 40/1/2 41/1/2 46/1/2
f 45/1/2 46/1/2 47/1/2
f 46/1/2 41/1/2 48/1/2
f 47/1/2 46/1/2 48/1/2
f 48/1/2 41/1/2 49/1/2
f 47/2/2 48/2/2 50/2/2
f 50/2/2 48/2/2 51/2/2
f 52/2/2 53/2/2 54/2/2
f 54/2/2 53/2/2 55/2/2
f 55/2/2 53/2/2 57/2/2
f 56/2/2 57/2/2 58/2/2
f 57/2/2 53/2/2 59/2/2
f 58/2/2 57/2/2 59/2/2
f 59/2/2 53/2/2 60/2/2
f 60/2/2 53/2/2 61/2/2
f 62/2/2 63/2/2 64/2/2
f 64/2/2 63/2/2 65/2/2
f 68/2/3 67/2/3 66/2/3
f 70/2/3 68/2/3 66/2/3
f 70/2/3 69/2/3 68/2/3
f 71/2/3 69/2/3 70/2/3
f 72/2/3 70/2/3 66/2/3
f 73/2/3 70/2/3 72/2/3
f 74/2/3 72/2/3 66/2/3
f 75/2/3 72/2/3 74/2/3
f 76/2/3 72/2/3 75/2/3
f 77/2/3 72/2/3 76/2/3
f 78/2/3 76/2/3 75/2/3
f 79/2/3 76/2/3 78/2/3
f 83/2/3 81/2/3 80/2/3
f 84/1/3 82/1/3 81/1/3
f 84/2/3 81/2/3 83/2/3
f 85/1/3 82/1/3 84/1/3
f 87/1/3 86/1/3 85/1/3
f 88/1/3 86/1/3 87/1/3
f 90/1/3 86/1/3 88/1/3
f 91/1/3 86/1/3 90/1/3
f 93/1/3 90/1/3 89/1/3
f 94/2/3 91/2/3 90/2/3
f 94/1/3 90/1/3 93/1/3
f 95/2/3 91/2/3 94/2/3
f 96/2/3 93/2/3 92/2/3
f 97/2/3 93/2/3 96/2/3
f 98/2/4 99/2/4 100/2/4
f 100/2/4 99/2/4 101/2/4
f 102/2/4 103/2/4 105/2/4
f 105/2/4 103/2/4 106/2/4
f 103/1/4 104/1/4 107/1/4
f 106/2/4 103/2/4 107/2/4
f 107/1/4 104/1/4 108/1/4
f 109/1/4 110/1/4 111/1/4
f 111/1/4 110/1/4 112/1/4
f 113/2/4 114/2/4 118/2/4
f 118/2/4 114/2/4 119/2/4
f 116/2/4 117/2/4 120/2/4
f 115/2/4 116/2/4 120/2/4
f 120/2/4 117/2/4 121/2/4
f 123/1/4 124/1/4 125/1/4
f 122/2/4 123/2/4 127/2/4
f 125/1/4 126/1/4 127/1/4
f 123/1/4 125/1/4 127/1/4
f 127/1/4 126/1/4 128/1/4
f 128/1/4 126/1/4 129/1/4
f 129/1/4 126/1/4 130/1/4
f 122/2/4 127/2/4 131/2/4
f 127/2/4 128/2/4 131/2/4
f 128/1/4 129/1/4 132/1/4
f 131/2/4 128/2/4 132/2/4
f 132/1/4 129/1/4 133/1/4
f 137/2/5 135/2/5 134/2/5
f 138/2/5 137/2/5 136/2/5
f 139/2/5 135/2/5 137/2/5
f 139/2/5 137/2/5 138/2/5
f 140/2/5 135/2/5 139/2/5
f 141/2/5 135/2/5 140/2/5
f 142/2/5 140/2/5 139/2/5
f 143/2/5 140/2/5 142/2/5
f 146/2/5 145/2/5 144/2/5
f 147/2/5 145/2/5 146/2/5
f 148/2/6 149/2/6 150/2/6
f 150/2/6 149/2/6 151/2/6
f 152/2/6 153/2/6 154/2/6
f 154/2/6 153/2/6 155/2/6
f 156/2/6 157/2/6 161/2/6
f 161/2/6 157/2/6 162/2/6
f 158/2/6 159/2/6 163/2/6
f 163/2/6 159/2/6 164/2/6
f 160/1/6 161/1/6 166/1/6
f 166/1/6 161/1/6 167/1/6
f 164/2/6 165/2/6 168/2/6
f 168/2/6 165/2/6 169/2/6
f 170/2/6 171/2/6 172/2/6
f 172/2/6 171/2/6 173/2/6
f 174/1/6 175/1/6 178/1/6
f 178/1/6 175/1/6 179/1/6
f 176/1/6 177/1/6 180/1/6
f 180/1/6 177/1/6 181/1/6
f 182/1/6 183/1/6 185/1/6
f 185/1/6 183/1/6 186/1/6
f 183/2/6 184/2/6 187/2/6
f 186/1/6 183/1/6 187/1/6
f 187/2/6 184/2/6 188/2/6
f 186/1/6 187/1/6 189/1/6
f 189/1/6 187/1/6 190/1/6
