# MagicaVoxel @ Ephtracy

# group
o 

# material
mtllib UndeadSwordMaster(Waist).mtl
usemtl palette

# normals
vn -1 0 0
vn 1 0 0
vn 0 0 1
vn 0 0 -1
vn 0 -1 0
vn 0 1 0

# texcoords
vt 0.982422 0.5
vt 0.994141 0.5

# verts
v -0.8 0.6 0.3
v -0.8 0.6 -0.1
v -0.8 0.7 0.5
v -0.8 0.7 0.3
v -0.8 0.7 -0.1
v -0.8 0.7 -0.3
v -0.8 0.8 0.6
v -0.8 0.8 0.5
v -0.8 0.8 -0.3
v -0.8 0.8 -0.4
v -0.8 0.9 0.6
v -0.8 0.9 -0.4
v -0.7 0.6 0.5
v -0.7 0.6 0.3
v -0.7 0.6 -0.1
v -0.7 0.6 -0.3
v -0.7 0.7 0.6
v -0.7 0.7 0.5
v -0.7 0.7 0.3
v -0.7 0.7 -0.1
v -0.7 0.7 -0.3
v -0.7 0.7 -0.4
v -0.7 0.8 0.6
v -0.7 0.8 0.5
v -0.7 0.8 -0.3
v -0.7 0.8 -0.4
v -0.6 0.6 0.7
v -0.6 0.6 0.5
v -0.6 0.6 -0.3
v -0.6 0.6 -0.4
v -0.6 0.7 0.6
v -0.6 0.7 0.5
v -0.6 0.7 -0.3
v -0.6 0.7 -0.4
v -0.6 0.7 -0.5
v -0.6 0.9 0.7
v -0.6 0.9 0.6
v -0.6 0.9 -0.4
v -0.6 0.9 -0.5
v -0.5 0.5 0.7
v -0.5 0.5 0.6
v -0.5 0.6 0.7
v -0.5 0.6 0.6
v -0.5 0.6 -0.4
v -0.5 0.6 -0.5
v -0.5 0.7 -0.4
v -0.5 0.7 -0.5
v -0.4 0.7 -0.5
v -0.4 0.7 -0.6
v -0.4 0.9 -0.5
v -0.4 0.9 -0.6
v -0.3 0.5 0.6
v -0.3 0.5 0.5
v -0.3 0.5 -0.3
v -0.3 0.5 -0.5
v -0.3 0.6 0.6
v -0.3 0.6 0.5
v -0.3 0.6 -0.3
v -0.3 0.6 -0.5
v -0.2 0.3 0.6
v -0.2 0.3 -0.5
v -0.2 0.5 0.6
v -0.2 0.5 0.5
v -0.2 0.5 -0.3
v -0.2 0.5 -0.5
v -0.2 0.6 0.5
v -0.2 0.6 -0.3
v -0.2 0.6 -0.5
v -0.2 0.6 -0.6
v -0.2 0.7 -0.5
v -0.2 0.7 -0.6
v -0.1 0.2 0.6
v -0.1 0.2 -0.5
v -0.1 0.3 0.6
v -0.1 0.3 -0.5
v 0.1 0.6 0.7
v 0.1 0.6 0.6
v 0.1 0.6 -0.5
v 0.1 0.6 -0.6
v 0.1 0.9 0.7
v 0.1 0.9 0.6
v 0.1 0.9 -0.5
v 0.1 0.9 -0.6
v 0.2 0.5 0.7
v 0.2 0.5 0.6
v 0.2 0.6 0.7
v 0.2 0.6 0.6
v -0.2 0.5 0.7
v -0.2 0.5 0.6
v -0.2 0.6 0.7
v -0.2 0.6 0.6
v -0.1 0.6 0.7
v -0.1 0.6 0.6
v -0.1 0.6 -0.5
v -0.1 0.6 -0.6
v -0.1 0.9 0.7
v -0.1 0.9 0.6
v -0.1 0.9 -0.5
v -0.1 0.9 -0.6
v 0.1 0.2 0.6
v 0.1 0.2 -0.5
v 0.1 0.3 0.6
v 0.1 0.3 -0.5
v 0.2 0.3 0.6
v 0.2 0.3 -0.5
v 0.2 0.5 0.6
v 0.2 0.5 0.5
v 0.2 0.5 -0.3
v 0.2 0.5 -0.5
v 0.2 0.6 0.5
v 0.2 0.6 -0.3
v 0.2 0.6 -0.5
v 0.2 0.6 -0.6
v 0.2 0.7 -0.5
v 0.2 0.7 -0.6
v 0.3 0.5 0.6
v 0.3 0.5 0.5
v 0.3 0.5 -0.3
v 0.3 0.5 -0.5
v 0.3 0.6 0.6
v 0.3 0.6 0.5
v 0.3 0.6 -0.3
v 0.3 0.6 -0.5
v 0.4 0.7 -0.5
v 0.4 0.7 -0.6
v 0.4 0.9 -0.5
v 0.4 0.9 -0.6
v 0.5 0.5 0.7
v 0.5 0.5 0.6
v 0.5 0.6 0.7
v 0.5 0.6 0.6
v 0.5 0.6 -0.4
v 0.5 0.6 -0.5
v 0.5 0.7 -0.4
v 0.5 0.7 -0.5
v 0.6 0.6 0.7
v 0.6 0.6 0.5
v 0.6 0.6 -0.3
v 0.6 0.6 -0.4
v 0.6 0.7 0.6
v 0.6 0.7 0.5
v 0.6 0.7 -0.3
v 0.6 0.7 -0.4
v 0.6 0.7 -0.5
v 0.6 0.9 0.7
v 0.6 0.9 0.6
v 0.6 0.9 -0.4
v 0.6 0.9 -0.5
v 0.7 0.6 0.5
v 0.7 0.6 0.3
v 0.7 0.6 -0.1
v 0.7 0.6 -0.3
v 0.7 0.7 0.6
v 0.7 0.7 0.5
v 0.7 0.7 0.3
v 0.7 0.7 -0.1
v 0.7 0.7 -0.3
v 0.7 0.7 -0.4
v 0.7 0.8 0.6
v 0.7 0.8 0.5
v 0.7 0.8 -0.3
v 0.7 0.8 -0.4
v 0.8 0.6 0.3
v 0.8 0.6 -0.1
v 0.8 0.7 0.5
v 0.8 0.7 0.3
v 0.8 0.7 -0.1
v 0.8 0.7 -0.3
v 0.8 0.8 0.6
v 0.8 0.8 0.5
v 0.8 0.8 -0.3
v 0.8 0.8 -0.4
v 0.8 0.9 0.6
v 0.8 0.9 -0.4
v -0.6 0.6 0.7
v -0.6 0.9 0.7
v -0.5 0.5 0.7
v -0.5 0.6 0.7
v -0.2 0.5 0.7
v -0.2 0.6 0.7
v -0.1 0.6 0.7
v -0.1 0.9 0.7
v 0.1 0.6 0.7
v 0.1 0.9 0.7
v 0.2 0.5 0.7
v 0.2 0.6 0.7
v 0.5 0.5 0.7
v 0.5 0.6 0.7
v 0.6 0.6 0.7
v 0.6 0.9 0.7
v -0.8 0.8 0.6
v -0.8 0.9 0.6
v -0.7 0.7 0.6
v -0.7 0.8 0.6
v -0.6 0.7 0.6
v -0.6 0.9 0.6
v -0.2 0.3 0.6
v -0.2 0.5 0.6
v -0.2 0.6 0.6
v -0.1 0.2 0.6
v -0.1 0.3 0.6
v -0.1 0.6 0.6
v -0.1 0.9 0.6
v 0.1 0.2 0.6
v 0.1 0.3 0.6
v 0.1 0.6 0.6
v 0.1 0.9 0.6
v 0.2 0.3 0.6
v 0.2 0.5 0.6
v 0.2 0.6 0.6
v 0.6 0.7 0.6
v 0.6 0.9 0.6
v 0.7 0.7 0.6
v 0.7 0.8 0.6
v 0.8 0.8 0.6
v 0.8 0.9 0.6
v -0.8 0.7 0.5
v -0.8 0.8 0.5
v -0.7 0.6 0.5
v -0.7 0.7 0.5
v -0.7 0.8 0.5
v -0.6 0.6 0.5
v -0.6 0.7 0.5
v 0.6 0.6 0.5
v 0.6 0.7 0.5
v 0.7 0.6 0.5
v 0.7 0.7 0.5
v 0.7 0.8 0.5
v 0.8 0.7 0.5
v 0.8 0.8 0.5
v -0.8 0.6 0.3
v -0.8 0.7 0.3
v -0.7 0.6 0.3
v -0.7 0.7 0.3
v 0.7 0.6 0.3
v 0.7 0.7 0.3
v 0.8 0.6 0.3
v 0.8 0.7 0.3
v -0.3 0.5 -0.3
v -0.3 0.6 -0.3
v -0.2 0.5 -0.3
v -0.2 0.6 -0.3
v 0.2 0.5 -0.3
v 0.2 0.6 -0.3
v 0.3 0.5 -0.3
v 0.3 0.6 -0.3
v -0.5 0.5 0.6
v -0.5 0.6 0.6
v -0.3 0.5 0.6
v -0.3 0.6 0.6
v 0.3 0.5 0.6
v 0.3 0.6 0.6
v 0.5 0.5 0.6
v 0.5 0.6 0.6
v -0.3 0.5 0.5
v -0.3 0.6 0.5
v -0.2 0.5 0.5
v -0.2 0.6 0.5
v 0.2 0.5 0.5
v 0.2 0.6 0.5
v 0.3 0.5 0.5
v 0.3 0.6 0.5
v -0.8 0.6 -0.1
v -0.8 0.7 -0.1
v -0.7 0.6 -0.1
v -0.7 0.7 -0.1
v 0.7 0.6 -0.1
v 0.7 0.7 -0.1
v 0.8 0.6 -0.1
v 0.8 0.7 -0.1
v -0.8 0.7 -0.3
v -0.8 0.8 -0.3
v -0.7 0.6 -0.3
v -0.7 0.7 -0.3
v -0.7 0.8 -0.3
v -0.6 0.6 -0.3
v -0.6 0.7 -0.3
v 0.6 0.6 -0.3
v 0.6 0.7 -0.3
v 0.7 0.6 -0.3
v 0.7 0.7 -0.3
v 0.7 0.8 -0.3
v 0.8 0.7 -0.3
v 0.8 0.8 -0.3
v -0.8 0.8 -0.4
v -0.8 0.9 -0.4
v -0.7 0.7 -0.4
v -0.7 0.8 -0.4
v -0.6 0.6 -0.4
v -0.6 0.7 -0.4
v -0.6 0.9 -0.4
v -0.5 0.6 -0.4
v -0.5 0.7 -0.4
v 0.5 0.6 -0.4
v 0.5 0.7 -0.4
v 0.6 0.6 -0.4
v 0.6 0.7 -0.4
v 0.6 0.9 -0.4
v 0.7 0.7 -0.4
v 0.7 0.8 -0.4
v 0.8 0.8 -0.4
v 0.8 0.9 -0.4
v -0.6 0.7 -0.5
v -0.6 0.9 -0.5
v -0.5 0.6 -0.5
v -0.5 0.7 -0.5
v -0.4 0.7 -0.5
v -0.4 0.9 -0.5
v -0.3 0.5 -0.5
v -0.3 0.6 -0.5
v -0.2 0.3 -0.5
v -0.2 0.5 -0.5
v -0.2 0.6 -0.5
v -0.2 0.7 -0.5
v -0.1 0.2 -0.5
v -0.1 0.3 -0.5
v -0.1 0.6 -0.5
v -0.1 0.9 -0.5
v 0.1 0.2 -0.5
v 0.1 0.3 -0.5
v 0.1 0.6 -0.5
v 0.1 0.9 -0.5
v 0.2 0.3 -0.5
v 0.2 0.5 -0.5
v 0.2 0.6 -0.5
v 0.2 0.7 -0.5
v 0.3 0.5 -0.5
v 0.3 0.6 -0.5
v 0.4 0.7 -0.5
v 0.4 0.9 -0.5
v 0.5 0.6 -0.5
v 0.5 0.7 -0.5
v 0.6 0.7 -0.5
v 0.6 0.9 -0.5
v -0.4 0.7 -0.6
v -0.4 0.9 -0.6
v -0.2 0.6 -0.6
v -0.2 0.7 -0.6
v -0.1 0.6 -0.6
v -0.1 0.9 -0.6
v 0.1 0.6 -0.6
v 0.1 0.9 -0.6
v 0.2 0.6 -0.6
v 0.2 0.7 -0.6
v 0.4 0.7 -0.6
v 0.4 0.9 -0.6
v -0.1 0.2 0.6
v 0.1 0.2 0.6
v -0.1 0.2 -0.5
v 0.1 0.2 -0.5
v -0.2 0.3 0.6
v -0.1 0.3 0.6
v 0.1 0.3 0.6
v 0.2 0.3 0.6
v -0.2 0.3 -0.5
v -0.1 0.3 -0.5
v 0.1 0.3 -0.5
v 0.2 0.3 -0.5
v -0.5 0.5 0.7
v -0.2 0.5 0.7
v 0.2 0.5 0.7
v 0.5 0.5 0.7
v -0.5 0.5 0.6
v -0.3 0.5 0.6
v -0.2 0.5 0.6
v 0.2 0.5 0.6
v 0.3 0.5 0.6
v 0.5 0.5 0.6
v -0.3 0.5 0.5
v -0.2 0.5 0.5
v 0.2 0.5 0.5
v 0.3 0.5 0.5
v -0.3 0.5 -0.3
v -0.2 0.5 -0.3
v 0.2 0.5 -0.3
v 0.3 0.5 -0.3
v -0.3 0.5 -0.5
v -0.2 0.5 -0.5
v 0.2 0.5 -0.5
v 0.3 0.5 -0.5
v -0.6 0.6 0.7
v -0.5 0.6 0.7
v -0.2 0.6 0.7
v -0.1 0.6 0.7
v 0.1 0.6 0.7
v 0.2 0.6 0.7
v 0.5 0.6 0.7
v 0.6 0.6 0.7
v -0.5 0.6 0.6
v -0.3 0.6 0.6
v -0.2 0.6 0.6
v -0.1 0.6 0.6
v 0.1 0.6 0.6
v 0.2 0.6 0.6
v 0.3 0.6 0.6
v 0.5 0.6 0.6
v -0.7 0.6 0.5
v -0.6 0.6 0.5
v -0.3 0.6 0.5
v -0.2 0.6 0.5
v 0.2 0.6 0.5
v 0.3 0.6 0.5
v 0.6 0.6 0.5
v 0.7 0.6 0.5
v -0.8 0.6 0.3
v -0.7 0.6 0.3
v 0.7 0.6 0.3
v 0.8 0.6 0.3
v -0.8 0.6 -0.1
v -0.7 0.6 -0.1
v 0.7 0.6 -0.1
v 0.8 0.6 -0.1
v -0.7 0.6 -0.3
v -0.6 0.6 -0.3
v -0.3 0.6 -0.3
v -0.2 0.6 -0.3
v 0.2 0.6 -0.3
v 0.3 0.6 -0.3
v 0.6 0.6 -0.3
v 0.7 0.6 -0.3
v -0.6 0.6 -0.4
v -0.5 0.6 -0.4
v 0.5 0.6 -0.4
v 0.6 0.6 -0.4
v -0.5 0.6 -0.5
v -0.3 0.6 -0.5
v -0.2 0.6 -0.5
v -0.1 0.6 -0.5
v 0.1 0.6 -0.5
v 0.2 0.6 -0.5
v 0.3 0.6 -0.5
v 0.5 0.6 -0.5
v -0.2 0.6 -0.6
v -0.1 0.6 -0.6
v 0.1 0.6 -0.6
v 0.2 0.6 -0.6
v -0.7 0.7 0.6
v -0.6 0.7 0.6
v 0.6 0.7 0.6
v 0.7 0.7 0.6
v -0.8 0.7 0.5
v -0.7 0.7 0.5
v -0.6 0.7 0.5
v 0.6 0.7 0.5
v 0.7 0.7 0.5
v 0.8 0.7 0.5
v -0.8 0.7 0.3
v -0.7 0.7 0.3
v 0.7 0.7 0.3
v 0.8 0.7 0.3
v -0.8 0.7 -0.1
v -0.7 0.7 -0.1
v 0.7 0.7 -0.1
v 0.8 0.7 -0.1
v -0.8 0.7 -0.3
v -0.7 0.7 -0.3
v -0.6 0.7 -0.3
v 0.6 0.7 -0.3
v 0.7 0.7 -0.3
v 0.8 0.7 -0.3
v -0.7 0.7 -0.4
v -0.6 0.7 -0.4
v -0.5 0.7 -0.4
v 0.5 0.7 -0.4
v 0.6 0.7 -0.4
v 0.7 0.7 -0.4
v -0.6 0.7 -0.5
v -0.5 0.7 -0.5
v -0.4 0.7 -0.5
v -0.2 0.7 -0.5
v 0.2 0.7 -0.5
v 0.4 0.7 -0.5
v 0.5 0.7 -0.5
v 0.6 0.7 -0.5
v -0.4 0.7 -0.6
v -0.2 0.7 -0.6
v 0.2 0.7 -0.6
v 0.4 0.7 -0.6
v -0.8 0.8 0.6
v -0.7 0.8 0.6
v 0.7 0.8 0.6
v 0.8 0.8 0.6
v -0.8 0.8 0.5
v -0.7 0.8 0.5
v 0.7 0.8 0.5
v 0.8 0.8 0.5
v -0.8 0.8 -0.3
v -0.7 0.8 -0.3
v 0.7 0.8 -0.3
v 0.8 0.8 -0.3
v -0.8 0.8 -0.4
v -0.7 0.8 -0.4
v 0.7 0.8 -0.4
v 0.8 0.8 -0.4
v -0.6 0.9 0.7
v -0.1 0.9 0.7
v 0.1 0.9 0.7
v 0.6 0.9 0.7
v -0.8 0.9 0.6
v -0.6 0.9 0.6
v -0.1 0.9 0.6
v 0.1 0.9 0.6
v 0.6 0.9 0.6
v 0.8 0.9 0.6
v -0.8 0.9 -0.4
v -0.6 0.9 -0.4
v 0.6 0.9 -0.4
v 0.8 0.9 -0.4
v -0.6 0.9 -0.5
v -0.4 0.9 -0.5
v -0.1 0.9 -0.5
v 0.1 0.9 -0.5
v 0.4 0.9 -0.5
v 0.6 0.9 -0.5
v -0.4 0.9 -0.6
v -0.1 0.9 -0.6
v 0.1 0.9 -0.6
v 0.4 0.9 -0.6

# faces
f 4/2/1 2/2/1 1/2/1
f 5/2/1 2/2/1 4/2/1
f 8/2/1 4/2/1 3/2/1
f 8/2/1 6/2/1 5/2/1
f 8/2/1 5/2/1 4/2/1
f 9/2/1 6/2/1 8/2/1
f 11/2/1 8/2/1 7/2/1
f 11/2/1 10/2/1 9/2/1
f 11/2/1 9/2/1 8/2/1
f 12/2/1 10/2/1 11/2/1
f 18/2/1 14/2/1 13/2/1
f 19/2/1 14/2/1 18/2/1
f 20/2/1 16/2/1 15/2/1
f 21/2/1 16/2/1 20/2/1
f 23/2/1 18/2/1 17/2/1
f 24/2/1 18/2/1 23/2/1
f 25/2/1 22/2/1 21/2/1
f 26/2/1 22/2/1 25/2/1
f 31/2/1 28/2/1 27/2/1
f 32/2/1 28/2/1 31/2/1
f 33/2/1 30/2/1 29/2/1
f 34/2/1 30/2/1 33/2/1
f 36/2/1 31/2/1 27/2/1
f 37/2/1 31/2/1 36/2/1
f 38/2/1 35/2/1 34/2/1
f 39/2/1 35/2/1 38/2/1
f 42/2/1 41/2/1 40/2/1
f 43/2/1 41/2/1 42/2/1
f 46/2/1 45/2/1 44/2/1
f 47/2/1 45/2/1 46/2/1
f 50/1/1 49/1/1 48/1/1
f 51/1/1 49/1/1 50/1/1
f 56/2/1 53/2/1 52/2/1
f 57/2/1 53/2/1 56/2/1
f 58/2/1 55/2/1 54/2/1
f 59/2/1 55/2/1 58/2/1
f 62/2/1 61/2/1 60/2/1
f 63/2/1 61/2/1 62/2/1
f 64/2/1 61/2/1 63/2/1
f 65/2/1 61/2/1 64/2/1
f 66/2/1 64/2/1 63/2/1
f 67/2/1 64/2/1 66/2/1
f 70/1/1 69/1/1 68/1/1
f 71/1/1 69/1/1 70/1/1
f 74/2/1 73/2/1 72/2/1
f 75/2/1 73/2/1 74/2/1
f 80/2/1 77/2/1 76/2/1
f 81/2/1 77/2/1 80/2/1
f 82/1/1 79/1/1 78/1/1
f 83/1/1 79/1/1 82/1/1
f 86/2/1 85/2/1 84/2/1
f 87/2/1 85/2/1 86/2/1
f 88/2/2 89/2/2 90/2/2
f 90/2/2 89/2/2 91/2/2
f 92/2/2 93/2/2 96/2/2
f 96/2/2 93/2/2 97/2/2
f 94/1/2 95/1/2 98/1/2
f 98/1/2 95/1/2 99/1/2
f 100/2/2 101/2/2 102/2/2
f 102/2/2 101/2/2 103/2/2
f 104/2/2 105/2/2 106/2/2
f 106/2/2 105/2/2 107/2/2
f 107/2/2 105/2/2 108/2/2
f 108/2/2 105/2/2 109/2/2
f 107/2/2 108/2/2 110/2/2
f 110/2/2 108/2/2 111/2/2
f 112/1/2 113/1/2 114/1/2
f 114/1/2 113/1/2 115/1/2
f 116/2/2 117/2/2 120/2/2
f 120/2/2 117/2/2 121/2/2
f 118/2/2 119/2/2 122/2/2
f 122/2/2 119/2/2 123/2/2
f 124/1/2 125/1/2 126/1/2
f 126/1/2 125/1/2 127/1/2
f 128/2/2 129/2/2 130/2/2
f 130/2/2 129/2/2 131/2/2
f 132/2/2 133/2/2 134/2/2
f 134/2/2 133/2/2 135/2/2
f 136/2/2 137/2/2 140/2/2
f 140/2/2 137/2/2 141/2/2
f 138/2/2 139/2/2 142/2/2
f 142/2/2 139/2/2 143/2/2
f 136/2/2 140/2/2 145/2/2
f 145/2/2 140/2/2 146/2/2
f 143/2/2 144/2/2 147/2/2
f 147/2/2 144/2/2 148/2/2
f 149/2/2 150/2/2 154/2/2
f 154/2/2 150/2/2 155/2/2
f 151/2/2 152/2/2 156/2/2
f 156/2/2 152/2/2 157/2/2
f 153/2/2 154/2/2 159/2/2
f 159/2/2 154/2/2 160/2/2
f 157/2/2 158/2/2 161/2/2
f 161/2/2 158/2/2 162/2/2
f 163/2/2 164/2/2 166/2/2
f 166/2/2 164/2/2 167/2/2
f 165/2/2 166/2/2 170/2/2
f 167/2/2 168/2/2 170/2/2
f 166/2/2 167/2/2 170/2/2
f 170/2/2 168/2/2 171/2/2
f 169/2/2 170/2/2 173/2/2
f 171/2/2 172/2/2 173/2/2
f 170/2/2 171/2/2 173/2/2
f 173/2/2 172/2/2 174/2/2
f 178/2/3 176/2/3 175/2/3
f 179/2/3 178/2/3 177/2/3
f 180/2/3 176/2/3 178/2/3
f 180/2/3 178/2/3 179/2/3
f 181/2/3 176/2/3 180/2/3
f 182/2/3 176/2/3 181/2/3
f 186/2/3 184/2/3 183/2/3
f 187/2/3 186/2/3 185/2/3
f 188/2/3 184/2/3 186/2/3
f 188/2/3 186/2/3 187/2/3
f 189/2/3 184/2/3 188/2/3
f 190/2/3 184/2/3 189/2/3
f 194/2/3 192/2/3 191/2/3
f 195/2/3 194/2/3 193/2/3
f 196/2/3 192/2/3 194/2/3
f 196/2/3 194/2/3 195/2/3
f 201/2/3 198/2/3 197/2/3
f 201/2/3 199/2/3 198/2/3
f 202/2/3 199/2/3 201/2/3
f 204/2/3 201/2/3 200/2/3
f 204/2/3 203/2/3 202/2/3
f 204/2/3 202/2/3 201/2/3
f 205/2/3 203/2/3 204/2/3
f 206/2/3 203/2/3 205/2/3
f 207/2/3 203/2/3 206/2/3
f 208/2/3 206/2/3 205/2/3
f 209/2/3 206/2/3 208/2/3
f 210/2/3 206/2/3 209/2/3
f 213/2/3 212/2/3 211/2/3
f 214/2/3 212/2/3 213/2/3
f 215/2/3 212/2/3 214/2/3
f 216/2/3 212/2/3 215/2/3
f 220/2/3 218/2/3 217/2/3
f 221/2/3 218/2/3 220/2/3
f 222/2/3 220/2/3 219/2/3
f 223/2/3 220/2/3 222/2/3
f 226/2/3 225/2/3 224/2/3
f 227/2/3 225/2/3 226/2/3
f 229/2/3 228/2/3 227/2/3
f 230/2/3 228/2/3 229/2/3
f 233/2/3 232/2/3 231/2/3
f 234/2/3 232/2/3 233/2/3
f 237/2/3 236/2/3 235/2/3
f 238/2/3 236/2/3 237/2/3
f 241/2/3 240/2/3 239/2/3
f 242/2/3 240/2/3 241/2/3
f 245/2/3 244/2/3 243/2/3
f 246/2/3 244/2/3 245/2/3
f 247/2/4 248/2/4 249/2/4
f 249/2/4 248/2/4 250/2/4
f 251/2/4 252/2/4 253/2/4
f 253/2/4 252/2/4 254/2/4
f 255/2/4 256/2/4 257/2/4
f 257/2/4 256/2/4 258/2/4
f 259/2/4 260/2/4 261/2/4
f 261/2/4 260/2/4 262/2/4
f 263/2/4 264/2/4 265/2/4
f 265/2/4 264/2/4 266/2/4
f 267/2/4 268/2/4 269/2/4
f 269/2/4 268/2/4 270/2/4
f 271/2/4 272/2/4 274/2/4
f 274/2/4 272/2/4 275/2/4
f 273/2/4 274/2/4 276/2/4
f 276/2/4 274/2/4 277/2/4
f 278/2/4 279/2/4 280/2/4
f 280/2/4 279/2/4 281/2/4
f 281/2/4 282/2/4 283/2/4
f 283/2/4 282/2/4 284/2/4
f 285/2/4 286/2/4 288/2/4
f 287/2/4 288/2/4 290/2/4
f 288/2/4 286/2/4 291/2/4
f 290/2/4 288/2/4 291/2/4
f 289/2/4 290/2/4 292/2/4
f 292/2/4 290/2/4 293/2/4
f 294/2/4 295/2/4 296/2/4
f 296/2/4 295/2/4 297/2/4
f 297/2/4 298/2/4 299/2/4
f 299/2/4 298/2/4 300/2/4
f 300/2/4 298/2/4 301/2/4
f 301/2/4 298/2/4 302/2/4
f 303/2/4 304/2/4 306/2/4
f 306/2/4 304/2/4 307/2/4
f 305/2/4 306/2/4 307/2/4
f 307/2/4 304/2/4 308/2/4
f 305/2/4 307/2/4 310/2/4
f 309/2/4 310/2/4 312/2/4
f 310/2/4 307/2/4 313/2/4
f 312/2/4 310/2/4 313/2/4
f 313/2/4 307/2/4 314/2/4
f 311/2/4 312/2/4 316/2/4
f 312/2/4 313/2/4 316/2/4
f 316/2/4 313/2/4 317/2/4
f 316/2/4 317/2/4 319/2/4
f 317/2/4 318/2/4 319/2/4
f 315/2/4 316/2/4 319/2/4
f 319/2/4 318/2/4 320/2/4
f 320/2/4 318/2/4 321/2/4
f 321/2/4 318/2/4 322/2/4
f 320/2/4 321/2/4 323/2/4
f 323/2/4 321/2/4 324/2/4
f 324/2/4 321/2/4 325/2/4
f 325/2/4 326/2/4 327/2/4
f 324/2/4 325/2/4 327/2/4
f 327/2/4 326/2/4 328/2/4
f 328/2/4 326/2/4 329/2/4
f 328/2/4 329/2/4 331/2/4
f 329/2/4 330/2/4 331/2/4
f 331/2/4 330/2/4 332/2/4
f 332/2/4 330/2/4 333/2/4
f 333/2/4 330/2/4 334/2/4
f 335/1/4 336/1/4 338/1/4
f 337/1/4 338/1/4 339/1/4
f 338/1/4 336/1/4 340/1/4
f 339/1/4 338/1/4 340/1/4
f 341/1/4 342/1/4 343/1/4
f 343/1/4 342/1/4 344/1/4
f 344/1/4 342/1/4 345/1/4
f 345/1/4 342/1/4 346/1/4
f 349/2/5 348/2/5 347/2/5
f 350/2/5 348/2/5 349/2/5
f 355/2/5 352/2/5 351/2/5
f 356/2/5 352/2/5 355/2/5
f 357/2/5 354/2/5 353/2/5
f 358/2/5 354/2/5 357/2/5
f 363/2/5 360/2/5 359/2/5
f 364/2/5 360/2/5 363/2/5
f 365/2/5 360/2/5 364/2/5
f 366/2/5 362/2/5 361/2/5
f 367/2/5 362/2/5 366/2/5
f 368/2/5 362/2/5 367/2/5
f 369/2/5 365/2/5 364/2/5
f 370/2/5 365/2/5 369/2/5
f 371/2/5 367/2/5 366/2/5
f 372/2/5 367/2/5 371/2/5
f 377/2/5 374/2/5 373/2/5
f 378/2/5 374/2/5 377/2/5
f 379/2/5 376/2/5 375/2/5
f 380/2/5 376/2/5 379/2/5
f 389/2/5 382/2/5 381/2/5
f 391/2/5 384/2/5 383/2/5
f 392/2/5 384/2/5 391/2/5
f 393/2/5 386/2/5 385/2/5
f 394/2/5 386/2/5 393/2/5
f 396/2/5 388/2/5 387/2/5
f 398/2/5 390/2/5 389/2/5
f 398/2/5 389/2/5 381/2/5
f 399/2/5 390/2/5 398/2/5
f 402/2/5 396/2/5 395/2/5
f 403/2/5 388/2/5 396/2/5
f 403/2/5 396/2/5 402/2/5
f 406/2/5 400/2/5 399/2/5
f 406/2/5 398/2/5 397/2/5
f 406/2/5 399/2/5 398/2/5
f 407/2/5 404/2/5 403/2/5
f 407/2/5 402/2/5 401/2/5
f 407/2/5 403/2/5 402/2/5
f 409/2/5 406/2/5 405/2/5
f 410/2/5 400/2/5 406/2/5
f 410/2/5 406/2/5 409/2/5
f 411/2/5 408/2/5 407/2/5
f 411/2/5 407/2/5 401/2/5
f 412/2/5 408/2/5 411/2/5
f 413/2/5 400/2/5 410/2/5
f 414/2/5 400/2/5 413/2/5
f 415/2/5 400/2/5 414/2/5
f 416/2/5 400/2/5 415/2/5
f 417/2/5 411/2/5 401/2/5
f 418/2/5 411/2/5 417/2/5
f 419/2/5 411/2/5 418/2/5
f 420/2/5 411/2/5 419/2/5
f 421/2/5 415/2/5 414/2/5
f 422/2/5 415/2/5 421/2/5
f 423/2/5 419/2/5 418/2/5
f 424/2/5 419/2/5 423/2/5
f 425/2/5 415/2/5 422/2/5
f 426/2/5 415/2/5 425/2/5
f 431/2/5 423/2/5 418/2/5
f 432/2/5 423/2/5 431/2/5
f 433/1/5 428/1/5 427/1/5
f 434/1/5 428/1/5 433/1/5
f 435/1/5 430/1/5 429/1/5
f 436/1/5 430/1/5 435/1/5
f 442/2/5 438/2/5 437/2/5
f 443/2/5 438/2/5 442/2/5
f 444/2/5 440/2/5 439/2/5
f 445/2/5 440/2/5 444/2/5
f 447/2/5 442/2/5 441/2/5
f 448/2/5 442/2/5 447/2/5
f 449/2/5 446/2/5 445/2/5
f 450/2/5 446/2/5 449/2/5
f 455/2/5 452/2/5 451/2/5
f 456/2/5 452/2/5 455/2/5
f 459/2/5 454/2/5 453/2/5
f 460/2/5 454/2/5 459/2/5
f 461/2/5 457/2/5 456/2/5
f 462/2/5 457/2/5 461/2/5
f 465/2/5 459/2/5 458/2/5
f 466/2/5 459/2/5 465/2/5
f 467/2/5 463/2/5 462/2/5
f 468/2/5 463/2/5 467/2/5
f 473/2/5 465/2/5 464/2/5
f 474/2/5 465/2/5 473/2/5
f 475/1/5 470/1/5 469/1/5
f 476/1/5 470/1/5 475/1/5
f 477/1/5 472/1/5 471/1/5
f 478/1/5 472/1/5 477/1/5
f 483/2/5 480/2/5 479/2/5
f 484/2/5 480/2/5 483/2/5
f 485/2/5 482/2/5 481/2/5
f 486/2/5 482/2/5 485/2/5
f 491/2/5 488/2/5 487/2/5
f 492/2/5 488/2/5 491/2/5
f 493/2/5 490/2/5 489/2/5
f 494/2/5 490/2/5 493/2/5
f 495/2/6 496/2/6 500/2/6
f 500/2/6 496/2/6 501/2/6
f 497/2/6 498/2/6 502/2/6
f 502/2/6 498/2/6 503/2/6
f 500/2/6 501/2/6 505/2/6
f 503/2/6 504/2/6 505/2/6
f 502/2/6 503/2/6 505/2/6
f 501/2/6 502/2/6 505/2/6
f 499/2/6 500/2/6 505/2/6
f 505/2/6 504/2/6 506/2/6
f 506/2/6 504/2/6 507/2/6
f 507/2/6 504/2/6 508/2/6
f 506/2/6 507/2/6 509/2/6
f 509/2/6 507/2/6 510/2/6
f 510/2/6 507/2/6 511/2/6
f 511/2/6 507/2/6 512/2/6
f 512/2/6 507/2/6 513/2/6
f 513/2/6 507/2/6 514/2/6
f 510/1/6 511/1/6 515/1/6
f 515/1/6 511/1/6 516/1/6
f 512/1/6 513/1/6 517/1/6
f 517/1/6 513/1/6 518/1/6
