# MagicaVoxel @ Ephtracy

# group
o 

# material
mtllib UndeadSwordMaster(Thigh).mtl
usemtl palette

# normals
vn -1 0 0
vn 1 0 0
vn 0 0 1
vn 0 0 -1
vn 0 -1 0
vn 0 1 0

# texcoords
vt 0.970703 0.5
vt 0.974609 0.5
vt 0.978516 0.5
vt 0.982422 0.5
vt 0.986328 0.5
vt 0.994141 0.5

# verts
v -0.4 0.2 0.2
v -0.4 0.2 0
v -0.4 0.5 0
v -0.4 0.5 -0.1
v -0.4 0.5 -0.2
v -0.4 1.4 -0.1
v -0.4 1.4 -0.2
v -0.4 1.6 0.2
v -0.4 1.6 -0.1
v -0.3 -0.1 0.2
v -0.3 -0.1 -0.2
v -0.3 0.2 0.2
v -0.3 0.2 0
v -0.3 0.4 -0.2
v -0.3 0.4 -0.3
v -0.3 0.5 0
v -0.3 0.5 -0.1
v -0.3 0.5 -0.2
v -0.3 0.5 -0.3
v -0.3 0.7 0.3
v -0.3 0.7 0.2
v -0.3 1.4 -0.1
v -0.3 1.4 -0.2
v -0.3 1.4 -0.3
v -0.3 1.5 -0.2
v -0.3 1.5 -0.3
v -0.3 1.6 0.2
v -0.3 1.6 -0.1
v -0.3 1.7 0.3
v -0.3 1.7 -0.2
v -0.2 -0.1 -0.2
v -0.2 -0.1 -0.3
v -0.2 0.1 0.3
v -0.2 0.1 0.2
v -0.2 0.3 -0.3
v -0.2 0.3 -0.4
v -0.2 0.4 0.4
v -0.2 0.4 0.3
v -0.2 0.4 -0.2
v -0.2 0.4 -0.3
v -0.2 0.4 -0.4
v -0.2 0.5 -0.3
v -0.2 0.6 -0.3
v -0.2 0.6 -0.4
v -0.2 0.7 0.3
v -0.2 0.7 0.2
v -0.2 1.3 -0.3
v -0.2 1.3 -0.4
v -0.2 1.4 -0.3
v -0.2 1.5 -0.2
v -0.2 1.5 -0.3
v -0.2 1.5 -0.4
v -0.2 1.6 -0.3
v -0.2 1.6 -0.4
v -0.2 1.7 0.4
v -0.2 1.7 0.3
v -0.2 1.7 -0.2
v -0.2 1.7 -0.3
v -0.1 0.2 0.4
v -0.1 0.2 0.3
v -0.1 0.4 0.4
v -0.1 0.4 0.3
v 0.1 -0.1 0.2
v 0.1 -0.1 0
v 0.1 0 0.2
v 0.1 0 0
v -0.1 -0.1 0.2
v -0.1 -0.1 0
v -0.1 0 0.2
v -0.1 0 0
v 0.1 0.2 0.4
v 0.1 0.2 0.3
v 0.1 0.4 0.4
v 0.1 0.4 0.3
v 0.2 -0.1 -0.2
v 0.2 -0.1 -0.3
v 0.2 0.1 0.3
v 0.2 0.1 0.2
v 0.2 0.3 -0.3
v 0.2 0.3 -0.4
v 0.2 0.4 0.4
v 0.2 0.4 0.3
v 0.2 0.4 -0.2
v 0.2 0.4 -0.3
v 0.2 0.4 -0.4
v 0.2 0.5 -0.3
v 0.2 0.6 -0.3
v 0.2 0.6 -0.4
v 0.2 0.7 0.3
v 0.2 0.7 0.2
v 0.2 1.3 -0.3
v 0.2 1.3 -0.4
v 0.2 1.4 -0.3
v 0.2 1.5 -0.2
v 0.2 1.5 -0.3
v 0.2 1.5 -0.4
v 0.2 1.6 -0.3
v 0.2 1.6 -0.4
v 0.2 1.7 0.4
v 0.2 1.7 0.3
v 0.2 1.7 -0.2
v 0.2 1.7 -0.3
v 0.3 -0.1 0.2
v 0.3 -0.1 -0.2
v 0.3 0.2 0.2
v 0.3 0.2 0
v 0.3 0.4 -0.2
v 0.3 0.4 -0.3
v 0.3 0.5 0
v 0.3 0.5 -0.1
v 0.3 0.5 -0.2
v 0.3 0.5 -0.3
v 0.3 0.7 0.3
v 0.3 0.7 0.2
v 0.3 1.4 -0.1
v 0.3 1.4 -0.2
v 0.3 1.4 -0.3
v 0.3 1.5 -0.2
v 0.3 1.5 -0.3
v 0.3 1.6 0.2
v 0.3 1.6 -0.1
v 0.3 1.7 0.3
v 0.3 1.7 -0.2
v 0.4 0.2 0.2
v 0.4 0.2 0
v 0.4 0.5 0
v 0.4 0.5 -0.1
v 0.4 0.5 -0.2
v 0.4 1.4 -0.1
v 0.4 1.4 -0.2
v 0.4 1.6 0.2
v 0.4 1.6 -0.1
v -0.2 0.4 0.4
v -0.2 1.7 0.4
v -0.1 0.2 0.4
v -0.1 0.4 0.4
v 0.1 0.2 0.4
v 0.1 0.4 0.4
v 0.2 0.4 0.4
v 0.2 1.7 0.4
v -0.3 0.7 0.3
v -0.3 1.7 0.3
v -0.2 0.1 0.3
v -0.2 0.4 0.3
v -0.2 0.7 0.3
v -0.2 1.7 0.3
v -0.1 0.2 0.3
v -0.1 0.4 0.3
v 0.1 0.2 0.3
v 0.1 0.4 0.3
v 0.2 0.1 0.3
v 0.2 0.4 0.3
v 0.2 0.7 0.3
v 0.2 1.7 0.3
v 0.3 0.7 0.3
v 0.3 1.7 0.3
v -0.4 0.2 0.2
v -0.4 1.6 0.2
v -0.3 -0.1 0.2
v -0.3 0.2 0.2
v -0.3 0.7 0.2
v -0.3 1.6 0.2
v -0.2 0.1 0.2
v -0.2 0.7 0.2
v -0.1 -0.1 0.2
v -0.1 0 0.2
v 0.1 -0.1 0.2
v 0.1 0 0.2
v 0.2 0.1 0.2
v 0.2 0.7 0.2
v 0.3 -0.1 0.2
v 0.3 0.2 0.2
v 0.3 0.7 0.2
v 0.3 1.6 0.2
v 0.4 0.2 0.2
v 0.4 1.6 0.2
v -0.1 -0.1 0
v -0.1 0 0
v 0.1 -0.1 0
v 0.1 0 0
v -0.4 0.2 0
v -0.4 0.5 0
v -0.3 0.2 0
v -0.3 0.5 0
v 0.3 0.2 0
v 0.3 0.5 0
v 0.4 0.2 0
v 0.4 0.5 0
v -0.4 1.4 -0.1
v -0.4 1.6 -0.1
v -0.3 1.4 -0.1
v -0.3 1.6 -0.1
v 0.3 1.4 -0.1
v 0.3 1.6 -0.1
v 0.4 1.4 -0.1
v 0.4 1.6 -0.1
v -0.4 0.5 -0.2
v -0.4 1.4 -0.2
v -0.3 -0.1 -0.2
v -0.3 0.4 -0.2
v -0.3 0.5 -0.2
v -0.3 1.4 -0.2
v -0.3 1.5 -0.2
v -0.3 1.7 -0.2
v -0.2 -0.1 -0.2
v -0.2 0.4 -0.2
v -0.2 1.5 -0.2
v -0.2 1.7 -0.2
v 0.2 -0.1 -0.2
v 0.2 0.4 -0.2
v 0.2 1.5 -0.2
v 0.2 1.7 -0.2
v 0.3 -0.1 -0.2
v 0.3 0.4 -0.2
v 0.3 0.5 -0.2
v 0.3 1.4 -0.2
v 0.3 1.5 -0.2
v 0.3 1.7 -0.2
v 0.4 0.5 -0.2
v 0.4 1.4 -0.2
v -0.3 0.4 -0.3
v -0.3 0.5 -0.3
v -0.3 1.4 -0.3
v -0.3 1.5 -0.3
v -0.2 -0.1 -0.3
v -0.2 0.3 -0.3
v -0.2 0.4 -0.3
v -0.2 0.5 -0.3
v -0.2 0.6 -0.3
v -0.2 1.3 -0.3
v -0.2 1.4 -0.3
v -0.2 1.5 -0.3
v -0.2 1.6 -0.3
v -0.2 1.7 -0.3
v 0.2 -0.1 -0.3
v 0.2 0.3 -0.3
v 0.2 0.4 -0.3
v 0.2 0.5 -0.3
v 0.2 0.6 -0.3
v 0.2 1.3 -0.3
v 0.2 1.4 -0.3
v 0.2 1.5 -0.3
v 0.2 1.6 -0.3
v 0.2 1.7 -0.3
v 0.3 0.4 -0.3
v 0.3 0.5 -0.3
v 0.3 1.4 -0.3
v 0.3 1.5 -0.3
v -0.2 0.3 -0.4
v -0.2 0.4 -0.4
v -0.2 0.6 -0.4
v -0.2 1.3 -0.4
v -0.2 1.5 -0.4
v -0.2 1.6 -0.4
v -0.1 0.5 -0.4
v -0.1 0.6 -0.4
v -0.1 0.8 -0.4
v -0.1 1 -0.4
v -0.1 1.1 -0.4
v -0.1 1.3 -0.4
v -0.1 1.4 -0.4
v 0 0.6 -0.4
v 0 0.8 -0.4
v 0 0.9 -0.4
v 0 1 -0.4
v 0 1.1 -0.4
v 0 1.2 -0.4
v 0.1 0.5 -0.4
v 0.1 0.6 -0.4
v 0.1 0.9 -0.4
v 0.1 1 -0.4
v 0.1 1.1 -0.4
v 0.1 1.2 -0.4
v 0.1 1.3 -0.4
v 0.1 1.4 -0.4
v 0.2 0.3 -0.4
v 0.2 0.4 -0.4
v 0.2 0.6 -0.4
v 0.2 1.3 -0.4
v 0.2 1.5 -0.4
v 0.2 1.6 -0.4
v -0.3 -0.1 0.2
v -0.1 -0.1 0.2
v 0.1 -0.1 0.2
v 0.3 -0.1 0.2
v -0.1 -0.1 0
v 0.1 -0.1 0
v -0.3 -0.1 -0.2
v -0.2 -0.1 -0.2
v 0.2 -0.1 -0.2
v 0.3 -0.1 -0.2
v -0.2 -0.1 -0.3
v 0.2 -0.1 -0.3
v -0.1 0 0.2
v 0.1 0 0.2
v -0.1 0 0
v 0.1 0 0
v -0.2 0.1 0.3
v 0.2 0.1 0.3
v -0.2 0.1 0.2
v 0.2 0.1 0.2
v -0.1 0.2 0.4
v 0.1 0.2 0.4
v -0.1 0.2 0.3
v 0.1 0.2 0.3
v -0.4 0.2 0.2
v -0.3 0.2 0.2
v 0.3 0.2 0.2
v 0.4 0.2 0.2
v -0.4 0.2 0
v -0.3 0.2 0
v 0.3 0.2 0
v 0.4 0.2 0
v -0.2 0.3 -0.3
v 0.2 0.3 -0.3
v -0.2 0.3 -0.4
v 0.2 0.3 -0.4
v -0.2 0.4 0.4
v -0.1 0.4 0.4
v 0.1 0.4 0.4
v 0.2 0.4 0.4
v -0.2 0.4 0.3
v -0.1 0.4 0.3
v 0.1 0.4 0.3
v 0.2 0.4 0.3
v -0.3 0.4 -0.2
v -0.2 0.4 -0.2
v 0.2 0.4 -0.2
v 0.3 0.4 -0.2
v -0.3 0.4 -0.3
v -0.2 0.4 -0.3
v 0.2 0.4 -0.3
v 0.3 0.4 -0.3
v -0.4 0.5 0
v -0.3 0.5 0
v 0.3 0.5 0
v 0.4 0.5 0
v -0.4 0.5 -0.1
v -0.3 0.5 -0.1
v 0.3 0.5 -0.1
v 0.4 0.5 -0.1
v -0.4 0.5 -0.2
v -0.3 0.5 -0.2
v 0.3 0.5 -0.2
v 0.4 0.5 -0.2
v -0.3 0.7 0.3
v -0.2 0.7 0.3
v 0.2 0.7 0.3
v 0.3 0.7 0.3
v -0.3 0.7 0.2
v -0.2 0.7 0.2
v 0.2 0.7 0.2
v 0.3 0.7 0.2
v -0.4 1.4 -0.1
v -0.3 1.4 -0.1
v 0.3 1.4 -0.1
v 0.4 1.4 -0.1
v -0.4 1.4 -0.2
v -0.3 1.4 -0.2
v 0.3 1.4 -0.2
v 0.4 1.4 -0.2
v -0.3 1.5 -0.2
v -0.2 1.5 -0.2
v 0.2 1.5 -0.2
v 0.3 1.5 -0.2
v -0.3 1.5 -0.3
v -0.2 1.5 -0.3
v 0.2 1.5 -0.3
v 0.3 1.5 -0.3
v -0.4 1.6 0.2
v -0.3 1.6 0.2
v 0.3 1.6 0.2
v 0.4 1.6 0.2
v -0.4 1.6 -0.1
v -0.3 1.6 -0.1
v 0.3 1.6 -0.1
v 0.4 1.6 -0.1
v -0.2 1.6 -0.3
v 0.2 1.6 -0.3
v -0.2 1.6 -0.4
v 0.2 1.6 -0.4
v -0.2 1.7 0.4
v 0.2 1.7 0.4
v -0.3 1.7 0.3
v -0.2 1.7 0.3
v 0.2 1.7 0.3
v 0.3 1.7 0.3
v -0.3 1.7 -0.2
v -0.2 1.7 -0.2
v 0.2 1.7 -0.2
v 0.3 1.7 -0.2
v -0.2 1.7 -0.3
v 0.2 1.7 -0.3

# faces
f 3/6/1 2/6/1 1/6/1
f 6/6/1 4/6/1 3/6/1
f 6/5/1 5/5/1 4/5/1
f 7/5/1 5/5/1 6/5/1
f 8/6/1 3/6/1 1/6/1
f 8/6/1 6/6/1 3/6/1
f 9/6/1 6/6/1 8/6/1
f 12/6/1 11/6/1 10/6/1
f 13/6/1 11/6/1 12/6/1
f 14/6/1 11/6/1 13/6/1
f 16/6/1 14/6/1 13/6/1
f 17/6/1 14/6/1 16/6/1
f 18/5/1 15/5/1 14/5/1
f 18/6/1 14/6/1 17/6/1
f 19/5/1 15/5/1 18/5/1
f 23/4/1 19/4/1 18/4/1
f 24/4/1 19/4/1 23/4/1
f 25/6/1 23/6/1 22/6/1
f 25/5/1 24/5/1 23/5/1
f 26/5/1 24/5/1 25/5/1
f 27/6/1 21/6/1 20/6/1
f 28/6/1 25/6/1 22/6/1
f 29/6/1 27/6/1 20/6/1
f 29/6/1 28/6/1 27/6/1
f 30/6/1 25/6/1 28/6/1
f 30/6/1 28/6/1 29/6/1
f 35/6/1 32/6/1 31/6/1
f 38/6/1 34/6/1 33/6/1
f 39/6/1 35/6/1 31/6/1
f 40/5/1 36/5/1 35/5/1
f 40/6/1 35/6/1 39/6/1
f 41/5/1 36/5/1 40/5/1
f 42/4/1 41/4/1 40/4/1
f 43/4/1 41/4/1 42/4/1
f 44/4/1 41/4/1 43/4/1
f 45/6/1 38/6/1 37/6/1
f 45/6/1 34/6/1 38/6/1
f 46/6/1 34/6/1 45/6/1
f 47/3/1 44/3/1 43/3/1
f 48/3/1 44/3/1 47/3/1
f 49/4/1 48/4/1 47/4/1
f 51/4/1 48/4/1 49/4/1
f 52/4/1 48/4/1 51/4/1
f 53/6/1 51/6/1 50/6/1
f 53/5/1 52/5/1 51/5/1
f 54/5/1 52/5/1 53/5/1
f 55/6/1 45/6/1 37/6/1
f 56/6/1 45/6/1 55/6/1
f 57/6/1 53/6/1 50/6/1
f 58/6/1 53/6/1 57/6/1
f 61/6/1 60/6/1 59/6/1
f 62/6/1 60/6/1 61/6/1
f 65/6/1 64/6/1 63/6/1
f 66/6/1 64/6/1 65/6/1
f 67/6/2 68/6/2 69/6/2
f 69/6/2 68/6/2 70/6/2
f 71/6/2 72/6/2 73/6/2
f 73/6/2 72/6/2 74/6/2
f 75/6/2 76/6/2 79/6/2
f 77/6/2 78/6/2 82/6/2
f 75/6/2 79/6/2 83/6/2
f 79/5/2 80/5/2 84/5/2
f 83/6/2 79/6/2 84/6/2
f 84/5/2 80/5/2 85/5/2
f 84/4/2 85/4/2 86/4/2
f 86/4/2 85/4/2 87/4/2
f 87/4/2 85/4/2 88/4/2
f 81/6/2 82/6/2 89/6/2
f 82/6/2 78/6/2 89/6/2
f 89/6/2 78/6/2 90/6/2
f 87/3/2 88/3/2 91/3/2
f 91/3/2 88/3/2 92/3/2
f 91/4/2 92/4/2 93/4/2
f 93/4/2 92/4/2 95/4/2
f 95/4/2 92/4/2 96/4/2
f 94/6/2 95/6/2 97/6/2
f 95/5/2 96/5/2 97/5/2
f 97/5/2 96/5/2 98/5/2
f 81/6/2 89/6/2 99/6/2
f 99/6/2 89/6/2 100/6/2
f 94/6/2 97/6/2 101/6/2
f 101/6/2 97/6/2 102/6/2
f 103/6/2 104/6/2 105/6/2
f 105/6/2 104/6/2 106/6/2
f 106/6/2 104/6/2 107/6/2
f 106/6/2 107/6/2 109/6/2
f 109/6/2 107/6/2 110/6/2
f 107/5/2 108/5/2 111/5/2
f 110/6/2 107/6/2 111/6/2
f 111/5/2 108/5/2 112/5/2
f 111/4/2 112/4/2 116/4/2
f 116/4/2 112/4/2 117/4/2
f 115/6/2 116/6/2 118/6/2
f 116/5/2 117/5/2 118/5/2
f 118/5/2 117/5/2 119/5/2
f 113/6/2 114/6/2 120/6/2
f 115/6/2 118/6/2 121/6/2
f 113/6/2 120/6/2 122/6/2
f 120/6/2 121/6/2 122/6/2
f 121/6/2 118/6/2 123/6/2
f 122/6/2 121/6/2 123/6/2
f 124/6/2 125/6/2 126/6/2
f 126/6/2 127/6/2 129/6/2
f 127/5/2 128/5/2 129/5/2
f 129/5/2 128/5/2 130/5/2
f 124/6/2 126/6/2 131/6/2
f 126/6/2 129/6/2 131/6/2
f 131/6/2 129/6/2 132/6/2
f 136/6/3 134/6/3 133/6/3
f 137/6/3 136/6/3 135/6/3
f 138/6/3 134/6/3 136/6/3
f 138/6/3 136/6/3 137/6/3
f 139/6/3 134/6/3 138/6/3
f 140/6/3 134/6/3 139/6/3
f 145/6/3 142/6/3 141/6/3
f 146/6/3 142/6/3 145/6/3
f 147/6/3 144/6/3 143/6/3
f 148/6/3 144/6/3 147/6/3
f 149/6/3 147/6/3 143/6/3
f 151/6/3 149/6/3 143/6/3
f 151/6/3 150/6/3 149/6/3
f 152/6/3 150/6/3 151/6/3
f 155/6/3 154/6/3 153/6/3
f 156/6/3 154/6/3 155/6/3
f 160/6/3 158/6/3 157/6/3
f 161/6/3 158/6/3 160/6/3
f 162/6/3 158/6/3 161/6/3
f 163/6/3 160/6/3 159/6/3
f 163/6/3 161/6/3 160/6/3
f 164/6/3 161/6/3 163/6/3
f 165/6/3 163/6/3 159/6/3
f 166/6/3 163/6/3 165/6/3
f 168/6/3 163/6/3 166/6/3
f 169/6/3 163/6/3 168/6/3
f 169/6/3 168/6/3 167/6/3
f 171/6/3 169/6/3 167/6/3
f 171/6/3 170/6/3 169/6/3
f 172/6/3 170/6/3 171/6/3
f 173/6/3 170/6/3 172/6/3
f 175/6/3 173/6/3 172/6/3
f 175/6/3 174/6/3 173/6/3
f 176/6/3 174/6/3 175/6/3
f 179/6/3 178/6/3 177/6/3
f 180/6/3 178/6/3 179/6/3
f 181/6/4 182/6/4 183/6/4
f 183/6/4 182/6/4 184/6/4
f 185/6/4 186/6/4 187/6/4
f 187/6/4 186/6/4 188/6/4
f 189/6/4 190/6/4 191/6/4
f 191/6/4 190/6/4 192/6/4
f 193/6/4 194/6/4 195/6/4
f 195/6/4 194/6/4 196/6/4
f 197/5/4 198/5/4 201/5/4
f 201/5/4 198/5/4 202/5/4
f 199/6/4 200/6/4 205/6/4
f 205/6/4 200/6/4 206/6/4
f 203/6/4 204/6/4 207/6/4
f 207/6/4 204/6/4 208/6/4
f 209/6/4 210/6/4 213/6/4
f 213/6/4 210/6/4 214/6/4
f 211/6/4 212/6/4 217/6/4
f 217/6/4 212/6/4 218/6/4
f 215/5/4 216/5/4 219/5/4
f 219/5/4 216/5/4 220/5/4
f 221/5/4 222/5/4 227/5/4
f 222/4/4 223/4/4 228/4/4
f 227/5/4 222/5/4 228/5/4
f 228/4/4 223/4/4 229/4/4
f 229/4/4 223/4/4 230/4/4
f 223/5/4 224/5/4 231/5/4
f 230/4/4 223/4/4 231/4/4
f 231/5/4 224/5/4 232/5/4
f 225/6/4 226/6/4 235/6/4
f 235/6/4 226/6/4 236/6/4
f 233/6/4 234/6/4 243/6/4
f 243/6/4 234/6/4 244/6/4
f 237/5/4 238/5/4 245/5/4
f 238/4/4 239/4/4 246/4/4
f 245/5/4 238/5/4 246/5/4
f 239/4/4 240/4/4 246/4/4
f 240/4/4 241/4/4 246/4/4
f 241/5/4 242/5/4 247/5/4
f 246/4/4 241/4/4 247/4/4
f 247/5/4 242/5/4 248/5/4
f 250/4/4 251/4/4 255/4/4
f 251/3/4 252/3/4 256/3/4
f 255/4/4 251/4/4 256/4/4
f 256/3/4 252/3/4 257/3/4
f 257/3/4 252/3/4 258/3/4
f 258/3/4 252/3/4 259/3/4
f 252/4/4 253/4/4 260/4/4
f 259/3/4 252/3/4 260/3/4
f 260/4/4 253/4/4 261/4/4
f 255/3/4 256/3/4 262/3/4
f 256/1/4 257/1/4 262/1/4
f 257/2/4 258/2/4 263/2/4
f 262/1/4 257/1/4 263/1/4
f 263/2/4 258/2/4 264/2/4
f 258/1/4 259/1/4 265/1/4
f 264/2/4 258/2/4 265/2/4
f 259/2/4 260/2/4 266/2/4
f 265/1/4 259/1/4 266/1/4
f 266/2/4 260/2/4 267/2/4
f 250/4/4 255/4/4 268/4/4
f 255/3/4 262/3/4 268/3/4
f 263/2/4 264/2/4 269/2/4
f 268/3/4 262/3/4 269/3/4
f 262/2/4 263/2/4 269/2/4
f 264/1/4 265/1/4 270/1/4
f 269/2/4 264/2/4 270/2/4
f 265/2/4 266/2/4 271/2/4
f 270/1/4 265/1/4 271/1/4
f 266/1/4 267/1/4 272/1/4
f 271/2/4 266/2/4 272/2/4
f 267/2/4 260/2/4 273/2/4
f 272/1/4 267/1/4 273/1/4
f 260/3/4 261/3/4 274/3/4
f 273/2/4 260/2/4 274/2/4
f 261/4/4 253/4/4 275/4/4
f 274/3/4 261/3/4 275/3/4
f 249/5/4 250/5/4 276/5/4
f 250/4/4 268/4/4 277/4/4
f 276/5/4 250/5/4 277/5/4
f 268/4/4 269/4/4 277/4/4
f 271/3/4 272/3/4 278/3/4
f 277/4/4 269/4/4 278/4/4
f 273/3/4 274/3/4 278/3/4
f 269/3/4 270/3/4 278/3/4
f 272/3/4 273/3/4 278/3/4
f 270/3/4 271/3/4 278/3/4
f 274/4/4 275/4/4 279/4/4
f 278/3/4 274/3/4 279/3/4
f 275/4/4 253/4/4 280/4/4
f 279/4/4 275/4/4 280/4/4
f 253/5/4 254/5/4 280/5/4
f 280/5/4 254/5/4 281/5/4
f 286/6/5 283/6/5 282/6/5
f 287/6/5 285/6/5 284/6/5
f 288/6/5 286/6/5 282/6/5
f 288/6/5 287/6/5 286/6/5
f 289/6/5 287/6/5 288/6/5
f 290/6/5 285/6/5 287/6/5
f 290/6/5 287/6/5 289/6/5
f 291/6/5 285/6/5 290/6/5
f 292/6/5 290/6/5 289/6/5
f 293/6/5 290/6/5 292/6/5
f 296/6/5 295/6/5 294/6/5
f 297/6/5 295/6/5 296/6/5
f 300/6/5 299/6/5 298/6/5
f 301/6/5 299/6/5 300/6/5
f 304/6/5 303/6/5 302/6/5
f 305/6/5 303/6/5 304/6/5
f 310/6/5 307/6/5 306/6/5
f 311/6/5 307/6/5 310/6/5
f 312/6/5 309/6/5 308/6/5
f 313/6/5 309/6/5 312/6/5
f 316/5/5 315/5/5 314/5/5
f 317/5/5 315/5/5 316/5/5
f 322/6/5 319/6/5 318/6/5
f 323/6/5 319/6/5 322/6/5
f 324/6/5 321/6/5 320/6/5
f 325/6/5 321/6/5 324/6/5
f 330/5/5 327/5/5 326/5/5
f 331/5/5 327/5/5 330/5/5
f 332/5/5 329/5/5 328/5/5
f 333/5/5 329/5/5 332/5/5
f 338/6/5 335/6/5 334/6/5
f 339/6/5 335/6/5 338/6/5
f 340/6/5 337/6/5 336/6/5
f 341/6/5 337/6/5 340/6/5
f 342/5/5 339/5/5 338/5/5
f 343/5/5 339/5/5 342/5/5
f 344/5/5 341/5/5 340/5/5
f 345/5/5 341/5/5 344/5/5
f 350/6/5 347/6/5 346/6/5
f 351/6/5 347/6/5 350/6/5
f 352/6/5 349/6/5 348/6/5
f 353/6/5 349/6/5 352/6/5
f 354/5/6 355/5/6 358/5/6
f 358/5/6 355/5/6 359/5/6
f 356/5/6 357/5/6 360/5/6
f 360/5/6 357/5/6 361/5/6
f 362/5/6 363/5/6 366/5/6
f 366/5/6 363/5/6 367/5/6
f 364/5/6 365/5/6 368/5/6
f 368/5/6 365/5/6 369/5/6
f 370/6/6 371/6/6 374/6/6
f 374/6/6 371/6/6 375/6/6
f 372/6/6 373/6/6 376/6/6
f 376/6/6 373/6/6 377/6/6
f 378/5/6 379/5/6 380/5/6
f 380/5/6 379/5/6 381/5/6
f 382/6/6 383/6/6 385/6/6
f 385/6/6 383/6/6 386/6/6
f 384/6/6 385/6/6 388/6/6
f 386/6/6 387/6/6 388/6/6
f 385/6/6 386/6/6 388/6/6
f 388/6/6 387/6/6 389/6/6
f 389/6/6 387/6/6 390/6/6
f 390/6/6 387/6/6 391/6/6
f 389/6/6 390/6/6 392/6/6
f 392/6/6 390/6/6 393/6/6
