# MagicaVoxel @ Ephtracy

# group
o 

# material
mtllib KnightForearm.mtl
usemtl palette

# normals
vn -1 0 0
vn 1 0 0
vn 0 0 1
vn 0 0 -1
vn 0 -1 0
vn 0 1 0

# texcoords
vt 0.958984 0.5
vt 0.966797 0.5
vt 0.974609 0.5
vt 0.978516 0.5
vt 0.986328 0.5

# verts
v 0.6 1.1 1
v 0.6 1.1 0.9
v 0.6 1.2 1.1
v 0.6 1.2 1
v 0.6 1.2 0.9
v 0.6 1.2 0.8
v 0.6 1.3 1.1
v 0.6 1.3 1
v 0.6 1.4 0.9
v 0.6 1.4 0.8
v 0.6 1.5 1.1
v 0.6 1.5 0.9
v 0.6 1.6 1.1
v 0.6 1.6 1
v 0.6 1.6 0.9
v 0.6 1.6 0.8
v 0.6 1.7 1
v 0.6 1.7 0.9
v 0.6 1.8 1.1
v 0.6 1.8 1
v 0.6 1.8 0.9
v 0.6 1.8 0.8
v 0.6 1.9 0.9
v 0.6 1.9 0.8
v 0.6 2 1.1
v 0.6 2 1
v 0.6 2 0.9
v 0.6 2 0.8
v 0.6 2.1 1
v 0.6 2.1 0.9
v 0.7 1.3 1.2
v 0.7 1.3 1.1
v 0.7 1.3 0.8
v 0.7 1.3 0.7
v 0.7 1.4 1.2
v 0.7 1.4 1.1
v 0.7 1.4 0.8
v 0.7 1.5 1.2
v 0.7 1.5 1.1
v 0.7 1.6 1.2
v 0.7 1.6 1.1
v 0.7 1.6 1
v 0.7 1.6 0.9
v 0.7 1.6 0.8
v 0.7 1.6 0.7
v 0.7 1.7 1
v 0.7 1.7 0.9
v 0.7 1.8 1.1
v 0.7 1.8 1
v 0.7 1.8 0.9
v 0.7 1.8 0.8
v 0.8 1.2 1.2
v 0.8 1.2 1.1
v 0.8 1.2 0.8
v 0.8 1.2 0.7
v 0.8 1.3 1.2
v 0.8 1.3 1.1
v 0.8 1.3 0.8
v 0.8 1.3 0.7
v 0.8 1.6 1.2
v 0.8 1.6 1.1
v 0.8 1.6 0.8
v 0.8 1.6 0.7
v 0.8 1.7 1.2
v 0.8 1.7 1.1
v 0.8 1.7 0.8
v 0.8 1.7 0.7
v 1 1.1 1
v 1 1.1 0.9
v 1 1.2 1
v 1 1.2 0.9
v 1 1.8 1.1
v 1 1.8 1
v 1 1.8 0.8
v 1 1.9 1.1
v 1 1.9 1
v 1 1.9 0.9
v 1 1.9 0.8
v 1 2 1.1
v 1 2 1
v 1 2 0.9
v 1 2 0.8
v 1 2.1 1
v 1 2.1 0.9
v 0.7 1.1 1
v 0.7 1.1 0.9
v 0.7 1.2 1
v 0.7 1.2 0.9
v 0.7 1.8 1.1
v 0.7 1.8 1
v 0.7 1.8 0.8
v 0.7 1.9 0.9
v 0.7 1.9 0.8
v 0.7 2 1.1
v 0.7 2 1
v 0.7 2 0.9
v 0.7 2 0.8
v 0.7 2.1 1
v 0.7 2.1 0.9
v 0.9 1.2 1.2
v 0.9 1.2 1.1
v 0.9 1.2 0.8
v 0.9 1.2 0.7
v 0.9 1.3 1.2
v 0.9 1.3 1.1
v 0.9 1.3 0.8
v 0.9 1.3 0.7
v 0.9 1.6 1.2
v 0.9 1.6 1.1
v 0.9 1.6 0.8
v 0.9 1.6 0.7
v 0.9 1.7 1.2
v 0.9 1.7 1.1
v 0.9 1.7 0.8
v 0.9 1.7 0.7
v 1 1.3 1.2
v 1 1.3 1.1
v 1 1.3 0.8
v 1 1.3 0.7
v 1 1.4 1.1
v 1 1.4 0.8
v 1 1.5 1.2
v 1 1.5 1.1
v 1 1.6 1.2
v 1 1.6 1.1
v 1 1.6 1
v 1 1.6 0.9
v 1 1.6 0.8
v 1 1.6 0.7
v 1 1.7 1
v 1 1.7 0.9
v 1 1.8 1.1
v 1 1.8 1
v 1 1.8 0.9
v 1 1.8 0.8
v 1.1 1.1 1
v 1.1 1.1 0.9
v 1.1 1.2 1.1
v 1.1 1.2 1
v 1.1 1.2 0.9
v 1.1 1.2 0.8
v 1.1 1.3 1.1
v 1.1 1.3 1
v 1.1 1.3 0.9
v 1.1 1.4 1.1
v 1.1 1.4 1
v 1.1 1.4 0.8
v 1.1 1.5 1.1
v 1.1 1.5 1
v 1.1 1.5 0.9
v 1.1 1.6 1.1
v 1.1 1.6 1
v 1.1 1.6 0.9
v 1.1 1.6 0.8
v 1.1 1.7 1
v 1.1 1.7 0.9
v 1.1 1.8 1.1
v 1.1 1.8 1
v 1.1 1.8 0.9
v 1.1 1.8 0.8
v 1.1 1.9 1.1
v 1.1 1.9 1
v 1.1 1.9 0.9
v 1.1 1.9 0.8
v 1.1 2 1.1
v 1.1 2 1
v 1.1 2 0.9
v 1.1 2 0.8
v 1.1 2.1 1
v 1.1 2.1 0.9
v 0.7 1.3 1.2
v 0.7 1.4 1.2
v 0.7 1.5 1.2
v 0.7 1.6 1.2
v 0.8 1.2 1.2
v 0.8 1.3 1.2
v 0.8 1.4 1.2
v 0.8 1.5 1.2
v 0.8 1.6 1.2
v 0.8 1.7 1.2
v 0.9 1.2 1.2
v 0.9 1.3 1.2
v 0.9 1.5 1.2
v 0.9 1.6 1.2
v 0.9 1.7 1.2
v 1 1.3 1.2
v 1 1.5 1.2
v 1 1.6 1.2
v 0.6 1.2 1.1
v 0.6 1.3 1.1
v 0.6 1.5 1.1
v 0.6 1.6 1.1
v 0.6 1.8 1.1
v 0.6 2 1.1
v 0.7 1.2 1.1
v 0.7 1.3 1.1
v 0.7 1.4 1.1
v 0.7 1.5 1.1
v 0.7 1.6 1.1
v 0.7 1.8 1.1
v 0.7 2 1.1
v 0.8 1.2 1.1
v 0.8 1.3 1.1
v 0.8 1.6 1.1
v 0.8 1.7 1.1
v 0.9 1.2 1.1
v 0.9 1.3 1.1
v 0.9 1.6 1.1
v 0.9 1.7 1.1
v 1 1.2 1.1
v 1 1.3 1.1
v 1 1.4 1.1
v 1 1.5 1.1
v 1 1.6 1.1
v 1 1.8 1.1
v 1 1.9 1.1
v 1 2 1.1
v 1.1 1.2 1.1
v 1.1 1.3 1.1
v 1.1 1.4 1.1
v 1.1 1.5 1.1
v 1.1 1.6 1.1
v 1.1 1.8 1.1
v 1.1 1.9 1.1
v 1.1 2 1.1
v 0.6 1.1 1
v 0.6 1.2 1
v 0.6 1.6 1
v 0.6 1.7 1
v 0.6 1.8 1
v 0.6 2 1
v 0.6 2.1 1
v 0.7 1.1 1
v 0.7 1.2 1
v 0.7 1.6 1
v 0.7 1.7 1
v 0.7 1.8 1
v 0.7 2 1
v 0.7 2.1 1
v 1 1.1 1
v 1 1.2 1
v 1 1.6 1
v 1 1.7 1
v 1 1.8 1
v 1 2 1
v 1 2.1 1
v 1.1 1.1 1
v 1.1 1.2 1
v 1.1 1.6 1
v 1.1 1.7 1
v 1.1 1.8 1
v 1.1 2 1
v 1.1 2.1 1
v 0.6 1.1 0.9
v 0.6 1.2 0.9
v 0.6 1.6 0.9
v 0.6 1.7 0.9
v 0.6 1.8 0.9
v 0.6 2 0.9
v 0.6 2.1 0.9
v 0.7 1.1 0.9
v 0.7 1.2 0.9
v 0.7 1.6 0.9
v 0.7 1.7 0.9
v 0.7 1.8 0.9
v 0.7 2 0.9
v 0.7 2.1 0.9
v 1 1.1 0.9
v 1 1.2 0.9
v 1 1.6 0.9
v 1 1.7 0.9
v 1 1.8 0.9
v 1 2 0.9
v 1 2.1 0.9
v 1.1 1.1 0.9
v 1.1 1.2 0.9
v 1.1 1.6 0.9
v 1.1 1.7 0.9
v 1.1 1.8 0.9
v 1.1 2 0.9
v 1.1 2.1 0.9
v 0.6 1.2 0.8
v 0.6 1.4 0.8
v 0.6 1.6 0.8
v 0.6 1.8 0.8
v 0.6 1.9 0.8
v 0.6 2 0.8
v 0.7 1.2 0.8
v 0.7 1.3 0.8
v 0.7 1.4 0.8
v 0.7 1.6 0.8
v 0.7 1.8 0.8
v 0.7 1.9 0.8
v 0.7 2 0.8
v 0.8 1.2 0.8
v 0.8 1.3 0.8
v 0.8 1.6 0.8
v 0.8 1.7 0.8
v 0.9 1.2 0.8
v 0.9 1.3 0.8
v 0.9 1.6 0.8
v 0.9 1.7 0.8
v 1 1.2 0.8
v 1 1.3 0.8
v 1 1.4 0.8
v 1 1.6 0.8
v 1 1.8 0.8
v 1 1.9 0.8
v 1 2 0.8
v 1.1 1.2 0.8
v 1.1 1.4 0.8
v 1.1 1.6 0.8
v 1.1 1.8 0.8
v 1.1 1.9 0.8
v 1.1 2 0.8
v 0.7 1.3 0.7
v 0.7 1.6 0.7
v 0.8 1.2 0.7
v 0.8 1.3 0.7
v 0.8 1.6 0.7
v 0.8 1.7 0.7
v 0.9 1.2 0.7
v 0.9 1.3 0.7
v 0.9 1.6 0.7
v 0.9 1.7 0.7
v 1 1.3 0.7
v 1 1.6 0.7
v 0.6 1.1 1
v 0.7 1.1 1
v 1 1.1 1
v 1.1 1.1 1
v 0.6 1.1 0.9
v 0.7 1.1 0.9
v 1 1.1 0.9
v 1.1 1.1 0.9
v 0.8 1.2 1.2
v 0.9 1.2 1.2
v 0.6 1.2 1.1
v 0.7 1.2 1.1
v 0.8 1.2 1.1
v 0.9 1.2 1.1
v 1 1.2 1.1
v 1.1 1.2 1.1
v 0.6 1.2 1
v 0.7 1.2 1
v 1 1.2 1
v 1.1 1.2 1
v 0.6 1.2 0.9
v 0.7 1.2 0.9
v 1 1.2 0.9
v 1.1 1.2 0.9
v 0.6 1.2 0.8
v 0.7 1.2 0.8
v 0.8 1.2 0.8
v 0.9 1.2 0.8
v 1 1.2 0.8
v 1.1 1.2 0.8
v 0.8 1.2 0.7
v 0.9 1.2 0.7
v 0.7 1.3 1.2
v 0.8 1.3 1.2
v 0.9 1.3 1.2
v 1 1.3 1.2
v 0.7 1.3 1.1
v 0.8 1.3 1.1
v 0.9 1.3 1.1
v 1 1.3 1.1
v 0.7 1.3 0.8
v 0.8 1.3 0.8
v 0.9 1.3 0.8
v 1 1.3 0.8
v 0.7 1.3 0.7
v 0.8 1.3 0.7
v 0.9 1.3 0.7
v 1 1.3 0.7
v 0.6 1.8 1.1
v 0.7 1.8 1.1
v 1 1.8 1.1
v 1.1 1.8 1.1
v 0.6 1.8 1
v 0.7 1.8 1
v 1 1.8 1
v 1.1 1.8 1
v 0.6 1.8 0.9
v 0.7 1.8 0.9
v 1 1.8 0.9
v 1.1 1.8 0.9
v 0.6 1.8 0.8
v 0.7 1.8 0.8
v 1 1.8 0.8
v 1.1 1.8 0.8
v 0.7 1.6 1.2
v 0.8 1.6 1.2
v 0.9 1.6 1.2
v 1 1.6 1.2
v 0.6 1.6 1.1
v 0.7 1.6 1.1
v 0.8 1.6 1.1
v 0.9 1.6 1.1
v 1 1.6 1.1
v 1.1 1.6 1.1
v 0.6 1.6 1
v 0.7 1.6 1
v 1 1.6 1
v 1.1 1.6 1
v 0.6 1.6 0.9
v 0.7 1.6 0.9
v 1 1.6 0.9
v 1.1 1.6 0.9
v 0.6 1.6 0.8
v 0.7 1.6 0.8
v 0.8 1.6 0.8
v 0.9 1.6 0.8
v 1 1.6 0.8
v 1.1 1.6 0.8
v 0.7 1.6 0.7
v 0.8 1.6 0.7
v 0.9 1.6 0.7
v 1 1.6 0.7
v 0.8 1.7 1.2
v 0.9 1.7 1.2
v 0.8 1.7 1.1
v 0.9 1.7 1.1
v 0.8 1.7 0.8
v 0.9 1.7 0.8
v 0.8 1.7 0.7
v 0.9 1.7 0.7
v 0.7 1.8 1.1
v 1 1.8 1.1
v 0.7 1.8 1
v 1 1.8 1
v 0.7 1.8 0.8
v 1 1.8 0.8
v 0.6 2 1.1
v 0.7 2 1.1
v 1 2 1.1
v 1.1 2 1.1
v 0.6 2 1
v 0.7 2 1
v 1 2 1
v 1.1 2 1
v 0.6 2 0.9
v 0.7 2 0.9
v 1 2 0.9
v 1.1 2 0.9
v 0.6 2 0.8
v 0.7 2 0.8
v 1 2 0.8
v 1.1 2 0.8
v 0.6 2.1 1
v 0.7 2.1 1
v 1 2.1 1
v 1.1 2.1 1
v 0.6 2.1 0.9
v 0.7 2.1 0.9
v 1 2.1 0.9
v 1.1 2.1 0.9

# faces
f 4/3/1 2/3/1 1/3/1
f 5/3/1 2/3/1 4/3/1
f 7/3/1 4/3/1 3/3/1
f 8/4/1 5/4/1 4/4/1
f 8/3/1 4/3/1 7/3/1
f 9/3/1 6/3/1 5/3/1
f 9/4/1 5/4/1 8/4/1
f 9/4/1 8/4/1 7/4/1
f 10/3/1 6/3/1 9/3/1
f 11/4/1 9/4/1 7/4/1
f 11/4/1 10/4/1 9/4/1
f 12/4/1 10/4/1 11/4/1
f 13/3/1 12/3/1 11/3/1
f 14/3/1 12/3/1 13/3/1
f 15/4/1 10/4/1 12/4/1
f 15/3/1 12/3/1 14/3/1
f 16/4/1 10/4/1 15/4/1
f 17/4/1 15/4/1 14/4/1
f 18/4/1 15/4/1 17/4/1
f 20/2/1 18/2/1 17/2/1
f 21/2/1 18/2/1 20/2/1
f 23/1/1 21/1/1 20/1/1
f 23/1/1 22/1/1 21/1/1
f 24/1/1 22/1/1 23/1/1
f 25/2/1 20/2/1 19/2/1
f 26/1/1 23/1/1 20/1/1
f 26/2/1 20/2/1 25/2/1
f 27/2/1 24/2/1 23/2/1
f 27/1/1 23/1/1 26/1/1
f 28/2/1 24/2/1 27/2/1
f 29/2/1 27/2/1 26/2/1
f 30/2/1 27/2/1 29/2/1
f 35/3/1 32/3/1 31/3/1
f 36/3/1 32/3/1 35/3/1
f 37/3/1 34/3/1 33/3/1
f 38/4/1 36/4/1 35/4/1
f 39/4/1 36/4/1 38/4/1
f 40/3/1 39/3/1 38/3/1
f 41/3/1 39/3/1 40/3/1
f 44/3/1 34/3/1 37/3/1
f 45/3/1 34/3/1 44/3/1
f 46/5/1 42/5/1 41/5/1
f 47/5/1 44/5/1 43/5/1
f 48/5/1 46/5/1 41/5/1
f 49/5/1 46/5/1 48/5/1
f 50/5/1 44/5/1 47/5/1
f 51/5/1 44/5/1 50/5/1
f 56/3/1 53/3/1 52/3/1
f 57/3/1 53/3/1 56/3/1
f 58/3/1 55/3/1 54/3/1
f 59/3/1 55/3/1 58/3/1
f 64/3/1 61/3/1 60/3/1
f 65/3/1 61/3/1 64/3/1
f 66/3/1 63/3/1 62/3/1
f 67/3/1 63/3/1 66/3/1
f 70/3/1 69/3/1 68/3/1
f 71/3/1 69/3/1 70/3/1
f 75/2/1 73/2/1 72/2/1
f 76/1/1 74/1/1 73/1/1
f 76/2/1 73/2/1 75/2/1
f 77/1/1 74/1/1 76/1/1
f 78/1/1 74/1/1 77/1/1
f 79/1/1 76/1/1 75/1/1
f 79/1/1 77/1/1 76/1/1
f 80/1/1 77/1/1 79/1/1
f 81/2/1 78/2/1 77/2/1
f 81/1/1 77/1/1 80/1/1
f 82/2/1 78/2/1 81/2/1
f 83/1/1 81/1/1 80/1/1
f 84/1/1 81/1/1 83/1/1
f 85/3/2 86/3/2 87/3/2
f 87/3/2 86/3/2 88/3/2
f 90/1/2 91/1/2 92/1/2
f 92/1/2 91/1/2 93/1/2
f 89/2/2 90/2/2 94/2/2
f 90/1/2 92/1/2 95/1/2
f 94/2/2 90/2/2 95/2/2
f 92/2/2 93/2/2 96/2/2
f 95/1/2 92/1/2 96/1/2
f 96/2/2 93/2/2 97/2/2
f 95/2/2 96/2/2 98/2/2
f 98/2/2 96/2/2 99/2/2
f 100/3/2 101/3/2 104/3/2
f 104/3/2 101/3/2 105/3/2
f 102/3/2 103/3/2 106/3/2
f 106/3/2 103/3/2 107/3/2
f 108/3/2 109/3/2 112/3/2
f 112/3/2 109/3/2 113/3/2
f 110/3/2 111/3/2 114/3/2
f 114/3/2 111/3/2 115/3/2
f 116/3/2 117/3/2 120/3/2
f 118/3/2 119/3/2 121/3/2
f 116/3/2 120/3/2 122/3/2
f 122/3/2 120/3/2 123/3/2
f 122/4/2 123/4/2 124/4/2
f 124/4/2 123/4/2 125/4/2
f 121/3/2 119/3/2 128/3/2
f 128/3/2 119/3/2 129/3/2
f 125/5/2 126/5/2 130/5/2
f 127/5/2 128/5/2 131/5/2
f 125/5/2 130/5/2 132/5/2
f 132/5/2 130/5/2 133/5/2
f 131/5/2 128/5/2 134/5/2
f 134/5/2 128/5/2 135/5/2
f 136/3/2 137/3/2 139/3/2
f 139/3/2 137/3/2 140/3/2
f 138/3/2 139/3/2 142/3/2
f 139/4/2 140/4/2 143/4/2
f 142/3/2 139/3/2 143/3/2
f 140/3/2 141/3/2 144/3/2
f 143/4/2 140/4/2 144/4/2
f 142/4/2 143/4/2 145/4/2
f 143/3/2 144/3/2 146/3/2
f 145/4/2 143/4/2 146/4/2
f 144/3/2 141/3/2 147/3/2
f 146/3/2 144/3/2 147/3/2
f 145/3/2 146/3/2 148/3/2
f 146/4/2 147/4/2 149/4/2
f 148/3/2 146/3/2 149/3/2
f 149/4/2 147/4/2 150/4/2
f 148/4/2 149/4/2 151/4/2
f 149/3/2 150/3/2 152/3/2
f 151/4/2 149/4/2 152/4/2
f 150/4/2 147/4/2 153/4/2
f 152/3/2 150/3/2 153/3/2
f 153/4/2 147/4/2 154/4/2
f 152/3/2 153/3/2 155/3/2
f 155/3/2 153/3/2 156/3/2
f 155/2/2 156/2/2 158/2/2
f 158/2/2 156/2/2 159/2/2
f 157/2/2 158/2/2 161/2/2
f 158/1/2 159/1/2 162/1/2
f 161/2/2 158/2/2 162/2/2
f 159/1/2 160/1/2 162/1/2
f 162/1/2 160/1/2 163/1/2
f 163/1/2 160/1/2 164/1/2
f 161/1/2 162/1/2 165/1/2
f 162/1/2 163/1/2 165/1/2
f 165/1/2 163/1/2 166/1/2
f 163/2/2 164/2/2 167/2/2
f 166/1/2 163/1/2 167/1/2
f 167/2/2 164/2/2 168/2/2
f 166/1/2 167/1/2 169/1/2
f 169/1/2 167/1/2 170/1/2
f 176/3/3 172/3/3 171/3/3
f 177/4/3 173/4/3 172/4/3
f 177/3/3 172/3/3 176/3/3
f 178/3/3 174/3/3 173/3/3
f 178/4/3 173/4/3 177/4/3
f 179/3/3 174/3/3 178/3/3
f 181/3/3 176/3/3 175/3/3
f 182/4/3 177/4/3 176/4/3
f 182/3/3 176/3/3 181/3/3
f 182/4/3 178/4/3 177/4/3
f 182/4/3 179/4/3 178/4/3
f 183/4/3 179/4/3 182/4/3
f 184/3/3 180/3/3 179/3/3
f 184/4/3 179/4/3 183/4/3
f 185/3/3 180/3/3 184/3/3
f 186/3/3 183/3/3 182/3/3
f 187/4/3 184/4/3 183/4/3
f 187/3/3 183/3/3 186/3/3
f 188/4/3 184/4/3 187/4/3
f 195/3/3 190/3/3 189/3/3
f 196/4/3 191/4/3 190/4/3
f 196/3/3 190/3/3 195/3/3
f 197/4/3 191/4/3 196/4/3
f 198/3/3 192/3/3 191/3/3
f 198/4/3 191/4/3 197/4/3
f 199/3/3 192/3/3 198/3/3
f 200/2/3 194/2/3 193/2/3
f 201/2/3 194/2/3 200/2/3
f 202/5/3 196/5/3 195/5/3
f 203/5/3 196/5/3 202/5/3
f 204/5/3 200/5/3 199/5/3
f 205/5/3 200/5/3 204/5/3
f 209/5/3 200/5/3 205/5/3
f 210/5/3 207/5/3 206/5/3
f 211/5/3 207/5/3 210/5/3
f 214/5/3 209/5/3 208/5/3
f 215/5/3 200/5/3 209/5/3
f 215/5/3 209/5/3 214/5/3
f 218/3/3 211/3/3 210/3/3
f 219/4/3 212/4/3 211/4/3
f 219/3/3 211/3/3 218/3/3
f 220/3/3 213/3/3 212/3/3
f 220/4/3 212/4/3 219/4/3
f 221/4/3 214/4/3 213/4/3
f 221/3/3 213/3/3 220/3/3
f 222/4/3 214/4/3 221/4/3
f 223/2/3 216/2/3 215/2/3
f 224/1/3 217/1/3 216/1/3
f 224/2/3 216/2/3 223/2/3
f 225/1/3 217/1/3 224/1/3
f 233/3/3 227/3/3 226/3/3
f 234/3/3 227/3/3 233/3/3
f 235/4/3 229/4/3 228/4/3
f 236/2/3 230/2/3 229/2/3
f 236/4/3 229/4/3 235/4/3
f 237/2/3 230/2/3 236/2/3
f 238/2/3 232/2/3 231/2/3
f 239/2/3 232/2/3 238/2/3
f 247/3/3 241/3/3 240/3/3
f 248/3/3 241/3/3 247/3/3
f 249/3/3 243/3/3 242/3/3
f 250/2/3 244/2/3 243/2/3
f 250/3/3 243/3/3 249/3/3
f 251/2/3 244/2/3 250/2/3
f 252/1/3 246/1/3 245/1/3
f 253/1/3 246/1/3 252/1/3
f 254/3/4 255/3/4 261/3/4
f 261/3/4 255/3/4 262/3/4
f 256/4/4 257/4/4 263/4/4
f 257/2/4 258/2/4 264/2/4
f 263/4/4 257/4/4 264/4/4
f 264/2/4 258/2/4 265/2/4
f 259/2/4 260/2/4 266/2/4
f 266/2/4 260/2/4 267/2/4
f 268/3/4 269/3/4 275/3/4
f 275/3/4 269/3/4 276/3/4
f 270/3/4 271/3/4 277/3/4
f 271/2/4 272/2/4 278/2/4
f 277/3/4 271/3/4 278/3/4
f 278/2/4 272/2/4 279/2/4
f 273/1/4 274/1/4 280/1/4
f 280/1/4 274/1/4 281/1/4
f 282/3/4 283/3/4 288/3/4
f 288/3/4 283/3/4 289/3/4
f 283/4/4 284/4/4 290/4/4
f 289/3/4 283/3/4 290/3/4
f 290/4/4 284/4/4 291/4/4
f 285/1/4 286/1/4 292/1/4
f 286/2/4 287/2/4 293/2/4
f 292/1/4 286/1/4 293/1/4
f 293/2/4 287/2/4 294/2/4
f 288/5/4 289/5/4 295/5/4
f 295/5/4 289/5/4 296/5/4
f 291/5/4 292/5/4 297/5/4
f 297/5/4 292/5/4 298/5/4
f 298/5/4 292/5/4 302/5/4
f 299/5/4 300/5/4 303/5/4
f 303/5/4 300/5/4 304/5/4
f 301/5/4 302/5/4 306/5/4
f 302/5/4 292/5/4 307/5/4
f 306/5/4 302/5/4 307/5/4
f 304/3/4 305/3/4 310/3/4
f 303/3/4 304/3/4 310/3/4
f 305/4/4 306/4/4 311/4/4
f 310/3/4 305/3/4 311/3/4
f 311/4/4 306/4/4 312/4/4
f 307/1/4 308/1/4 313/1/4
f 308/2/4 309/2/4 314/2/4
f 313/1/4 308/1/4 314/1/4
f 314/2/4 309/2/4 315/2/4
f 316/3/4 317/3/4 319/3/4
f 319/3/4 317/3/4 320/3/4
f 318/3/4 319/3/4 322/3/4
f 319/4/4 320/4/4 323/4/4
f 322/3/4 319/3/4 323/3/4
f 320/3/4 321/3/4 324/3/4
f 323/4/4 320/4/4 324/4/4
f 324/3/4 321/3/4 325/3/4
f 323/3/4 324/3/4 326/3/4
f 326/3/4 324/3/4 327/3/4
f 332/3/5 329/3/5 328/3/5
f 333/3/5 329/3/5 332/3/5
f 334/3/5 331/3/5 330/3/5
f 335/3/5 331/3/5 334/3/5
f 340/3/5 337/3/5 336/3/5
f 341/3/5 337/3/5 340/3/5
f 344/3/5 339/3/5 338/3/5
f 345/5/5 340/5/5 339/5/5
f 345/3/5 339/3/5 344/3/5
f 345/5/5 341/5/5 340/5/5
f 345/5/5 342/5/5 341/5/5
f 346/3/5 343/3/5 342/3/5
f 346/5/5 342/5/5 345/5/5
f 347/3/5 343/3/5 346/3/5
f 349/5/5 346/5/5 345/5/5
f 350/5/5 346/5/5 349/5/5
f 352/3/5 349/3/5 348/3/5
f 353/5/5 350/5/5 349/5/5
f 353/3/5 349/3/5 352/3/5
f 354/5/5 350/5/5 353/5/5
f 355/5/5 350/5/5 354/5/5
f 356/3/5 351/3/5 350/3/5
f 356/5/5 350/5/5 355/5/5
f 357/3/5 351/3/5 356/3/5
f 358/3/5 355/3/5 354/3/5
f 359/3/5 355/3/5 358/3/5
f 364/3/5 361/3/5 360/3/5
f 365/3/5 361/3/5 364/3/5
f 366/3/5 363/3/5 362/3/5
f 367/3/5 363/3/5 366/3/5
f 372/3/5 369/3/5 368/3/5
f 373/3/5 369/3/5 372/3/5
f 374/3/5 371/3/5 370/3/5
f 375/3/5 371/3/5 374/3/5
f 380/2/5 377/2/5 376/2/5
f 381/2/5 377/2/5 380/2/5
f 382/2/5 379/2/5 378/2/5
f 383/2/5 379/2/5 382/2/5
f 388/1/5 385/1/5 384/1/5
f 389/1/5 385/1/5 388/1/5
f 390/1/5 387/1/5 386/1/5
f 391/1/5 387/1/5 390/1/5
f 392/3/6 393/3/6 397/3/6
f 397/3/6 393/3/6 398/3/6
f 394/4/6 395/4/6 399/4/6
f 399/4/6 395/4/6 400/4/6
f 396/3/6 397/3/6 402/3/6
f 402/3/6 397/3/6 403/3/6
f 400/4/6 401/4/6 404/4/6
f 404/4/6 401/4/6 405/4/6
f 406/4/6 407/4/6 410/4/6
f 410/4/6 407/4/6 411/4/6
f 408/4/6 409/4/6 414/4/6
f 414/4/6 409/4/6 415/4/6
f 411/3/6 412/3/6 416/3/6
f 416/3/6 412/3/6 417/3/6
f 413/3/6 414/3/6 418/3/6
f 418/3/6 414/3/6 419/3/6
f 420/3/6 421/3/6 422/3/6
f 422/3/6 421/3/6 423/3/6
f 424/3/6 425/3/6 426/3/6
f 426/3/6 425/3/6 427/3/6
f 428/5/6 429/5/6 430/5/6
f 430/5/6 429/5/6 431/5/6
f 430/5/6 431/5/6 432/5/6
f 432/5/6 431/5/6 433/5/6
f 434/2/6 435/2/6 438/2/6
f 438/2/6 435/2/6 439/2/6
f 436/1/6 437/1/6 440/1/6
f 440/1/6 437/1/6 441/1/6
f 442/2/6 443/2/6 446/2/6
f 446/2/6 443/2/6 447/2/6
f 444/2/6 445/2/6 448/2/6
f 448/2/6 445/2/6 449/2/6
f 450/2/6 451/2/6 454/2/6
f 454/2/6 451/2/6 455/2/6
f 452/1/6 453/1/6 456/1/6
f 456/1/6 453/1/6 457/1/6
