# MagicaVoxel @ Ephtracy

# group
o 

# material
mtllib KnightHips.mtl
usemtl palette

# normals
vn -1 0 0
vn 1 0 0
vn 0 0 1
vn 0 0 -1
vn 0 -1 0
vn 0 1 0

# texcoords
vt 0.0449219 0.5
vt 0.0683594 0.5
vt 0.560547 0.5
vt 0.865234 0.5
vt 0.869141 0.5
vt 0.986328 0.5
vt 0.990234 0.5
vt 0.994141 0.5

# verts
v -0.4 1.7 0.9
v -0.4 1.7 0.6
v -0.4 1.8 0.9
v -0.4 1.8 0.6
v -0.3 1.6 0.9
v -0.3 1.6 0.6
v -0.3 1.7 1
v -0.3 1.7 0.9
v -0.3 1.7 0.6
v -0.3 1.7 0.5
v -0.3 1.8 1
v -0.3 1.8 0.9
v -0.3 1.8 0.6
v -0.3 1.8 0.5
v -0.2 0.2 0.6
v -0.2 0.2 0.5
v -0.2 0.3 1.1
v -0.2 0.3 1
v -0.2 0.4 1.1
v -0.2 0.4 1
v -0.2 0.5 1.1
v -0.2 0.5 1
v -0.2 0.8 0.6
v -0.2 0.8 0.5
v -0.2 1 1.1
v -0.2 1 1
v -0.2 1 0.6
v -0.2 1 0.5
v -0.2 1.1 1.1
v -0.2 1.1 1
v -0.2 1.2 1.1
v -0.2 1.2 1
v -0.2 1.2 0.6
v -0.2 1.2 0.5
v -0.2 1.3 1
v -0.2 1.3 0.9
v -0.2 1.3 0.5
v -0.2 1.3 0.4
v -0.2 1.4 1
v -0.2 1.4 0.9
v -0.2 1.4 0.6
v -0.2 1.4 0.5
v -0.2 1.4 0.4
v -0.2 1.5 1.1
v -0.2 1.5 1
v -0.2 1.6 1.1
v -0.2 1.6 1
v -0.2 1.6 0.9
v -0.2 1.6 0.6
v -0.2 1.6 0.5
v -0.2 1.6 0.4
v -0.1 0.2 1.1
v -0.1 0.2 1
v -0.1 0.3 1.1
v -0.1 0.3 1
v -0.1 1.2 1
v -0.1 1.2 0.9
v -0.1 1.3 1
v -0.1 1.3 0.9
v -0.1 1.4 0.9
v -0.1 1.4 0.6
v -0.1 1.6 1
v -0.1 1.6 0.9
v -0.1 1.6 0.6
v -0.1 1.6 0.5
v -0.1 1.7 1
v -0.1 1.7 0.9
v -0.1 1.7 0.6
v -0.1 1.7 0.5
v 0 1.3 0.9
v 0 1.3 0.6
v 0 1.4 0.9
v 0 1.4 0.6
v 0.1 0.4 0.6
v 0.1 0.4 0.5
v 0.1 0.6 0.6
v 0.1 0.6 0.5
v 0.1 1.4 1.1
v 0.1 1.4 1
v 0.1 1.5 1.1
v 0.1 1.5 1
v 0.1 1.5 0.9
v 0.1 1.5 0.6
v 0.1 1.6 0.9
v 0.1 1.6 0.6
v 0.2 1.5 1.1
v 0.2 1.5 1
v 0.2 1.5 0.5
v 0.2 1.5 0.4
v 0.2 1.6 1.1
v 0.2 1.6 1
v 0.2 1.6 0.5
v 0.2 1.6 0.4
v -0.1 0.2 0.6
v -0.1 0.2 0.5
v -0.1 0.5 0.6
v -0.1 0.5 0.5
v -0.1 1.5 1.1
v -0.1 1.5 1
v -0.1 1.5 0.5
v -0.1 1.5 0.4
v -0.1 1.6 1.1
v -0.1 1.6 1
v -0.1 1.6 0.5
v -0.1 1.6 0.4
v 0 0.5 0.6
v 0 0.5 0.5
v 0 0.6 0.6
v 0 0.6 0.5
v 0 1.4 1.1
v 0 1.4 1
v 0 1.5 1.1
v 0 1.5 1
v 0 1.5 0.9
v 0 1.5 0.6
v 0 1.6 0.9
v 0 1.6 0.6
v 0.1 1.3 0.9
v 0.1 1.3 0.6
v 0.1 1.4 0.9
v 0.1 1.4 0.6
v 0.2 0.2 1.1
v 0.2 0.2 1
v 0.2 0.3 1.1
v 0.2 0.3 1
v 0.2 0.4 0.6
v 0.2 0.4 0.5
v 0.2 0.5 0.6
v 0.2 0.5 0.5
v 0.2 1.2 1
v 0.2 1.2 0.9
v 0.2 1.3 1
v 0.2 1.3 0.9
v 0.2 1.4 0.9
v 0.2 1.4 0.6
v 0.2 1.6 1
v 0.2 1.6 0.9
v 0.2 1.6 0.6
v 0.2 1.6 0.5
v 0.2 1.7 1
v 0.2 1.7 0.9
v 0.2 1.7 0.6
v 0.2 1.7 0.5
v 0.3 0.3 1.1
v 0.3 0.3 1
v 0.3 0.5 0.6
v 0.3 0.5 0.5
v 0.3 0.6 0.6
v 0.3 0.6 0.5
v 0.3 0.8 1.1
v 0.3 0.8 1
v 0.3 0.8 0.6
v 0.3 0.8 0.5
v 0.3 1 1.1
v 0.3 1 1
v 0.3 1.1 0.6
v 0.3 1.1 0.5
v 0.3 1.3 1.1
v 0.3 1.3 1
v 0.3 1.3 0.9
v 0.3 1.3 0.5
v 0.3 1.3 0.4
v 0.3 1.4 1
v 0.3 1.4 0.9
v 0.3 1.4 0.6
v 0.3 1.4 0.5
v 0.3 1.5 1.1
v 0.3 1.5 1
v 0.3 1.5 0.5
v 0.3 1.5 0.4
v 0.3 1.6 1.1
v 0.3 1.6 1
v 0.3 1.6 0.9
v 0.3 1.6 0.6
v 0.3 1.6 0.5
v 0.3 1.6 0.4
v 0.4 1.6 0.9
v 0.4 1.6 0.6
v 0.4 1.7 1
v 0.4 1.7 0.9
v 0.4 1.7 0.6
v 0.4 1.7 0.5
v 0.4 1.8 1
v 0.4 1.8 0.9
v 0.4 1.8 0.6
v 0.4 1.8 0.5
v 0.5 1.7 0.9
v 0.5 1.7 0.6
v 0.5 1.8 0.9
v 0.5 1.8 0.6
v -0.2 0.3 1.1
v -0.2 0.4 1.1
v -0.2 0.5 1.1
v -0.2 1 1.1
v -0.2 1.1 1.1
v -0.2 1.2 1.1
v -0.2 1.5 1.1
v -0.2 1.6 1.1
v -0.1 0.2 1.1
v -0.1 0.3 1.1
v -0.1 0.4 1.1
v -0.1 0.5 1.1
v -0.1 1 1.1
v -0.1 1.1 1.1
v -0.1 1.2 1.1
v -0.1 1.3 1.1
v -0.1 1.4 1.1
v -0.1 1.5 1.1
v -0.1 1.6 1.1
v 0 0.2 1.1
v 0 0.3 1.1
v 0 0.4 1.1
v 0 0.5 1.1
v 0 1 1.1
v 0 1.2 1.1
v 0 1.3 1.1
v 0 1.4 1.1
v 0 1.5 1.1
v 0.1 0.2 1.1
v 0.1 0.3 1.1
v 0.1 0.4 1.1
v 0.1 0.7 1.1
v 0.1 1.2 1.1
v 0.1 1.3 1.1
v 0.1 1.4 1.1
v 0.1 1.5 1.1
v 0.2 0.2 1.1
v 0.2 0.3 1.1
v 0.2 0.4 1.1
v 0.2 0.7 1.1
v 0.2 0.8 1.1
v 0.2 1 1.1
v 0.2 1.2 1.1
v 0.2 1.3 1.1
v 0.2 1.4 1.1
v 0.2 1.5 1.1
v 0.2 1.6 1.1
v 0.3 0.3 1.1
v 0.3 0.8 1.1
v 0.3 1 1.1
v 0.3 1.3 1.1
v 0.3 1.5 1.1
v 0.3 1.6 1.1
v -0.3 1.7 1
v -0.3 1.8 1
v -0.1 1.5 1
v -0.1 1.6 1
v -0.1 1.7 1
v 0 1.4 1
v 0 1.5 1
v 0 1.6 1
v 0.1 1.4 1
v 0.1 1.5 1
v 0.1 1.6 1
v 0.2 1.5 1
v 0.2 1.6 1
v 0.2 1.7 1
v 0.4 1.7 1
v 0.4 1.8 1
v -0.4 1.7 0.9
v -0.4 1.8 0.9
v -0.3 1.6 0.9
v -0.3 1.7 0.9
v -0.3 1.8 0.9
v -0.2 1.6 0.9
v -0.1 1.6 0.9
v -0.1 1.7 0.9
v 0.2 1.6 0.9
v 0.2 1.7 0.9
v 0.3 1.6 0.9
v 0.4 1.6 0.9
v 0.4 1.7 0.9
v 0.4 1.8 0.9
v 0.5 1.7 0.9
v 0.5 1.8 0.9
v -0.2 0.2 0.6
v -0.2 0.8 0.6
v -0.2 1 0.6
v -0.2 1.2 0.6
v -0.2 1.4 0.6
v -0.2 1.6 0.6
v -0.1 0.2 0.6
v -0.1 0.5 0.6
v -0.1 0.6 0.6
v -0.1 0.8 0.6
v -0.1 0.9 0.6
v -0.1 1 0.6
v -0.1 1.2 0.6
v -0.1 1.3 0.6
v -0.1 1.4 0.6
v -0.1 1.6 0.6
v 0 0.5 0.6
v 0 0.6 0.6
v 0 0.7 0.6
v 0 0.9 0.6
v 0 1 0.6
v 0 1.1 0.6
v 0 1.2 0.6
v 0 1.3 0.6
v 0 1.4 0.6
v 0 1.5 0.6
v 0 1.6 0.6
v 0.1 0.4 0.6
v 0.1 0.6 0.6
v 0.1 0.7 0.6
v 0.1 0.8 0.6
v 0.1 0.9 0.6
v 0.1 1.1 0.6
v 0.1 1.2 0.6
v 0.1 1.3 0.6
v 0.1 1.4 0.6
v 0.1 1.5 0.6
v 0.1 1.6 0.6
v 0.2 0.4 0.6
v 0.2 0.5 0.6
v 0.2 0.6 0.6
v 0.2 0.7 0.6
v 0.2 0.8 0.6
v 0.2 1.1 0.6
v 0.2 1.2 0.6
v 0.2 1.3 0.6
v 0.2 1.4 0.6
v 0.2 1.6 0.6
v 0.3 0.5 0.6
v 0.3 0.6 0.6
v 0.3 0.8 0.6
v 0.3 1.1 0.6
v 0.3 1.4 0.6
v 0.3 1.6 0.6
v -0.2 0.3 1
v -0.2 0.4 1
v -0.2 0.5 1
v -0.2 1 1
v -0.2 1.1 1
v -0.2 1.2 1
v -0.2 1.3 1
v -0.1 0.2 1
v -0.1 0.3 1
v -0.1 0.4 1
v -0.1 0.5 1
v -0.1 1 1
v -0.1 1.1 1
v -0.1 1.2 1
v -0.1 1.3 1
v 0 0.2 1
v 0 0.3 1
v 0 0.4 1
v 0 0.5 1
v 0 1 1
v 0 1.2 1
v 0.1 0.2 1
v 0.1 0.3 1
v 0.1 0.4 1
v 0.1 0.7 1
v 0.1 1.2 1
v 0.2 0.2 1
v 0.2 0.3 1
v 0.2 0.4 1
v 0.2 0.7 1
v 0.2 0.8 1
v 0.2 1 1
v 0.2 1.2 1
v 0.2 1.3 1
v 0.3 0.3 1
v 0.3 0.8 1
v 0.3 1 1
v 0.3 1.3 1
v -0.2 1.3 0.9
v -0.2 1.4 0.9
v -0.2 1.6 0.9
v -0.1 1.2 0.9
v -0.1 1.3 0.9
v -0.1 1.4 0.9
v -0.1 1.6 0.9
v 0 1.3 0.9
v 0 1.4 0.9
v 0 1.5 0.9
v 0 1.6 0.9
v 0.1 1.3 0.9
v 0.1 1.4 0.9
v 0.1 1.5 0.9
v 0.1 1.6 0.9
v 0.2 1.2 0.9
v 0.2 1.3 0.9
v 0.2 1.4 0.9
v 0.2 1.6 0.9
v 0.3 1.3 0.9
v 0.3 1.4 0.9
v 0.3 1.6 0.9
v -0.4 1.7 0.6
v -0.4 1.8 0.6
v -0.3 1.6 0.6
v -0.3 1.7 0.6
v -0.3 1.8 0.6
v -0.2 1.6 0.6
v -0.1 1.6 0.6
v -0.1 1.7 0.6
v 0.2 1.6 0.6
v 0.2 1.7 0.6
v 0.3 1.6 0.6
v 0.4 1.6 0.6
v 0.4 1.7 0.6
v 0.4 1.8 0.6
v 0.5 1.7 0.6
v 0.5 1.8 0.6
v -0.3 1.7 0.5
v -0.3 1.8 0.5
v -0.2 0.2 0.5
v -0.2 0.8 0.5
v -0.2 1 0.5
v -0.2 1.2 0.5
v -0.2 1.3 0.5
v -0.1 0.2 0.5
v -0.1 0.5 0.5
v -0.1 0.6 0.5
v -0.1 0.8 0.5
v -0.1 0.9 0.5
v -0.1 1 0.5
v -0.1 1.2 0.5
v -0.1 1.3 0.5
v -0.1 1.5 0.5
v -0.1 1.6 0.5
v -0.1 1.7 0.5
v 0 0.5 0.5
v 0 0.6 0.5
v 0 0.7 0.5
v 0 0.9 0.5
v 0 1 0.5
v 0 1.1 0.5
v 0 1.2 0.5
v 0 1.3 0.5
v 0 1.5 0.5
v 0 1.6 0.5
v 0.1 0.4 0.5
v 0.1 0.6 0.5
v 0.1 0.7 0.5
v 0.1 0.8 0.5
v 0.1 0.9 0.5
v 0.1 1.1 0.5
v 0.1 1.2 0.5
v 0.1 1.3 0.5
v 0.1 1.5 0.5
v 0.1 1.6 0.5
v 0.2 0.4 0.5
v 0.2 0.5 0.5
v 0.2 0.6 0.5
v 0.2 0.7 0.5
v 0.2 0.8 0.5
v 0.2 1.1 0.5
v 0.2 1.2 0.5
v 0.2 1.3 0.5
v 0.2 1.5 0.5
v 0.2 1.6 0.5
v 0.2 1.7 0.5
v 0.3 0.5 0.5
v 0.3 0.6 0.5
v 0.3 0.8 0.5
v 0.3 1.1 0.5
v 0.3 1.3 0.5
v 0.4 1.7 0.5
v 0.4 1.8 0.5
v -0.2 1.3 0.4
v -0.2 1.4 0.4
v -0.2 1.6 0.4
v -0.1 1.3 0.4
v -0.1 1.4 0.4
v -0.1 1.5 0.4
v -0.1 1.6 0.4
v 0 1.3 0.4
v 0 1.5 0.4
v 0.1 1.3 0.4
v 0.1 1.5 0.4
v 0.2 1.3 0.4
v 0.2 1.5 0.4
v 0.2 1.6 0.4
v 0.3 1.3 0.4
v 0.3 1.5 0.4
v 0.3 1.6 0.4
v -0.1 0.2 1.1
v 0 0.2 1.1
v 0.1 0.2 1.1
v 0.2 0.2 1.1
v -0.1 0.2 1
v 0 0.2 1
v 0.1 0.2 1
v 0.2 0.2 1
v -0.2 0.2 0.6
v -0.1 0.2 0.6
v -0.2 0.2 0.5
v -0.1 0.2 0.5
v -0.2 0.3 1.1
v -0.1 0.3 1.1
v 0.2 0.3 1.1
v 0.3 0.3 1.1
v -0.2 0.3 1
v -0.1 0.3 1
v 0.2 0.3 1
v 0.3 0.3 1
v 0.1 0.4 0.6
v 0.2 0.4 0.6
v 0.1 0.4 0.5
v 0.2 0.4 0.5
v -0.1 0.5 0.6
v 0 0.5 0.6
v 0.2 0.5 0.6
v 0.3 0.5 0.6
v -0.1 0.5 0.5
v 0 0.5 0.5
v 0.2 0.5 0.5
v 0.3 0.5 0.5
v 0 0.6 0.6
v 0.1 0.6 0.6
v 0 0.6 0.5
v 0.1 0.6 0.5
v -0.1 1.2 1
v 0 1.2 1
v 0.1 1.2 1
v 0.2 1.2 1
v -0.1 1.2 0.9
v 0.2 1.2 0.9
v -0.2 1.3 1
v -0.1 1.3 1
v 0.2 1.3 1
v 0.3 1.3 1
v -0.2 1.3 0.9
v -0.1 1.3 0.9
v 0 1.3 0.9
v 0.1 1.3 0.9
v 0.2 1.3 0.9
v 0.3 1.3 0.9
v 0 1.3 0.6
v 0.1 1.3 0.6
v -0.2 1.3 0.5
v -0.1 1.3 0.5
v 0 1.3 0.5
v 0.1 1.3 0.5
v 0.2 1.3 0.5
v 0.3 1.3 0.5
v -0.2 1.3 0.4
v -0.1 1.3 0.4
v 0 1.3 0.4
v 0.1 1.3 0.4
v 0.2 1.3 0.4
v 0.3 1.3 0.4
v -0.1 1.4 0.9
v 0 1.4 0.9
v 0.1 1.4 0.9
v 0.2 1.4 0.9
v -0.1 1.4 0.6
v 0 1.4 0.6
v 0.1 1.4 0.6
v 0.2 1.4 0.6
v -0.3 1.6 0.9
v -0.2 1.6 0.9
v -0.1 1.6 0.9
v 0 1.6 0.9
v 0.1 1.6 0.9
v 0.2 1.6 0.9
v 0.3 1.6 0.9
v 0.4 1.6 0.9
v -0.3 1.6 0.6
v -0.2 1.6 0.6
v -0.1 1.6 0.6
v 0 1.6 0.6
v 0.1 1.6 0.6
v 0.2 1.6 0.6
v 0.3 1.6 0.6
v 0.4 1.6 0.6
v -0.3 1.7 1
v -0.1 1.7 1
v 0.2 1.7 1
v 0.4 1.7 1
v -0.4 1.7 0.9
v -0.3 1.7 0.9
v -0.1 1.7 0.9
v 0.2 1.7 0.9
v 0.4 1.7 0.9
v 0.5 1.7 0.9
v -0.4 1.7 0.6
v -0.3 1.7 0.6
v -0.1 1.7 0.6
v 0.2 1.7 0.6
v 0.4 1.7 0.6
v 0.5 1.7 0.6
v -0.3 1.7 0.5
v -0.1 1.7 0.5
v 0.2 1.7 0.5
v 0.4 1.7 0.5
v 0 1.4 1.1
v 0.1 1.4 1.1
v 0 1.4 1
v 0.1 1.4 1
v -0.1 1.5 1.1
v 0 1.5 1.1
v 0.1 1.5 1.1
v 0.2 1.5 1.1
v -0.1 1.5 1
v 0 1.5 1
v 0.1 1.5 1
v 0.2 1.5 1
v 0 1.5 0.9
v 0.1 1.5 0.9
v 0 1.5 0.6
v 0.1 1.5 0.6
v -0.1 1.5 0.5
v 0 1.5 0.5
v 0.1 1.5 0.5
v 0.2 1.5 0.5
v -0.1 1.5 0.4
v 0 1.5 0.4
v 0.1 1.5 0.4
v 0.2 1.5 0.4
v -0.2 1.6 1.1
v -0.1 1.6 1.1
v 0.2 1.6 1.1
v 0.3 1.6 1.1
v -0.2 1.6 1
v -0.1 1.6 1
v 0.2 1.6 1
v 0.3 1.6 1
v -0.2 1.6 0.9
v -0.1 1.6 0.9
v 0.2 1.6 0.9
v 0.3 1.6 0.9
v -0.2 1.6 0.6
v -0.1 1.6 0.6
v 0.2 1.6 0.6
v 0.3 1.6 0.6
v -0.2 1.6 0.5
v -0.1 1.6 0.5
v 0.2 1.6 0.5
v 0.3 1.6 0.5
v -0.2 1.6 0.4
v -0.1 1.6 0.4
v 0.2 1.6 0.4
v 0.3 1.6 0.4
v -0.3 1.8 1
v 0.4 1.8 1
v -0.4 1.8 0.9
v -0.3 1.8 0.9
v 0.4 1.8 0.9
v 0.5 1.8 0.9
v -0.4 1.8 0.6
v -0.3 1.8 0.6
v 0.4 1.8 0.6
v 0.5 1.8 0.6
v -0.3 1.8 0.5
v 0.4 1.8 0.5

# faces
f 3/6/1 2/6/1 1/6/1
f 4/6/1 2/6/1 3/6/1
f 8/7/1 6/7/1 5/7/1
f 9/7/1 6/7/1 8/7/1
f 11/6/1 8/6/1 7/6/1
f 12/6/1 8/6/1 11/6/1
f 13/6/1 10/6/1 9/6/1
f 14/6/1 10/6/1 13/6/1
f 19/5/1 18/5/1 17/5/1
f 20/5/1 18/5/1 19/5/1
f 21/4/1 20/4/1 19/4/1
f 22/4/1 20/4/1 21/4/1
f 23/5/1 16/5/1 15/5/1
f 24/5/1 16/5/1 23/5/1
f 25/5/1 22/5/1 21/5/1
f 26/5/1 22/5/1 25/5/1
f 27/3/1 24/3/1 23/3/1
f 28/3/1 24/3/1 27/3/1
f 29/4/1 26/4/1 25/4/1
f 30/4/1 26/4/1 29/4/1
f 31/5/1 30/5/1 29/5/1
f 32/5/1 30/5/1 31/5/1
f 33/5/1 28/5/1 27/5/1
f 34/5/1 28/5/1 33/5/1
f 35/4/1 32/4/1 31/4/1
f 37/3/1 34/3/1 33/3/1
f 39/4/1 35/4/1 31/4/1
f 39/5/1 36/5/1 35/5/1
f 40/5/1 36/5/1 39/5/1
f 41/3/1 37/3/1 33/3/1
f 41/3/1 38/3/1 37/3/1
f 42/3/1 38/3/1 41/3/1
f 43/3/1 38/3/1 42/3/1
f 44/4/1 39/4/1 31/4/1
f 45/8/1 40/8/1 39/8/1
f 45/4/1 39/4/1 44/4/1
f 46/5/1 45/5/1 44/5/1
f 47/8/1 40/8/1 45/8/1
f 47/5/1 45/5/1 46/5/1
f 48/8/1 40/8/1 47/8/1
f 49/8/1 42/8/1 41/8/1
f 50/5/1 43/5/1 42/5/1
f 50/8/1 42/8/1 49/8/1
f 51/5/1 43/5/1 50/5/1
f 54/4/1 53/4/1 52/4/1
f 55/4/1 53/4/1 54/4/1
f 58/5/1 57/5/1 56/5/1
f 59/5/1 57/5/1 58/5/1
f 63/7/1 61/7/1 60/7/1
f 64/7/1 61/7/1 63/7/1
f 66/6/1 63/6/1 62/6/1
f 67/6/1 63/6/1 66/6/1
f 68/6/1 65/6/1 64/6/1
f 69/6/1 65/6/1 68/6/1
f 72/7/1 71/7/1 70/7/1
f 73/7/1 71/7/1 72/7/1
f 76/5/1 75/5/1 74/5/1
f 77/5/1 75/5/1 76/5/1
f 80/4/1 79/4/1 78/4/1
f 81/4/1 79/4/1 80/4/1
f 84/7/1 83/7/1 82/7/1
f 85/7/1 83/7/1 84/7/1
f 90/5/1 87/5/1 86/5/1
f 91/5/1 87/5/1 90/5/1
f 92/5/1 89/5/1 88/5/1
f 93/5/1 89/5/1 92/5/1
f 94/5/2 95/5/2 96/5/2
f 96/5/2 95/5/2 97/5/2
f 98/5/2 99/5/2 102/5/2
f 102/5/2 99/5/2 103/5/2
f 100/5/2 101/5/2 104/5/2
f 104/5/2 101/5/2 105/5/2
f 106/5/2 107/5/2 108/5/2
f 108/5/2 107/5/2 109/5/2
f 110/4/2 111/4/2 112/4/2
f 112/4/2 111/4/2 113/4/2
f 114/7/2 115/7/2 116/7/2
f 116/7/2 115/7/2 117/7/2
f 118/7/2 119/7/2 120/7/2
f 120/7/2 119/7/2 121/7/2
f 122/4/2 123/4/2 124/4/2
f 124/4/2 123/4/2 125/4/2
f 126/5/2 127/5/2 128/5/2
f 128/5/2 127/5/2 129/5/2
f 130/5/2 131/5/2 132/5/2
f 132/5/2 131/5/2 133/5/2
f 134/7/2 135/7/2 137/7/2
f 137/7/2 135/7/2 138/7/2
f 136/6/2 137/6/2 140/6/2
f 140/6/2 137/6/2 141/6/2
f 138/6/2 139/6/2 142/6/2
f 142/6/2 139/6/2 143/6/2
f 146/3/2 147/3/2 148/3/2
f 148/3/2 147/3/2 149/3/2
f 144/5/2 145/5/2 150/5/2
f 150/5/2 145/5/2 151/5/2
f 148/5/2 149/5/2 152/5/2
f 152/5/2 149/5/2 153/5/2
f 150/4/2 151/4/2 154/4/2
f 154/4/2 151/4/2 155/4/2
f 152/3/2 153/3/2 156/3/2
f 156/3/2 153/3/2 157/3/2
f 154/5/2 155/5/2 158/5/2
f 158/5/2 155/5/2 159/5/2
f 156/5/2 157/5/2 161/5/2
f 158/4/2 159/4/2 163/4/2
f 159/5/2 160/5/2 163/5/2
f 163/5/2 160/5/2 164/5/2
f 156/5/2 161/5/2 165/5/2
f 161/3/2 162/3/2 166/3/2
f 165/5/2 161/5/2 166/5/2
f 158/4/2 163/4/2 167/4/2
f 163/8/2 164/8/2 168/8/2
f 167/4/2 163/4/2 168/4/2
f 166/3/2 162/3/2 169/3/2
f 165/8/2 166/8/2 169/8/2
f 169/3/2 162/3/2 170/3/2
f 167/5/2 168/5/2 171/5/2
f 168/8/2 164/8/2 172/8/2
f 171/5/2 168/5/2 172/5/2
f 172/8/2 164/8/2 173/8/2
f 165/8/2 169/8/2 174/8/2
f 169/5/2 170/5/2 175/5/2
f 174/8/2 169/8/2 175/8/2
f 175/5/2 170/5/2 176/5/2
f 177/7/2 178/7/2 180/7/2
f 180/7/2 178/7/2 181/7/2
f 179/6/2 180/6/2 183/6/2
f 183/6/2 180/6/2 184/6/2
f 181/6/2 182/6/2 185/6/2
f 185/6/2 182/6/2 186/6/2
f 187/6/2 188/6/2 189/6/2
f 189/6/2 188/6/2 190/6/2
f 200/5/3 192/5/3 191/5/3
f 201/4/3 193/4/3 192/4/3
f 201/5/3 192/5/3 200/5/3
f 202/5/3 194/5/3 193/5/3
f 202/4/3 193/4/3 201/4/3
f 203/4/3 195/4/3 194/4/3
f 203/5/3 194/5/3 202/5/3
f 204/5/3 196/5/3 195/5/3
f 204/4/3 195/4/3 203/4/3
f 205/4/3 197/4/3 196/4/3
f 205/5/3 196/5/3 204/5/3
f 206/4/3 197/4/3 205/4/3
f 207/4/3 197/4/3 206/4/3
f 208/5/3 198/5/3 197/5/3
f 208/4/3 197/4/3 207/4/3
f 209/5/3 198/5/3 208/5/3
f 210/4/3 200/4/3 199/4/3
f 210/4/3 201/4/3 200/4/3
f 211/4/3 201/4/3 210/4/3
f 212/1/3 202/1/3 201/1/3
f 212/4/3 201/4/3 211/4/3
f 213/2/3 203/2/3 202/2/3
f 213/1/3 202/1/3 212/1/3
f 214/1/3 204/1/3 203/1/3
f 214/2/3 203/2/3 213/2/3
f 214/1/3 205/1/3 204/1/3
f 215/2/3 206/2/3 205/2/3
f 215/1/3 205/1/3 214/1/3
f 216/1/3 207/1/3 206/1/3
f 216/2/3 206/2/3 215/2/3
f 217/4/3 208/4/3 207/4/3
f 217/1/3 207/1/3 216/1/3
f 218/4/3 208/4/3 217/4/3
f 219/5/3 211/5/3 210/5/3
f 220/2/3 212/2/3 211/2/3
f 220/5/3 211/5/3 219/5/3
f 221/5/3 215/5/3 214/5/3
f 221/2/3 212/2/3 220/2/3
f 221/5/3 216/5/3 215/5/3
f 221/5/3 213/5/3 212/5/3
f 221/5/3 214/5/3 213/5/3
f 222/5/3 216/5/3 221/5/3
f 223/5/3 216/5/3 222/5/3
f 224/4/3 217/4/3 216/4/3
f 224/5/3 216/5/3 223/5/3
f 225/4/3 217/4/3 224/4/3
f 227/4/3 220/4/3 219/4/3
f 228/5/3 221/5/3 220/5/3
f 228/4/3 220/4/3 227/4/3
f 229/1/3 222/1/3 221/1/3
f 229/5/3 221/5/3 228/5/3
f 230/2/3 223/2/3 222/2/3
f 230/1/3 222/1/3 229/1/3
f 231/2/3 223/2/3 230/2/3
f 232/2/3 223/2/3 231/2/3
f 233/1/3 224/1/3 223/1/3
f 233/2/3 223/2/3 232/2/3
f 233/1/3 225/1/3 224/1/3
f 234/1/3 225/1/3 233/1/3
f 235/4/3 226/4/3 225/4/3
f 235/1/3 225/1/3 234/1/3
f 236/4/3 226/4/3 235/4/3
f 238/5/3 229/5/3 228/5/3
f 238/5/3 231/5/3 230/5/3
f 238/5/3 230/5/3 229/5/3
f 239/4/3 232/4/3 231/4/3
f 239/5/3 231/5/3 238/5/3
f 240/5/3 234/5/3 233/5/3
f 240/4/3 232/4/3 239/4/3
f 240/5/3 233/5/3 232/5/3
f 241/4/3 236/4/3 235/4/3
f 241/5/3 234/5/3 240/5/3
f 241/4/3 235/4/3 234/4/3
f 242/5/3 237/5/3 236/5/3
f 242/4/3 236/4/3 241/4/3
f 243/5/3 237/5/3 242/5/3
f 248/6/3 245/6/3 244/6/3
f 250/8/3 247/8/3 246/8/3
f 251/6/3 248/6/3 247/6/3
f 251/8/3 247/8/3 250/8/3
f 252/8/3 250/8/3 249/8/3
f 253/6/3 251/6/3 250/6/3
f 253/8/3 250/8/3 252/8/3
f 254/6/3 248/6/3 251/6/3
f 254/6/3 251/6/3 253/6/3
f 255/8/3 254/8/3 253/8/3
f 256/6/3 248/6/3 254/6/3
f 256/8/3 254/8/3 255/8/3
f 257/6/3 245/6/3 248/6/3
f 257/6/3 248/6/3 256/6/3
f 258/6/3 245/6/3 257/6/3
f 259/6/3 245/6/3 258/6/3
f 263/6/3 261/6/3 260/6/3
f 264/6/3 261/6/3 263/6/3
f 265/7/3 263/7/3 262/7/3
f 266/7/3 263/7/3 265/7/3
f 267/7/3 263/7/3 266/7/3
f 270/7/3 269/7/3 268/7/3
f 271/7/3 269/7/3 270/7/3
f 272/7/3 269/7/3 271/7/3
f 274/6/3 273/6/3 272/6/3
f 275/6/3 273/6/3 274/6/3
f 282/5/3 277/5/3 276/5/3
f 283/5/3 277/5/3 282/5/3
f 284/5/3 277/5/3 283/5/3
f 285/3/3 278/3/3 277/3/3
f 285/5/3 277/5/3 284/5/3
f 286/3/3 278/3/3 285/3/3
f 287/5/3 279/5/3 278/5/3
f 287/3/3 278/3/3 286/3/3
f 288/3/3 280/3/3 279/3/3
f 288/5/3 279/5/3 287/5/3
f 289/3/3 280/3/3 288/3/3
f 290/8/3 281/8/3 280/8/3
f 290/3/3 280/3/3 289/3/3
f 291/8/3 281/8/3 290/8/3
f 292/5/3 284/5/3 283/5/3
f 293/2/3 286/2/3 285/2/3
f 293/5/3 284/5/3 292/5/3
f 293/2/3 285/2/3 284/2/3
f 294/2/3 286/2/3 293/2/3
f 295/5/3 287/5/3 286/5/3
f 295/2/3 286/2/3 294/2/3
f 296/3/3 288/3/3 287/3/3
f 296/5/3 287/5/3 295/5/3
f 297/3/3 288/3/3 296/3/3
f 298/5/3 289/5/3 288/5/3
f 298/3/3 288/3/3 297/3/3
f 299/8/3 290/8/3 289/8/3
f 299/5/3 289/5/3 298/5/3
f 300/8/3 290/8/3 299/8/3
f 304/5/3 294/5/3 293/5/3
f 305/1/3 295/1/3 294/1/3
f 305/5/3 294/5/3 304/5/3
f 306/1/3 295/1/3 305/1/3
f 307/2/3 297/2/3 296/2/3
f 307/1/3 295/1/3 306/1/3
f 307/2/3 296/2/3 295/2/3
f 308/5/3 299/5/3 298/5/3
f 308/2/3 297/2/3 307/2/3
f 308/5/3 298/5/3 297/5/3
f 309/5/3 299/5/3 308/5/3
f 310/5/3 299/5/3 309/5/3
f 312/6/3 302/6/3 301/6/3
f 313/6/3 302/6/3 312/6/3
f 314/5/3 304/5/3 303/5/3
f 314/5/3 305/5/3 304/5/3
f 315/5/3 305/5/3 314/5/3
f 316/5/3 305/5/3 315/5/3
f 317/3/3 306/3/3 305/3/3
f 317/5/3 305/5/3 316/5/3
f 318/5/3 307/5/3 306/5/3
f 318/3/3 306/3/3 317/3/3
f 318/5/3 308/5/3 307/5/3
f 319/2/3 309/2/3 308/2/3
f 319/5/3 308/5/3 318/5/3
f 320/1/3 310/1/3 309/1/3
f 320/2/3 309/2/3 319/2/3
f 321/8/3 311/8/3 310/8/3
f 321/1/3 310/1/3 320/1/3
f 322/8/3 311/8/3 321/8/3
f 324/3/3 316/3/3 315/3/3
f 325/5/3 317/5/3 316/5/3
f 325/3/3 316/3/3 324/3/3
f 325/5/3 318/5/3 317/5/3
f 326/3/3 319/3/3 318/3/3
f 326/5/3 318/5/3 325/5/3
f 327/5/3 320/5/3 319/5/3
f 327/3/3 319/3/3 326/3/3
f 327/5/3 322/5/3 321/5/3
f 327/5/3 321/5/3 320/5/3
f 328/8/3 323/8/3 322/8/3
f 328/5/3 322/5/3 327/5/3
f 329/8/3 323/8/3 328/8/3
f 330/5/4 331/5/4 338/5/4
f 331/4/4 332/4/4 339/4/4
f 338/5/4 331/5/4 339/5/4
f 332/5/4 333/5/4 340/5/4
f 339/4/4 332/4/4 340/4/4
f 333/4/4 334/4/4 341/4/4
f 340/5/4 333/5/4 341/5/4
f 334/5/4 335/5/4 342/5/4
f 341/4/4 334/4/4 342/4/4
f 335/4/4 336/4/4 343/4/4
f 342/5/4 335/5/4 343/5/4
f 343/4/4 336/4/4 344/4/4
f 337/4/4 338/4/4 345/4/4
f 338/4/4 339/4/4 345/4/4
f 345/4/4 339/4/4 346/4/4
f 339/1/4 340/1/4 347/1/4
f 346/4/4 339/4/4 347/4/4
f 340/2/4 341/2/4 348/2/4
f 347/1/4 340/1/4 348/1/4
f 341/1/4 342/1/4 349/1/4
f 348/2/4 341/2/4 349/2/4
f 342/1/4 343/1/4 349/1/4
f 349/1/4 343/1/4 350/1/4
f 345/5/4 346/5/4 351/5/4
f 346/2/4 347/2/4 352/2/4
f 351/5/4 346/5/4 352/5/4
f 347/5/4 348/5/4 353/5/4
f 352/2/4 347/2/4 353/2/4
f 348/5/4 349/5/4 353/5/4
f 349/5/4 350/5/4 353/5/4
f 353/5/4 350/5/4 354/5/4
f 354/5/4 350/5/4 355/5/4
f 351/4/4 352/4/4 356/4/4
f 352/5/4 353/5/4 357/5/4
f 356/4/4 352/4/4 357/4/4
f 353/1/4 354/1/4 358/1/4
f 357/5/4 353/5/4 358/5/4
f 354/2/4 355/2/4 359/2/4
f 358/1/4 354/1/4 359/1/4
f 359/2/4 355/2/4 360/2/4
f 360/2/4 355/2/4 361/2/4
f 361/2/4 355/2/4 362/2/4
f 357/5/4 358/5/4 364/5/4
f 359/5/4 360/5/4 364/5/4
f 358/5/4 359/5/4 364/5/4
f 360/4/4 361/4/4 365/4/4
f 364/5/4 360/5/4 365/5/4
f 361/5/4 362/5/4 366/5/4
f 365/4/4 361/4/4 366/4/4
f 362/5/4 363/5/4 366/5/4
f 366/5/4 363/5/4 367/5/4
f 368/5/4 369/5/4 372/5/4
f 369/8/4 370/8/4 373/8/4
f 372/5/4 369/5/4 373/5/4
f 373/8/4 370/8/4 374/8/4
f 371/5/4 372/5/4 375/5/4
f 372/8/4 373/8/4 375/8/4
f 375/8/4 373/8/4 376/8/4
f 371/5/4 375/5/4 379/5/4
f 377/6/4 378/6/4 381/6/4
f 381/6/4 378/6/4 382/6/4
f 371/5/4 379/5/4 383/5/4
f 379/8/4 380/8/4 384/8/4
f 383/5/4 379/5/4 384/5/4
f 384/8/4 380/8/4 385/8/4
f 384/5/4 385/5/4 387/5/4
f 385/8/4 386/8/4 388/8/4
f 387/5/4 385/5/4 388/5/4
f 388/8/4 386/8/4 389/8/4
f 390/6/4 391/6/4 393/6/4
f 393/6/4 391/6/4 394/6/4
f 392/7/4 393/7/4 395/7/4
f 395/7/4 393/7/4 396/7/4
f 396/7/4 393/7/4 397/7/4
f 398/7/4 399/7/4 400/7/4
f 400/7/4 399/7/4 401/7/4
f 401/7/4 399/7/4 402/7/4
f 402/6/4 403/6/4 404/6/4
f 404/6/4 403/6/4 405/6/4
f 408/5/4 409/5/4 413/5/4
f 413/5/4 409/5/4 414/5/4
f 414/5/4 409/5/4 415/5/4
f 409/3/4 410/3/4 416/3/4
f 415/5/4 409/5/4 416/5/4
f 416/3/4 410/3/4 417/3/4
f 410/5/4 411/5/4 418/5/4
f 417/3/4 410/3/4 418/3/4
f 411/3/4 412/3/4 419/3/4
f 418/5/4 411/5/4 419/5/4
f 419/3/4 412/3/4 420/3/4
f 406/6/4 407/6/4 423/6/4
f 414/5/4 415/5/4 424/5/4
f 416/2/4 417/2/4 425/2/4
f 424/5/4 415/5/4 425/5/4
f 415/2/4 416/2/4 425/2/4
f 425/2/4 417/2/4 426/2/4
f 417/5/4 418/5/4 427/5/4
f 426/2/4 417/2/4 427/2/4
f 418/3/4 419/3/4 428/3/4
f 427/5/4 418/5/4 428/5/4
f 428/3/4 419/3/4 429/3/4
f 419/5/4 420/5/4 430/5/4
f 429/3/4 419/3/4 430/3/4
f 430/5/4 420/5/4 431/5/4
f 421/8/4 422/8/4 432/8/4
f 422/6/4 423/6/4 433/6/4
f 432/8/4 422/8/4 433/8/4
f 425/5/4 426/5/4 435/5/4
f 426/1/4 427/1/4 436/1/4
f 435/5/4 426/5/4 436/5/4
f 436/1/4 427/1/4 437/1/4
f 428/2/4 429/2/4 438/2/4
f 437/1/4 427/1/4 438/1/4
f 427/2/4 428/2/4 438/2/4
f 430/5/4 431/5/4 439/5/4
f 438/2/4 429/2/4 439/2/4
f 429/5/4 430/5/4 439/5/4
f 439/5/4 431/5/4 440/5/4
f 440/5/4 431/5/4 441/5/4
f 432/6/4 433/6/4 442/6/4
f 433/6/4 423/6/4 443/6/4
f 442/6/4 433/6/4 443/6/4
f 434/5/4 435/5/4 444/5/4
f 435/5/4 436/5/4 444/5/4
f 444/5/4 436/5/4 445/5/4
f 445/5/4 436/5/4 446/5/4
f 436/3/4 437/3/4 447/3/4
f 446/5/4 436/5/4 447/5/4
f 437/5/4 438/5/4 448/5/4
f 447/3/4 437/3/4 448/3/4
f 438/5/4 439/5/4 448/5/4
f 439/2/4 440/2/4 449/2/4
f 448/5/4 439/5/4 449/5/4
f 440/1/4 441/1/4 450/1/4
f 449/2/4 440/2/4 450/2/4
f 450/1/4 441/1/4 451/1/4
f 442/8/4 443/8/4 452/8/4
f 443/6/4 423/6/4 453/6/4
f 452/8/4 443/8/4 453/8/4
f 423/6/4 407/6/4 454/6/4
f 453/6/4 423/6/4 454/6/4
f 445/3/4 446/3/4 455/3/4
f 446/5/4 447/5/4 456/5/4
f 455/3/4 446/3/4 456/3/4
f 447/5/4 448/5/4 456/5/4
f 448/3/4 449/3/4 457/3/4
f 456/5/4 448/5/4 457/5/4
f 449/5/4 450/5/4 458/5/4
f 457/3/4 449/3/4 458/3/4
f 450/5/4 451/5/4 458/5/4
f 458/5/4 451/5/4 459/5/4
f 454/6/4 407/6/4 460/6/4
f 460/6/4 407/6/4 461/6/4
f 462/3/4 463/3/4 465/3/4
f 463/5/4 464/5/4 466/5/4
f 465/3/4 463/3/4 466/3/4
f 466/5/4 464/5/4 467/5/4
f 467/5/4 464/5/4 468/5/4
f 465/5/4 466/5/4 469/5/4
f 466/5/4 467/5/4 469/5/4
f 469/5/4 467/5/4 470/5/4
f 469/2/4 470/2/4 471/2/4
f 471/2/4 470/2/4 472/2/4
f 471/5/4 472/5/4 473/5/4
f 473/5/4 472/5/4 474/5/4
f 473/3/4 474/3/4 476/3/4
f 474/5/4 475/5/4 477/5/4
f 476/3/4 474/3/4 477/3/4
f 477/5/4 475/5/4 478/5/4
f 483/4/5 480/4/5 479/4/5
f 484/5/5 481/5/5 480/5/5
f 484/4/5 480/4/5 483/4/5
f 485/4/5 482/4/5 481/4/5
f 485/5/5 481/5/5 484/5/5
f 486/4/5 482/4/5 485/4/5
f 489/5/5 488/5/5 487/5/5
f 490/5/5 488/5/5 489/5/5
f 495/5/5 492/5/5 491/5/5
f 496/5/5 492/5/5 495/5/5
f 497/5/5 494/5/5 493/5/5
f 498/5/5 494/5/5 497/5/5
f 501/5/5 500/5/5 499/5/5
f 502/5/5 500/5/5 501/5/5
f 507/5/5 504/5/5 503/5/5
f 508/5/5 504/5/5 507/5/5
f 509/3/5 506/3/5 505/3/5
f 510/3/5 506/3/5 509/3/5
f 513/5/5 512/5/5 511/5/5
f 514/5/5 512/5/5 513/5/5
f 519/5/5 516/5/5 515/5/5
f 519/5/5 518/5/5 517/5/5
f 519/5/5 517/5/5 516/5/5
f 520/5/5 518/5/5 519/5/5
f 525/5/5 522/5/5 521/5/5
f 526/5/5 522/5/5 525/5/5
f 529/5/5 524/5/5 523/5/5
f 530/5/5 524/5/5 529/5/5
f 531/7/5 528/7/5 527/7/5
f 532/7/5 528/7/5 531/7/5
f 539/3/5 534/3/5 533/3/5
f 540/5/5 535/5/5 534/5/5
f 540/3/5 534/3/5 539/3/5
f 541/2/5 536/2/5 535/2/5
f 541/5/5 535/5/5 540/5/5
f 542/5/5 537/5/5 536/5/5
f 542/2/5 536/2/5 541/2/5
f 543/3/5 538/3/5 537/3/5
f 543/5/5 537/5/5 542/5/5
f 544/3/5 538/3/5 543/3/5
f 549/7/5 546/7/5 545/7/5
f 550/7/5 546/7/5 549/7/5
f 551/7/5 548/7/5 547/7/5
f 552/7/5 548/7/5 551/7/5
f 561/7/5 554/7/5 553/7/5
f 561/7/5 555/7/5 554/7/5
f 562/7/5 555/7/5 561/7/5
f 563/7/5 555/7/5 562/7/5
f 564/6/5 557/6/5 556/6/5
f 565/6/5 557/6/5 564/6/5
f 566/7/5 560/7/5 559/7/5
f 566/7/5 559/7/5 558/7/5
f 567/7/5 560/7/5 566/7/5
f 568/7/5 560/7/5 567/7/5
f 574/6/5 570/6/5 569/6/5
f 575/6/5 570/6/5 574/6/5
f 576/6/5 572/6/5 571/6/5
f 577/6/5 572/6/5 576/6/5
f 579/6/5 574/6/5 573/6/5
f 580/6/5 574/6/5 579/6/5
f 583/6/5 578/6/5 577/6/5
f 584/6/5 578/6/5 583/6/5
f 585/6/5 581/6/5 580/6/5
f 586/6/5 581/6/5 585/6/5
f 587/6/5 583/6/5 582/6/5
f 588/6/5 583/6/5 587/6/5
f 589/4/6 590/4/6 591/4/6
f 591/4/6 590/4/6 592/4/6
f 593/4/6 594/4/6 597/4/6
f 597/4/6 594/4/6 598/4/6
f 595/4/6 596/4/6 599/4/6
f 599/4/6 596/4/6 600/4/6
f 601/7/6 602/7/6 603/7/6
f 603/7/6 602/7/6 604/7/6
f 605/5/6 606/5/6 609/5/6
f 606/2/6 607/2/6 610/2/6
f 609/5/6 606/5/6 610/5/6
f 607/5/6 608/5/6 611/5/6
f 610/2/6 607/2/6 611/2/6
f 611/5/6 608/5/6 612/5/6
f 613/5/6 614/5/6 617/5/6
f 617/5/6 614/5/6 618/5/6
f 615/5/6 616/5/6 619/5/6
f 619/5/6 616/5/6 620/5/6
f 617/8/6 618/8/6 621/8/6
f 621/8/6 618/8/6 622/8/6
f 619/8/6 620/8/6 623/8/6
f 623/8/6 620/8/6 624/8/6
f 625/8/6 626/8/6 629/8/6
f 629/8/6 626/8/6 630/8/6
f 627/8/6 628/8/6 631/8/6
f 631/8/6 628/8/6 632/8/6
f 629/5/6 630/5/6 633/5/6
f 633/5/6 630/5/6 634/5/6
f 631/5/6 632/5/6 635/5/6
f 635/5/6 632/5/6 636/5/6
f 637/6/6 638/6/6 640/6/6
f 640/6/6 638/6/6 641/6/6
f 639/6/6 640/6/6 643/6/6
f 641/6/6 642/6/6 643/6/6
f 640/6/6 641/6/6 643/6/6
f 643/6/6 642/6/6 644/6/6
f 644/6/6 642/6/6 645/6/6
f 645/6/6 642/6/6 646/6/6
f 644/6/6 645/6/6 647/6/6
f 647/6/6 645/6/6 648/6/6
